<svg width="24" height="24" viewBox="0 0 24 24" fill="none" xmlns="http://www.w3.org/2000/svg">
<path d="M7.92303 5C8.52189 5 9.06852 5.05333 9.56294 5.15888C10.0574 5.26443 10.4796 5.43776 10.8318 5.67885C11.184 5.91995 11.4573 6.23994 11.6517 6.63992C11.8462 7.0399 11.9428 7.5332 11.9428 8.12095C11.9428 8.75536 11.7984 9.28422 11.5106 9.70754C11.2229 10.1308 10.7962 10.4775 10.2329 10.7475C11.0084 10.9708 11.5873 11.3619 11.9695 11.9196C12.3517 12.4774 12.5428 13.1507 12.5428 13.9384C12.5428 14.5728 12.4195 15.1228 12.1728 15.5872C11.9262 16.0517 11.594 16.4305 11.1762 16.7238C10.7584 17.0183 10.2829 17.2349 9.74849 17.376C9.21074 17.5171 8.65632 17.5882 8.1008 17.5871H2V5H7.92303ZM7.57082 10.0942C8.06413 10.0942 8.46967 9.97641 8.78743 9.74198C9.10519 9.50644 9.26407 9.12534 9.26296 8.59648C9.26296 8.30316 9.20963 8.06206 9.10408 7.8743C8.99853 7.68653 8.85742 7.53876 8.68077 7.43321C8.50411 7.32766 8.3019 7.25433 8.07302 7.21322C7.83748 7.17211 7.5986 7.151 7.35861 7.15211H4.76875V10.0964L7.57082 10.0942V10.0942ZM7.72971 15.435C7.9908 15.4361 8.25079 15.4095 8.50522 15.3561C8.75187 15.3028 8.96964 15.215 9.15741 15.0917C9.34518 14.9684 9.49517 14.8006 9.60739 14.5895C9.71849 14.3784 9.77516 14.1073 9.77516 13.7784C9.77516 13.1329 9.59294 12.6707 9.22852 12.3952C8.86409 12.1185 8.38189 11.9808 7.78304 11.9808H4.76875V15.4361L7.72971 15.435V15.435ZM16.0248 15.1706C16.4004 15.535 16.9415 15.7172 17.647 15.7172C18.1525 15.7172 18.5869 15.5906 18.9513 15.3384C19.3158 15.0861 19.5391 14.8184 19.6213 14.5362H21.8245C21.4723 15.6295 20.9312 16.4105 20.2024 16.8805C19.4735 17.3505 18.5925 17.586 17.5581 17.586C16.8415 17.586 16.1948 17.4716 15.6193 17.2427C15.0438 17.0138 14.556 16.6872 14.156 16.2639C13.7561 15.8406 13.4472 15.3361 13.2305 14.7484C13.0139 14.1606 12.905 13.514 12.905 12.8096C12.905 12.1285 13.0161 11.4941 13.2394 10.9064C13.4627 10.3186 13.7805 9.81086 14.1916 9.382C14.6027 8.95313 15.0938 8.61537 15.6637 8.36872C16.2337 8.12206 16.8659 7.99873 17.5592 7.99873C18.3347 7.99873 19.0102 8.14873 19.5869 8.44871C20.1624 8.7487 20.6357 9.1509 21.0057 9.65643C21.3757 10.162 21.6434 10.7375 21.8079 11.3841C21.9723 12.0307 22.0312 12.7063 21.9845 13.4118H15.4093C15.4438 14.2195 15.6493 14.8073 16.0248 15.1706ZM18.8547 10.3764C18.5547 10.0475 18.0992 9.88308 17.4881 9.88308C17.0881 9.88308 16.7559 9.95086 16.4926 10.0853C16.2282 10.2208 16.0171 10.3875 15.8582 10.5875C15.6993 10.7875 15.5882 10.9986 15.5237 11.2219C15.4593 11.4452 15.4204 11.6452 15.4093 11.8208H19.4813C19.3624 11.1875 19.1536 10.7053 18.8547 10.3764V10.3764ZM14.9804 5.63886H20.068V7.04989H14.9804V5.63886V5.63886Z" fill="white"/>
</svg>
