<?xml version="1.0" encoding="UTF-8"?>
<svg width="20px" height="21px" viewBox="0 0 20 21" version="1.1" xmlns="http://www.w3.org/2000/svg" xmlns:xlink="http://www.w3.org/1999/xlink">
    <title>8DB017E1-FBDE-495A-8E98-81A1E06CB5CC</title>
    <g id="Page-1" stroke="none" stroke-width="1" fill="none" fill-rule="evenodd">
        <g id="Home-—-Desktop" transform="translate(-1051.000000, -2098.000000)" fill="#FE5665" fill-rule="nonzero">
            <g id="card/case_study" transform="translate(200.000000, 1799.000000)">
                <g id="Group-7" transform="translate(647.000000, 95.000000)">
                    <g id="Button" transform="translate(0.000000, 191.000000)">
                        <g id="ic_arrow" transform="translate(204.000000, 13.000000)">
                            <path d="M12.0102753,18.375 C12.2478318,18.375 12.4556938,18.2769031 12.6635558,18.0698097 L18.869721,11.2466263 C19.0676848,11.0395329 19.1666667,10.7779412 19.1666667,10.5054498 C19.1666667,10.2220588 19.0676848,9.96046713 18.869721,9.7533737 L12.6833522,2.95198962 C12.465592,2.72309689 12.2478318,2.625 12.0102753,2.625 C11.5054676,2.625 11.1194382,3.0282872 11.1194382,3.58416955 C11.1194382,3.8566609 11.2085219,4.10735294 11.3767911,4.2817474 L13.4752074,6.63607266 L16.474359,9.65527682 L14.2472662,9.50268166 L2.56740196,9.50268166 C2.04279789,9.50268166 1.66666667,9.91686851 1.66666667,10.5054498 C1.66666667,11.0831315 2.04279789,11.4973183 2.56740196,11.4973183 L14.2472662,11.4973183 L16.4842572,11.3447232 L13.4752074,14.3639273 L11.3767911,16.7182526 C11.2184201,16.8926471 11.1194382,17.1433391 11.1194382,17.4158304 C11.1194382,17.9717128 11.5054676,18.375 12.0102753,18.375 Z" id="color"></path>
                        </g>
                    </g>
                </g>
            </g>
        </g>
    </g>
</svg>