<?xml version="1.0" encoding="UTF-8"?>
<svg width="24px" height="24px" viewBox="0 0 24 24" version="1.1" xmlns="http://www.w3.org/2000/svg" xmlns:xlink="http://www.w3.org/1999/xlink">
    <title>F60BD98F-53BB-4897-8E32-00223EAF5461</title>
    <defs>
        <filter id="filter-1">
            <feColorMatrix in="SourceGraphic" type="matrix" values="0 0 0 0 0.996078 0 0 0 0 0.337255 0 0 0 0 0.396078 0 0 0 1.000000 0"></feColorMatrix>
        </filter>
    </defs>
    <g id="Page-1" stroke="none" stroke-width="1" fill="none" fill-rule="evenodd">
        <g id="Home-—-Desktop" transform="translate(-547.000000, -6773.000000)">
            <g id="Group-4" transform="translate(-0.893223, 2385.000000)">
                <g id="block/CONTACT-US" transform="translate(200.893223, 3959.000000)">
                    <g id="Group-19" transform="translate(85.000000, 62.000000)">
                        <g id="icon/attach" transform="translate(262.000000, 367.000000)">
                            <g id="ic_attach" transform="translate(0.000000, -0.000094)" fill="#FE5665" fill-rule="nonzero">
                                <path d="M22.7309437,8.74054688 C22.3490069,8.3510625 21.7314798,8.35279688 21.3516003,8.74434375 L9.62704393,20.8303594 C8.10592576,22.3899375 5.635406,22.3899375 4.11145324,20.82825 C2.58864346,19.2661406 2.58864346,16.7331563 4.11163611,15.1716563 L16.1832457,2.7298125 C17.1329216,1.75617188 18.6768993,1.75617188 19.6293183,2.73192188 C20.5814631,3.70814063 20.5814631,5.29096875 19.6290897,6.26746875 L9.6288727,16.5204375 C9.62823263,16.5210938 9.627684,16.5218438 9.62704393,16.5225 C9.24606718,16.9109531 8.63036886,16.9104375 8.25016933,16.520625 C7.86932973,16.1301563 7.86932973,15.4972969 8.25016933,15.1068281 L13.0771856,10.1567344 C13.4580252,9.76617188 13.4579794,9.13298438 13.0770484,8.74251563 C12.6961174,8.35204688 12.0785446,8.35209375 11.697705,8.74265625 L6.87073446,13.6926563 C5.72816993,14.8641094 5.72816993,16.7632969 6.87082589,17.9347969 C8.01343614,19.1062969 9.86578876,19.1062969 11.0084447,17.9347969 C11.0097706,17.9334375 11.0108221,17.9319844 11.0121022,17.930625 L21.0083875,7.68159375 C22.7225771,5.9240625 22.7225771,3.07490625 21.0083875,1.317375 C19.2939692,-0.439125 16.5152574,-0.439125 14.8020735,1.317375 L2.73046392,13.7593125 C0.447529378,16.0999688 0.447529378,19.8989531 2.7321098,22.2424688 C5.01819896,24.5851406 8.72354427,24.5851406 11.0082619,22.2426563 L22.7346927,10.1547656 C23.1145265,9.76317188 23.1128349,9.13003125 22.7309437,8.74054688 Z" id="Path"></path>
                            </g>
                        </g>
                    </g>
                </g>
            </g>
        </g>
    </g>
</svg>