<?xml version="1.0" encoding="UTF-8"?>
<svg width="16px" height="16px" viewBox="0 0 16 16" version="1.1" xmlns="http://www.w3.org/2000/svg" xmlns:xlink="http://www.w3.org/1999/xlink">
    <title>37AF10C6-BB2B-4C50-90E6-448B5ADB36BA</title>
    <defs>
        <filter id="filter-1">
            <feColorMatrix in="SourceGraphic" type="matrix" values="0 0 0 0 0.066667 0 0 0 0 0.121569 0 0 0 0 0.266667 0 0 0 0.400000 0"></feColorMatrix>
        </filter>
    </defs>
    <g id="Page-1" stroke="none" stroke-width="1" fill="none" fill-rule="evenodd">
        <g id="Home-—-Desktop" transform="translate(-577.000000, -7362.000000)">
            <g id="Group-4" transform="translate(-0.893223, 2385.000000)">
                <g id="LATEST-ARTICLES" transform="translate(0.893223, 4688.000000)">
                    <g id="card/blog" transform="translate(557.000000, 83.000000)">
                        <g id="Shape-2" transform="translate(20.000000, 206.000000)" filter="url(#filter-1)">
                            <g transform="translate(2.666667, 2.666667)">
                                <path d="M9.48148148,1.18518519 L8.88888889,1.18518519 L8.88888889,0.592592593 C8.88888889,0.265312741 8.62357615,0 8.2962963,0 C7.96901644,0 7.7037037,0.265312741 7.7037037,0.592592593 L7.7037037,1.18518519 L2.96296296,1.18518519 L2.96296296,0.592592593 C2.96296296,0.265312741 2.69765022,0 2.37037037,0 C2.04309052,0 1.77777778,0.265312741 1.77777778,0.592592593 L1.77777778,1.18518519 L1.18518519,1.18518519 C0.530625482,1.18518519 0,1.71581067 0,2.37037037 L0,10.0740741 C0,10.7286338 0.530625482,11.2592593 1.18518519,11.2592593 L9.48148148,11.2592593 C10.1360412,11.2592593 10.6666667,10.7286338 10.6666667,10.0740741 L10.6666667,2.37037037 C10.6666667,1.71581067 10.1360412,1.18518519 9.48148148,1.18518519 Z M9.48148148,10.0740741 L1.18518519,10.0740741 L1.18518519,3.55555556 L9.48148148,3.55555556 L9.48148148,10.0740741 Z" id="Shape" fill="#111F44"></path>
                            </g>
                        </g>
                    </g>
                </g>
            </g>
        </g>
    </g>
</svg>