<?xml version="1.0" encoding="UTF-8"?>
<svg width="24px" height="24px" viewBox="0 0 24 24" version="1.1" xmlns="http://www.w3.org/2000/svg" xmlns:xlink="http://www.w3.org/1999/xlink">
    <title>D898DA6E-A5DA-4C24-A0E8-FD46B072C86D</title>
    <g id="Page-1" stroke="none" stroke-width="1" fill="none" fill-rule="evenodd">
        <g id="Home-—-Menu-—-Services_" transform="translate(-214.000000, -257.000000)" fill="#4D8CDB">
            <g id="MENU-Services" transform="translate(184.000000, 55.000000)">
                <g id="Mobile-app-development-" transform="translate(30.000000, 42.000000)">
                    <g id="Flutter" transform="translate(0.000000, 152.000000)">
                        <g id="ic_menu_flutter" transform="translate(0.000000, 8.000000)">
                            <path d="M2.5638852,-1.03584031e-16 L18.8722296,2.07168062e-16 C20.6552671,-1.2037061e-16 21.3018396,0.185651222 21.9536914,0.534265408 C22.6055433,0.882879593 23.1171204,1.39445674 23.4657346,2.04630859 C23.8143488,2.69816044 24,3.34473292 24,5.1277704 L24,18.8722296 C24,20.6552671 23.8143488,21.3018396 23.4657346,21.9536914 C23.1171204,22.6055433 22.6055433,23.1171204 21.9536914,23.4657346 C21.3018396,23.8143488 20.6552671,24 18.8722296,24 L5.1277704,24 C3.34473292,24 2.69816044,23.8143488 2.04630859,23.4657346 C1.39445674,23.1171204 0.882879593,22.6055433 0.534265408,21.9536914 C0.185651222,21.3018396 8.02470732e-17,20.6552671 -1.38112041e-16,18.8722296 L6.90560205e-17,2.5638852 C-4.01235366e-17,1.67236646 0.0928256111,1.34908022 0.267132704,1.0231543 C0.441439796,0.697228371 0.697228371,0.441439796 1.0231543,0.267132704 C1.34908022,0.0928256111 1.67236646,6.01853049e-17 2.5638852,-1.03584031e-16 Z" id="Combined-Shape" opacity="0.100000001"></path>
                            <path d="M18.3748638,11.3654486 C18.512935,11.3654486 18.6248638,11.4773774 18.6248638,11.6154486 C18.6248638,11.6808543 18.5992316,11.7436554 18.5534651,11.7903816 L14.539236,15.8884486 L18.8665281,20.4214853 C18.8961249,20.4524897 18.9169997,20.4903013 18.9276278,20.5311144 L18.9356941,20.5941094 C18.9356941,20.7124561 18.8534607,20.8115962 18.7430168,20.8375067 L18.6856941,20.8441094 L14.1404835,20.8441094 C14.0962808,20.8441094 14.053285,20.8324031 14.0156409,20.8107073 L13.9637068,20.7708861 L11.7143018,18.5226679 C11.6922315,18.5114216 11.6714717,18.4966782 11.6528399,18.4784291 L11.6509963,18.4766045 L9.2124593,16.0380675 C9.16028608,15.9858943 9.13599379,15.9163981 9.13958242,15.8480934 C9.13947937,15.8042777 9.15049202,15.7602086 9.17286673,15.7208881 L9.21498114,15.6660942 L10.405236,14.4914486 L13.4583015,11.4386719 C13.5051856,11.3917878 13.5687741,11.3654486 13.6350782,11.3654486 L18.3748638,11.3654486 Z M18.7178019,3 C18.7841061,3 18.8476945,3.02633921 18.8945786,3.0732233 C18.9922097,3.17085438 18.9922097,3.32914562 18.8945786,3.4267767 L18.8945786,3.4267767 L7.87858974,14.4427656 C7.78095866,14.5403967 7.62266742,14.5403967 7.52503634,14.4427656 L7.52503634,14.4427656 L5.17586128,12.0935905 C5.07858843,11.9963177 5.07817936,11.8387339 5.17494587,11.7409573 L5.17494587,11.7409573 L13.7522306,3.07414348 C13.7991871,3.02669684 13.8631687,3 13.9299227,3 L13.9299227,3 Z" id="Combined-Shape"></path>
                        </g>
                    </g>
                </g>
            </g>
        </g>
    </g>
</svg>