<?xml version="1.0" encoding="UTF-8"?>
<svg width="24px" height="24px" viewBox="0 0 24 24" version="1.1" xmlns="http://www.w3.org/2000/svg" xmlns:xlink="http://www.w3.org/1999/xlink">
    <title>B0DC235C-A6B8-4739-A564-926D7AEAE3C7</title>
    <g id="Page-1" stroke="none" stroke-width="1" fill="none" fill-rule="evenodd">
        <g id="Home-—-Menu-—-Services_" transform="translate(-214.000000, -366.000000)" fill="#4DA96D">
            <g id="MENU-Services" transform="translate(184.000000, 55.000000)">
                <g id="Web-development" transform="translate(30.000000, 267.000000)">
                    <g id="Frontend" transform="translate(0.000000, 42.000000)">
                        <g id="ic_menu_frontend" transform="translate(0.000000, 2.000000)">
                            <path d="M2.5638852,-1.03584031e-16 L21.4361148,1.03584031e-16 C22.3276335,-6.01853049e-17 22.6509198,0.0928256111 22.9768457,0.267132704 C23.3027716,0.441439796 23.5585602,0.697228371 23.7328673,1.0231543 C23.9071744,1.34908022 24,1.67236646 24,2.5638852 L24,21.4361148 C24,22.3276335 23.9071744,22.6509198 23.7328673,22.9768457 C23.5585602,23.3027716 23.3027716,23.5585602 22.9768457,23.7328673 C22.6509198,23.9071744 22.3276335,24 21.4361148,24 L2.5638852,24 C1.67236646,24 1.34908022,23.9071744 1.0231543,23.7328673 C0.697228371,23.5585602 0.441439796,23.3027716 0.267132704,22.9768457 C0.0928256111,22.6509198 4.01235366e-17,22.3276335 -6.90560205e-17,21.4361148 L6.90560205e-17,2.5638852 C-4.01235366e-17,1.67236646 0.0928256111,1.34908022 0.267132704,1.0231543 C0.441439796,0.697228371 0.697228371,0.441439796 1.0231543,0.267132704 C1.34908022,0.0928256111 1.67236646,6.01853049e-17 2.5638852,-1.03584031e-16 Z" id="Rectangle" opacity="0.100000001"></path>
                            <path d="M13.7076916,6.68132529 C14.1408345,6.83624492 14.4052762,7.27248982 14.3684799,7.74665304 L14.3529284,7.86584294 L14.3250047,7.97466772 L11.5557739,16.6700117 C11.3838757,17.2097696 10.8181287,17.5067417 10.2923084,17.3186747 C9.85916545,17.1637551 9.59472382,16.7275102 9.63152007,16.253347 L9.64707162,16.1341571 L9.67499533,16.0253323 L12.4442261,7.32998834 C12.6161243,6.79023045 13.1818713,6.49325832 13.7076916,6.68132529 Z M16.5692685,6.6867664 L16.6877184,6.74076689 L16.7145394,6.7567019 L16.8452012,6.84738453 L16.9343408,6.92928027 L21.088187,11.2769522 C21.4038742,11.6073699 21.4615558,12.1097993 21.2356177,12.5197358 L21.1669471,12.6290447 L21.088187,12.7230478 L16.9343408,17.0707197 C16.5435117,17.4797856 15.9044095,17.4755789 15.5186006,17.0616091 C15.20963,16.7300861 15.1558129,16.2322244 15.3807664,15.8260948 L15.4490468,15.7178004 L15.5271779,15.6246449 L18.989,12 L15.5271976,8.37537579 C15.2455063,8.08054031 15.1690085,7.64834549 15.3169566,7.26675213 L15.3746119,7.14168631 L15.4415863,7.03254448 L15.5186006,6.93839094 C15.7940187,6.64286949 16.2074125,6.55031676 16.5692685,6.6867664 Z M8.48139944,6.93839094 C8.79037003,7.26991387 8.84418712,7.76777555 8.61923359,8.17390521 L8.55095322,8.28219961 L8.47279352,8.37538507 L5.01,12 L8.47280239,15.6246242 C8.75449366,15.9194597 8.83099149,16.3516545 8.6830434,16.7332479 L8.62538814,16.8583137 L8.55841374,16.9674555 L8.48139944,17.0616091 C8.16300973,17.4032386 7.66581555,17.4694861 7.2623163,17.2265591 L7.1547988,17.1526155 L7.06565915,17.0707197 L2.911813,12.7230478 C2.59612584,12.3926301 2.53844417,11.8902007 2.76438225,11.4802642 L2.83305287,11.3709553 L2.911813,11.2769522 L7.06565915,6.92928027 C7.45648826,6.52021439 8.09559053,6.52442113 8.48139944,6.93839094 Z" id="Shape" fill-rule="nonzero"></path>
                        </g>
                    </g>
                </g>
            </g>
        </g>
    </g>
</svg>