<?xml version="1.0" encoding="UTF-8"?>
<svg width="24px" height="24px" viewBox="0 0 24 24" version="1.1" xmlns="http://www.w3.org/2000/svg" xmlns:xlink="http://www.w3.org/1999/xlink">
    <title>3F00C462-626F-4BD3-99F5-BB022C4A276D</title>
    <g id="Page-1" stroke="none" stroke-width="1" fill="none" fill-rule="evenodd">
        <g id="Home-—-Menu-—-Solutions" transform="translate(-696.000000, -97.000000)" fill="#EB6269">
            <g id="Group-13" transform="translate(412.000000, 55.000000)">
                <g id="ic_menu_healthcare" transform="translate(284.000000, 42.000000)">
                    <path d="M2.5638852,-1.03584031e-16 L21.4361148,1.03584031e-16 C22.3276335,-6.01853049e-17 22.6509198,0.0928256111 22.9768457,0.267132704 C23.3027716,0.441439796 23.5585602,0.697228371 23.7328673,1.0231543 C23.9071744,1.34908022 24,1.67236646 24,2.5638852 L24,21.4361148 C24,22.3276335 23.9071744,22.6509198 23.7328673,22.9768457 C23.5585602,23.3027716 23.3027716,23.5585602 22.9768457,23.7328673 C22.6509198,23.9071744 22.3276335,24 21.4361148,24 L2.5638852,24 C1.67236646,24 1.34908022,23.9071744 1.0231543,23.7328673 C0.697228371,23.5585602 0.441439796,23.3027716 0.267132704,22.9768457 C0.0928256111,22.6509198 4.01235366e-17,22.3276335 -6.90560205e-17,21.4361148 L6.90560205e-17,2.5638852 C-4.01235366e-17,1.67236646 0.0928256111,1.34908022 0.267132704,1.0231543 C0.441439796,0.697228371 0.697228371,0.441439796 1.0231543,0.267132704 C1.34908022,0.0928256111 1.67236646,6.01853049e-17 2.5638852,-1.03584031e-16 Z" id="Rectangle" opacity="0.100000001"></path>
                    <path d="M13.254768,10.4974815 L14.5627135,12.9265185 C14.6443041,13.0780663 14.8024951,13.1725692 14.9746277,13.172538 L14.9746277,13.172538 L18.4405458,13.172538 L18.4405458,13.172538 L18.430724,13.1828935 C18.4298034,13.1838706 18.4289183,13.184811 18.4280475,13.185736 C18.4129325,13.2017046 18.3996043,13.2154165 18.3544525,13.2606772 L18.0951404,13.5193751 C17.9330128,13.6808445 17.6867908,13.9258622 17.3096196,14.3010915 L17.1260718,14.48369 C17.0616761,14.5477514 16.9940103,14.6150646 16.9229039,14.6857996 L16.6990924,14.9084398 C15.8002729,15.8025469 14.4238677,17.171654 12.3103938,19.2741832 C12.1279064,19.4557661 11.8329513,19.4557349 11.6504951,19.2741832 C9.16617785,16.8027348 7.69828448,15.3426721 6.82791289,14.4768254 L6.64416247,14.2940269 C6.55703487,14.2073487 6.47690101,14.127625 6.40318625,14.0542836 L6.26414527,13.9159408 C6.24234148,13.8942455 6.22120837,13.8732169 6.20072464,13.8528338 L6.08544465,13.7381126 C6.06747334,13.720227 6.05010885,13.7029445 6.0333299,13.6862441 L5.89755427,13.5510808 C5.88409701,13.5376814 5.87116144,13.5248004 5.85872628,13.5124166 L5.54284857,13.1964671 C5.54005329,13.1935458 5.53793087,13.1912842 5.53590666,13.1891102 L5.52394384,13.1763199 L5.52394384,13.1763199 L5.52034308,13.172538 L8.48729825,13.172538 C8.65163353,13.172538 8.80389864,13.0863314 8.88845224,12.9454191 L8.88845224,12.9454191 L9.24753216,12.346963 L10.5877271,14.4529435 C10.7850604,14.7630877 11.2478752,14.7342378 11.4052242,14.4020429 L11.4052242,14.4020429 L13.254768,10.4974815 Z M11.9804756,6.3254425 C16.3407719,2.51179727 22.0894503,7.69077583 19.180694,12.2368967 L19.180694,12.2368967 L15.2540507,12.2368967 L13.6399532,9.23928265 C13.4588382,8.90293957 12.9694503,8.91394932 12.8052398,9.26080312 L12.8052398,9.26080312 L10.9222612,13.235883 L9.63050292,11.2060039 C9.44265107,10.9106433 9.01242885,10.9201871 8.83465107,11.2164522 L8.83465107,11.2164522 L8.22240936,12.2368967 L4.78025731,12.2368967 C4.24920078,11.406924 3.98240936,10.5066511 4.00090448,9.58242495 C4.07348148,5.95591423 8.49949318,3.28082651 11.9804756,6.3254425 Z" id="Combined-Shape" fill-rule="nonzero"></path>
                </g>
            </g>
        </g>
    </g>
</svg>