<?xml version="1.0" encoding="UTF-8"?>
<svg width="24px" height="24px" viewBox="0 0 24 24" version="1.1" xmlns="http://www.w3.org/2000/svg" xmlns:xlink="http://www.w3.org/1999/xlink">
    <title>94E6F127-4455-4CF6-AC31-ADB7C5975A59</title>
    <g id="Page-1" stroke="none" stroke-width="1" fill="none" fill-rule="evenodd">
        <g id="Home-—-Menu-—-Services_" transform="translate(-214.000000, -141.000000)" fill="#4D8CDB">
            <g id="MENU-Services" transform="translate(184.000000, 55.000000)">
                <g id="Mobile-app-development-" transform="translate(30.000000, 42.000000)">
                    <g id="iOS" transform="translate(0.000000, 42.000000)">
                        <g id="ic_menu_apple" transform="translate(0.000000, 2.000000)">
                            <path d="M2.5638852,-1.03584031e-16 L21.4361148,1.03584031e-16 C22.3276335,-6.01853049e-17 22.6509198,0.0928256111 22.9768457,0.267132704 C23.3027716,0.441439796 23.5585602,0.697228371 23.7328673,1.0231543 C23.9071744,1.34908022 24,1.67236646 24,2.5638852 L24,21.4361148 C24,22.3276335 23.9071744,22.6509198 23.7328673,22.9768457 C23.5585602,23.3027716 23.3027716,23.5585602 22.9768457,23.7328673 C22.6509198,23.9071744 22.3276335,24 21.4361148,24 L2.5638852,24 C1.67236646,24 1.34908022,23.9071744 1.0231543,23.7328673 C0.697228371,23.5585602 0.441439796,23.3027716 0.267132704,22.9768457 C0.0928256111,22.6509198 4.01235366e-17,22.3276335 -6.90560205e-17,21.4361148 L6.90560205e-17,2.5638852 C-4.01235366e-17,1.67236646 0.0928256111,1.34908022 0.267132704,1.0231543 C0.441439796,0.697228371 0.697228371,0.441439796 1.0231543,0.267132704 C1.34908022,0.0928256111 1.67236646,6.01853049e-17 2.5638852,-1.03584031e-16 Z" id="Combined-Shape" opacity="0.100000001"></path>
                            <path d="M14.6516971,6.74494935 C15.6856759,6.74494935 16.7805329,7.34094129 17.559584,8.3679274 C15.0055519,9.84890737 15.4193336,13.7068552 18,14.7398412 C17.645194,15.57183 17.4749252,15.942825 17.0173873,16.679815 C16.379117,17.7078011 15.4802118,18.9887838 14.364428,18.9977836 C13.3742054,19.0087835 13.1192778,18.3157929 11.7752006,18.3237928 C10.4311233,18.3307927 10.1514639,19.0097835 9.15933896,18.999893 C8.0445063,18.9897837 7.19221102,17.8337994 6.55394079,16.8058133 C4.77039878,13.9328521 4.58205674,10.5598978 5.68262107,8.76592202 C6.46547711,7.49193925 7.70016379,6.74694932 8.8597039,6.74694932 C10.0401709,6.74694932 10.7830756,7.43194006 11.7609322,7.43194006 C12.709301,7.43194006 13.286693,6.74494935 14.6516971,6.74494935 Z M14.3530133,3 C14.4890381,3.97198685 14.1133052,4.92397398 13.6167672,5.59696488 C13.0859851,6.3199551 12.1699579,6.87894754 11.2834186,6.84994793 C11.1217108,5.91896052 11.5364438,4.96097348 12.0405916,4.3159822 C12.5932518,3.60499182 13.5416206,3.0589992 14.3530133,3 Z" id="Combined-Shape" fill-rule="nonzero"></path>
                        </g>
                    </g>
                </g>
            </g>
        </g>
    </g>
</svg>