<?xml version="1.0" encoding="UTF-8"?>
<svg width="24px" height="24px" viewBox="0 0 24 24" version="1.1" xmlns="http://www.w3.org/2000/svg" xmlns:xlink="http://www.w3.org/1999/xlink">
    <title>8C30B288-42E3-4A82-BD3C-0E0CE0B49A23</title>
    <g id="Page-1" stroke="none" stroke-width="1" fill="none" fill-rule="evenodd">
        <g id="Home-—-Menu-—-Services_" transform="translate(-214.000000, -207.000000)" fill="#4D8CDB">
            <g id="MENU-Services" transform="translate(184.000000, 55.000000)">
                <g id="Mobile-app-development-" transform="translate(30.000000, 42.000000)">
                    <g id="Anddroid" transform="translate(0.000000, 108.000000)">
                        <g id="ic_menu_android" transform="translate(0.000000, 2.000000)">
                            <path d="M2.5638852,-1.03584031e-16 L21.4361148,1.03584031e-16 C22.3276335,-6.01853049e-17 22.6509198,0.0928256111 22.9768457,0.267132704 C23.3027716,0.441439796 23.5585602,0.697228371 23.7328673,1.0231543 C23.9071744,1.34908022 24,1.67236646 24,2.5638852 L24,21.4361148 C24,22.3276335 23.9071744,22.6509198 23.7328673,22.9768457 C23.5585602,23.3027716 23.3027716,23.5585602 22.9768457,23.7328673 C22.6509198,23.9071744 22.3276335,24 21.4361148,24 L2.5638852,24 C1.67236646,24 1.34908022,23.9071744 1.0231543,23.7328673 C0.697228371,23.5585602 0.441439796,23.3027716 0.267132704,22.9768457 C0.0928256111,22.6509198 4.01235366e-17,22.3276335 -6.90560205e-17,21.4361148 L6.90560205e-17,2.5638852 C-4.01235366e-17,1.67236646 0.0928256111,1.34908022 0.267132704,1.0231543 C0.441439796,0.697228371 0.697228371,0.441439796 1.0231543,0.267132704 C1.34908022,0.0928256111 1.67236646,6.01853049e-17 2.5638852,-1.03584031e-16 Z" id="Rectangle" opacity="0.100000001"></path>
                            <path d="M17,12 L17,17 C17,17.5522847 16.5522847,18 16,18 L8,18 C7.44771525,18 7,17.5522847 7,17 L7,12 L17,12 Z M5,12 C5.55228475,12 6,12.4477153 6,13 L6,17 C6,17.5522847 5.55228475,18 5,18 C4.44771525,18 4,17.5522847 4,17 L4,13 C4,12.4477153 4.44771525,12 5,12 Z M19,12 C19.5522847,12 20,12.4477153 20,13 L20,17 C20,17.5522847 19.5522847,18 19,18 C18.4477153,18 18,17.5522847 18,17 L18,13 C18,12.4477153 18.4477153,12 19,12 Z M15.3737658,4.62935813 C15.5118369,4.39021182 15.8176322,4.30827424 16.0567785,4.44634543 C16.2959248,4.58441662 16.3778624,4.89021182 16.2397912,5.12935813 L16.2397912,5.12935813 L15.4932087,6.42263855 C16.4228713,7.33056683 17,8.5978856 17,10 L17,11 L7,11 L7,10 C7,8.72351084 7.47834369,7.55874483 8.26555792,6.6751751 L7.37376576,5.12935813 C7.23569457,4.89021182 7.31763215,4.58441662 7.55677846,4.44634543 C7.79592477,4.30827424 8.10171998,4.39021182 8.23979116,4.62935813 L9.02095895,5.98397621 C9.8529996,5.36576419 10.8837854,5 12,5 C12.9953969,5 13.9228576,5.29086963 14.7020224,5.79224918 Z M9.54398297,8.63853012 C9.2678406,8.63853012 9.04398297,8.86238775 9.04398297,9.13853012 C9.04398297,9.4146725 9.2678406,9.63853012 9.54398297,9.63853012 C9.82012535,9.63853012 10.043983,9.4146725 10.043983,9.13853012 C10.043983,8.86238775 9.82012535,8.63853012 9.54398297,8.63853012 Z M14.3779525,8.63853012 C14.1018101,8.63853012 13.8779525,8.86238775 13.8779525,9.13853012 C13.8779525,9.4146725 14.1018101,9.63853012 14.3779525,9.63853012 C14.6540949,9.63853012 14.8779525,9.4146725 14.8779525,9.13853012 C14.8779525,8.86238775 14.6540949,8.63853012 14.3779525,8.63853012 Z" id="Combined-Shape"></path>
                        </g>
                    </g>
                </g>
            </g>
        </g>
    </g>
</svg>