<?xml version="1.0" encoding="UTF-8"?>
<svg width="24px" height="24px" viewBox="0 0 24 24" version="1.1" xmlns="http://www.w3.org/2000/svg" xmlns:xlink="http://www.w3.org/1999/xlink">
    <title>ED3BB355-B97E-46D4-9CCB-F7788650429A</title>
    <g id="Page-1" stroke="none" stroke-width="1" fill="none" fill-rule="evenodd">
        <g id="Home-—-Menu-—-Solutions" transform="translate(-442.000000, -207.000000)" fill="#EB6269">
            <g id="Group-13" transform="translate(412.000000, 55.000000)">
                <g id="ic_menu_gym" transform="translate(30.000000, 152.000000)">
                    <path d="M2.5638852,-1.03584031e-16 L21.4361148,1.03584031e-16 C22.3276335,-6.01853049e-17 22.6509198,0.0928256111 22.9768457,0.267132704 C23.3027716,0.441439796 23.5585602,0.697228371 23.7328673,1.0231543 C23.9071744,1.34908022 24,1.67236646 24,2.5638852 L24,21.4361148 C24,22.3276335 23.9071744,22.6509198 23.7328673,22.9768457 C23.5585602,23.3027716 23.3027716,23.5585602 22.9768457,23.7328673 C22.6509198,23.9071744 22.3276335,24 21.4361148,24 L2.5638852,24 C1.67236646,24 1.34908022,23.9071744 1.0231543,23.7328673 C0.697228371,23.5585602 0.441439796,23.3027716 0.267132704,22.9768457 C0.0928256111,22.6509198 4.01235366e-17,22.3276335 -6.90560205e-17,21.4361148 L6.90560205e-17,2.5638852 C-4.01235366e-17,1.67236646 0.0928256111,1.34908022 0.267132704,1.0231543 C0.441439796,0.697228371 0.697228371,0.441439796 1.0231543,0.267132704 C1.34908022,0.0928256111 1.67236646,6.01853049e-17 2.5638852,-1.03584031e-16 Z" id="Rectangle" opacity="0.100000001"></path>
                    <path d="M4.27473746,13.7591736 C4.6129336,13.4212406 5.14498734,13.3952457 5.51300772,13.681189 L5.60138834,13.7591736 L10.244557,18.3995844 C10.6109361,18.7656785 10.6109361,19.3592728 10.244557,19.7254294 C9.90638971,20.0633624 9.37428492,20.0893573 9.00630569,19.803414 L8.91793738,19.7254294 L7.59406944,18.4023344 L6.60121539,19.3945853 C6.50962842,19.4861479 6.3896179,19.5319292 6.26960739,19.5319292 C6.17359898,19.5319292 6.07759057,19.5026292 5.99613501,19.4440131 L5.93799939,19.3945541 L4.60556374,18.0633653 C4.51760397,17.9754902 4.46813638,17.8564588 4.46813638,17.7319587 C4.46813638,17.6323586 4.49979564,17.5362785 4.55749474,17.4568225 L4.60556374,17.4005521 L5.59882428,16.4083012 L4.27473746,15.0850186 C3.90842085,14.7189245 3.90842085,14.1253302 4.27473746,13.7591736 Z M5.60138834,11.1075148 C5.93952676,10.7695817 6.47162934,10.7435869 6.83960839,11.0295302 L6.92797669,11.1075148 L12.8978588,17.0737706 C13.2642379,17.4398959 13.2642379,18.0334903 12.8978588,18.3995844 C12.5596915,18.7375174 12.0275867,18.7635122 11.6596075,18.4775689 L11.5712391,18.3995844 L5.60138834,12.4333598 C5.23500919,12.0672657 5.23500919,11.4736714 5.60138834,11.1075148 Z M12.4287921,9.57788826 L14.4187528,11.5665777 L11.5712079,14.422143 L9.58124718,12.433391 L12.4287921,9.57788826 Z M11.1021725,5.60038438 C11.4403109,5.26245135 11.9724401,5.23645651 12.3404233,5.52239983 L12.4287921,5.60038438 L18.3986429,11.566609 C18.7650221,11.9327656 18.7650221,12.5263599 18.3986429,12.892454 C18.0604756,13.230387 17.5283708,13.2563819 17.1603916,12.9704385 L17.0720233,12.892454 L11.1021725,6.92622942 C10.7357934,6.56007281 10.7357934,5.96654098 11.1021725,5.60038438 Z M13.755443,4.27457058 C14.0936103,3.93663756 14.6257151,3.91064271 14.9936943,4.19658604 L15.0820626,4.27457058 L16.4061182,5.59788437 L17.4009422,4.60328965 C17.5572873,4.4470395 17.8207593,4.42967837 18.0009104,4.55120627 L18.0641894,4.60328965 L19.3966251,5.93491595 C19.4845849,6.02279104 19.5340525,6.1418224 19.5340525,6.26632253 C19.5340525,6.36592262 19.5023932,6.46202272 19.4446781,6.54145479 L19.3965938,6.59769785 L18.4013946,7.59191757 L19.7252625,8.91498136 C20.0915792,9.28110672 20.0915792,9.87470105 19.7252625,10.2407952 C19.3871241,10.5787282 18.8550215,10.604723 18.4869933,10.3187797 L18.3986117,10.2407952 L13.755443,5.60038438 C13.3890639,5.23425902 13.3890639,4.64066469 13.755443,4.27457058 Z" id="Shape" fill-rule="nonzero"></path>
                </g>
            </g>
        </g>
    </g>
</svg>