<?xml version="1.0" encoding="UTF-8"?>
<svg width="24px" height="24px" viewBox="0 0 24 24" version="1.1" xmlns="http://www.w3.org/2000/svg" xmlns:xlink="http://www.w3.org/1999/xlink">
    <title>0F817ACE-7635-4732-87E1-2C3AE1E6EA95</title>
    <g id="Page-1" stroke="none" stroke-width="1" fill="none" fill-rule="evenodd">
        <g id="Home-—-Menu-—-Services_" transform="translate(-578.000000, -366.000000)" fill="#F3C44B">
            <g id="MENU-Services" transform="translate(184.000000, 55.000000)">
                <g id="Discovery-Phase" transform="translate(394.000000, 201.000000)">
                    <g id="Audit" transform="translate(0.000000, 108.000000)">
                        <g id="ic_menu_audit" transform="translate(0.000000, 2.000000)">
                            <path d="M2.5638852,-1.03584031e-16 L21.4361148,1.03584031e-16 C22.3276335,-6.01853049e-17 22.6509198,0.0928256111 22.9768457,0.267132704 C23.3027716,0.441439796 23.5585602,0.697228371 23.7328673,1.0231543 C23.9071744,1.34908022 24,1.67236646 24,2.5638852 L24,21.4361148 C24,22.3276335 23.9071744,22.6509198 23.7328673,22.9768457 C23.5585602,23.3027716 23.3027716,23.5585602 22.9768457,23.7328673 C22.6509198,23.9071744 22.3276335,24 21.4361148,24 L2.5638852,24 C1.67236646,24 1.34908022,23.9071744 1.0231543,23.7328673 C0.697228371,23.5585602 0.441439796,23.3027716 0.267132704,22.9768457 C0.0928256111,22.6509198 4.01235366e-17,22.3276335 -6.90560205e-17,21.4361148 L6.90560205e-17,2.5638852 C-4.01235366e-17,1.67236646 0.0928256111,1.34908022 0.267132704,1.0231543 C0.441439796,0.697228371 0.697228371,0.441439796 1.0231543,0.267132704 C1.34908022,0.0928256111 1.67236646,6.01853049e-17 2.5638852,-1.03584031e-16 Z" id="Rectangle" opacity="0.100000001"></path>
                            <path d="M14.2602108,6.58880099 C16.1619779,8.49056806 16.3564584,11.453107 14.8436525,13.5718296 C14.8628567,13.5857817 14.881462,13.6028937 14.8994949,13.6209266 L18.7351998,17.4566315 C19.0882667,17.8096984 19.0882667,18.3821329 18.7351998,18.7351998 C18.3821329,19.0882667 17.8096984,19.0882667 17.4566315,18.7351998 L13.6209266,14.8994949 L13.5718296,14.8436525 C11.453107,16.3564584 8.49056806,16.1619779 6.58880099,14.2602108 C4.47039967,12.1418095 4.47039967,8.70720231 6.58880099,6.58880099 C8.70720231,4.47039967 12.1418095,4.47039967 14.2602108,6.58880099 Z M7.54772721,7.54772721 C5.95892622,9.1365282 5.95892622,11.7124836 7.54772721,13.3012846 C9.1365282,14.8900856 11.7124836,14.8900856 13.3012846,13.3012846 C14.8900856,11.7124836 14.8900856,9.1365282 13.3012846,7.54772721 C11.7124836,5.95892622 9.1365282,5.95892622 7.54772721,7.54772721 Z" id="Combined-Shape" fill-rule="nonzero"></path>
                        </g>
                    </g>
                </g>
            </g>
        </g>
    </g>
</svg>