<?xml version="1.0" encoding="UTF-8"?>
<svg width="24px" height="24px" viewBox="0 0 24 24" version="1.1" xmlns="http://www.w3.org/2000/svg" xmlns:xlink="http://www.w3.org/1999/xlink">
    <title>AA361B04-BF69-47D9-A83F-6CA3B9D1BBA5</title>
    <g id="Page-1" stroke="none" stroke-width="1" fill="none" fill-rule="evenodd">
        <g id="Home-—-Menu-—-Solutions" transform="translate(-696.000000, -251.000000)" fill="#EB6269">
            <g id="Group-13" transform="translate(412.000000, 55.000000)">
                <g id="ic_menu_ecommerce" transform="translate(284.000000, 196.000000)">
                    <path d="M2.5638852,-1.03584031e-16 L21.4361148,1.03584031e-16 C22.3276335,-6.01853049e-17 22.6509198,0.0928256111 22.9768457,0.267132704 C23.3027716,0.441439796 23.5585602,0.697228371 23.7328673,1.0231543 C23.9071744,1.34908022 24,1.67236646 24,2.5638852 L24,21.4361148 C24,22.3276335 23.9071744,22.6509198 23.7328673,22.9768457 C23.5585602,23.3027716 23.3027716,23.5585602 22.9768457,23.7328673 C22.6509198,23.9071744 22.3276335,24 21.4361148,24 L2.5638852,24 C1.67236646,24 1.34908022,23.9071744 1.0231543,23.7328673 C0.697228371,23.5585602 0.441439796,23.3027716 0.267132704,22.9768457 C0.0928256111,22.6509198 4.01235366e-17,22.3276335 -6.90560205e-17,21.4361148 L6.90560205e-17,2.5638852 C-4.01235366e-17,1.67236646 0.0928256111,1.34908022 0.267132704,1.0231543 C0.441439796,0.697228371 0.697228371,0.441439796 1.0231543,0.267132704 C1.34908022,0.0928256111 1.67236646,6.01853049e-17 2.5638852,-1.03584031e-16 Z" id="Rectangle" opacity="0.100000001"></path>
                    <path d="M15.1255525,16.3250883 C16.1494881,16.3250883 16.975822,17.155477 16.9937858,18.1625442 C16.9937858,19.1872792 16.1494881,20 15.1255525,20 C14.0836532,20 13.2573193,19.1696113 13.2573193,18.1625442 C13.2573193,17.1378092 14.101617,16.3250883 15.1255525,16.3250883 Z M8.69451874,16.3250883 C9.68252673,16.3250883 10.5088607,17.1024735 10.5447882,18.0742049 C10.59623,19.0354963 9.86201608,19.851904 8.90460456,19.9702361 L8.76637387,19.9823322 L8.73044631,19.9823322 C7.74243832,19.9823322 6.93406815,19.204947 6.89814059,18.2332155 C6.86221303,17.2261484 7.65261942,16.3780919 8.69451874,16.3250883 Z M5.17361757,5 C5.93443655,5 6.58386765,5.5164635 6.74749785,6.22533496 L6.77239412,6.36042403 L6.95203194,7.54416961 L18.2692143,7.54416961 L18.3224403,7.54875016 L18.3224403,7.54875016 L18.4129246,7.56183746 L18.4129246,7.56183746 C18.7751941,7.62661955 19.0167072,7.9437819 18.9990969,8.28197594 L18.9877656,8.3745583 L17.8201198,14.1166078 C17.633496,14.967609 16.9020818,15.5979802 16.03447,15.6653949 L15.8800314,15.6713781 L8.40709824,15.6713781 C7.488109,15.6713781 6.6981007,15.0370976 6.49529513,14.1741423 L6.46700984,14.0282686 L5.35325538,6.57243816 C5.33888436,6.50176678 5.29002287,6.44240283 5.22506584,6.4214841 L5.17361757,6.41342756 L3.71855126,6.41342756 C3.32334807,6.41342756 3,6.09540636 3,5.70671378 C3,5.35041225 3.2717022,5.05349431 3.62139298,5.0064823 L3.71855126,5 L5.17361757,5 Z" id="Shape" fill-rule="nonzero"></path>
                </g>
            </g>
        </g>
    </g>
</svg>