<?xml version="1.0" encoding="UTF-8"?>
<svg width="44px" height="44px" viewBox="0 0 44 44" version="1.1" xmlns="http://www.w3.org/2000/svg" xmlns:xlink="http://www.w3.org/1999/xlink">
    <title>ic_serv_phone</title>
    <g id="Symbols" stroke="none" stroke-width="1" fill="none" fill-rule="evenodd">
        <g id="pic/services/phone" fill="#141F42" fill-rule="nonzero">
            <g id="ic_serv_phone">
                <path d="M29.8139535,0 C32.0512661,0 33.8786312,1.79698406 33.9941976,4.05810449 L34,4.28571429 L34,39.7142857 C34,42.0048676 32.2448063,43.8757414 30.03627,43.9940594 L29.8139535,44 L14.1860465,44 C11.9487339,44 10.1213688,42.2030159 10.0058024,39.9418955 L10,39.7142857 L10,4.28571429 C10,1.99513237 11.7551937,0.124258577 13.96373,0.00594058213 L14.1860465,0 L29.8139535,0 Z M14.4651163,1.71428571 L14.1860465,1.71428571 C12.85671,1.71428571 11.7685824,2.77161325 11.680213,4.1096585 L11.6744186,4.28571429 L11.6744186,39.7142857 C11.6744186,41.0752731 12.7071571,42.1893085 14.014085,42.2797819 L14.1860465,42.2857143 L29.8139535,42.2857143 C31.14329,42.2857143 32.2314176,41.2283868 32.319787,39.8903415 L32.3255814,39.7142857 L32.3255814,4.28571429 C32.3255814,2.92472687 31.2928429,1.81069152 29.985915,1.72021807 L29.8139535,1.71428571 L29.5348837,1.71428571 L29.5348837,2 C29.5348837,3.67146496 28.2604228,5.03817632 26.652118,5.13712138 L26.4651163,5.14285714 L17.5348837,5.14285714 C15.90229,5.14285714 14.5673627,3.83805189 14.4707187,2.19145409 L14.4651163,2 L14.4651163,1.71428571 Z M25,38 C25.5522847,38 26,38.4477153 26,39 C26,39.5522847 25.5522847,40 25,40 L19,40 C18.4477153,40 18,39.5522847 18,39 C18,38.4477153 18.4477153,38 19,38 L25,38 Z M27.8604651,1.71428571 L16.1395349,1.71428571 L16.1395349,2 C16.1395349,2.69035594 16.6178353,3.26633898 17.2536723,3.39954793 L17.3922174,3.42119588 L17.5348837,3.42857143 L26.4651163,3.42857143 C27.1875818,3.42857143 27.7818053,2.86642895 27.8532611,2.14606313 L27.8604651,2 L27.8604651,1.71428571 Z" id="Shape"></path>
            </g>
        </g>
    </g>
</svg>