<?xml version="1.0" encoding="UTF-8"?>
<svg width="24px" height="24px" viewBox="0 0 24 24" version="1.1" xmlns="http://www.w3.org/2000/svg" xmlns:xlink="http://www.w3.org/1999/xlink">
    <title>CEE1E48B-B420-44ED-A0F3-30CE3DF96486</title>
    <defs>
        <filter id="filter-1">
            <feColorMatrix in="SourceGraphic" type="matrix" values="0 0 0 0 1.000000 0 0 0 0 0.999937 0 0 0 0 1.000000 0 0 0 1.000000 0"></feColorMatrix>
        </filter>
    </defs>
    <g id="Page-1" stroke="none" stroke-width="1" fill="none" fill-rule="evenodd">
        <g id="Case-study-—-Fitness-and-Wellness-—-Desktop" transform="translate(-754.000000, -6957.000000)">
            <g id="footer" transform="translate(0.000000, 6780.000000)">
                <g id="icon/social/facebook" transform="translate(714.000000, 57.000000)" filter="url(#filter-1)">
                    <g transform="translate(40.000000, 120.000000)" id="ic_social_linkedein" fill="#141F42" fill-rule="nonzero">
                        <path d="M6.5407715,8.18014113 L6.5407715,21 L2.25341797,21 L2.25341797,8.18014113 L6.5407715,8.18014113 Z M17.064209,7.87925674 C19.8247538,7.87925674 21.9096707,9.63447508 21.9971409,13.4008354 L22,13.6493216 L22,21 L17.7130127,21 L17.7130127,14.1417771 C17.7130127,12.4183647 17.0925293,11.2427317 15.5411377,11.2427317 C14.3566894,11.2427317 13.6513672,12.0355863 13.3414307,12.8009004 C13.2443324,13.035819 13.2099236,13.3505145 13.2020741,13.6769888 L13.2001953,13.8408927 L13.2001953,21 L8.91296388,21 L8.91296388,8.18014113 L13.2004394,8.18014113 L13.2004394,10.0393155 L13.2715971,9.94650046 L13.2715971,9.94650046 L13.4148206,9.77444988 L13.4148206,9.77444988 L13.5509243,9.62283443 C14.133095,8.99514646 15.4018364,7.87925674 17.064209,7.87925674 Z M4.42541503,2 C5.89221191,2 6.79479981,2.95712783 6.82275391,4.21514002 C6.82275391,5.3998049 5.95986448,6.3565371 4.56076791,6.4257811 L4.36914062,6.42979471 C2.93029784,6.42979471 2,5.44536894 2,4.21514002 C2,2.95712783 2.95886231,2 4.42541503,2 Z" id="Shape"></path>
                    </g>
                </g>
            </g>
        </g>
    </g>
</svg>