<?xml version="1.0" encoding="UTF-8"?>
<svg width="44px" height="44px" viewBox="0 0 44 44" version="1.1" xmlns="http://www.w3.org/2000/svg" xmlns:xlink="http://www.w3.org/1999/xlink">
    <title>ic_serv_cms</title>
    <g id="Symbols" stroke="none" stroke-width="1" fill="none" fill-rule="evenodd">
        <g id="pic/services/cms" fill="#141F42" fill-rule="nonzero">
            <g id="ic_serv_cms">
                <path d="M38.6929606,3 L38.8798548,3.00525971 C40.4886918,3.0944468 41.8029989,4.32765195 41.979708,5.90333995 L41.9950011,6.08662439 L42,6.2724395 L42,29.7028895 L41.9946737,29.8874461 C41.9043569,31.4761605 40.6555321,32.7740289 39.0598865,32.9485278 L38.8742806,32.9636296 L38.686112,32.968566 L28.0421189,32.9684745 L29.7931657,38.155911 L33.8670336,38.155911 L33.975917,38.1621121 C34.44025,38.2153554 34.8005736,38.6049458 34.8005736,39.0777747 C34.8005736,39.5132407 34.4933122,39.8827185 34.0756766,39.9766078 L33.9690822,39.9942173 L33.8534228,40 L10.1329664,40 L10.024083,39.9934374 C9.55974999,39.940194 9.19942639,39.5506037 9.19942639,39.0777747 C9.19942639,38.6423087 9.50668783,38.2728309 9.92432337,38.1789417 L10.0309178,38.1613321 L10.1465772,38.1555494 L14.2068343,38.155911 L15.9578811,32.9684745 L5.30703936,32.9684745 L5.12014521,32.9633063 C3.51130824,32.8741192 2.19700112,31.6409141 2.02029198,30.0652261 L2.00499895,29.8819416 L2,29.6961265 L2,6.26567651 L2.00532632,6.08111994 C2.09564305,4.49240552 3.3444679,3.19453713 4.94011347,3.02003818 L5.12571938,3.00493642 L5.31388801,3 L38.6929606,3 Z M26.073868,32.9684745 L17.926132,32.9684745 L16.1750853,38.155911 L27.8249147,38.155911 L26.073868,32.9684745 Z M40.1328274,28.2810319 L3.86717261,28.2810319 L3.86717261,29.7028895 L3.87360602,29.8376382 C3.93320934,30.4590933 4.40075773,30.9707461 5.01646311,31.0956477 L5.15057302,31.1163917 L5.29337581,31.1243827 L38.6929606,31.1247471 L38.829416,31.1183942 C39.4587425,31.0595363 39.9768758,30.5978358 40.1033594,29.9898314 L40.1243661,29.8573989 L40.1324584,29.7163822 L40.1328274,28.2810319 Z M23.4398667,14.2187041 L20.5601333,14.2187041 L20.5601333,15.9719786 L20.5531249,16.0850965 C20.5068123,16.4567162 20.2350813,16.7687078 19.8608225,16.8642657 C19.1009352,17.0587045 18.3670089,17.3602929 17.6796644,17.7603703 C17.3826095,17.9333803 17.0175449,17.9288194 16.7284601,17.7590737 L16.6238961,17.6877002 L16.5349472,17.6086709 L15.2867655,16.3755451 L13.250673,18.3865414 L14.5091888,19.6289603 L14.5921626,19.7228016 C14.8191293,20.0174586 14.847595,20.4232393 14.6530394,20.7491339 C14.2477346,21.4284643 13.9423941,22.1532404 13.7459003,22.9029687 C13.6577771,23.2387623 13.3876228,23.4933681 13.0530164,23.569852 L12.9392551,23.5886166 L12.8288923,23.593924 L11.0665063,23.5935893 L11.0665063,26.4373045 L16.4962599,26.4373045 L16.4344685,26.1374555 L16.3843823,25.8590548 C16.3413735,25.5796627 16.3196466,25.2975875 16.3196466,25.0154469 C16.3196466,21.92266 18.86804,19.4061406 22,19.4061406 C25.13196,19.4061406 27.6803534,21.92266 27.6803534,25.0154469 C27.6803534,25.2037232 27.6706787,25.3920152 27.6514455,25.5795529 L27.6154414,25.8601974 L27.5114759,26.4373045 L32.9334937,26.4373045 L32.9334937,23.5935893 L31.1580123,23.5935893 L31.0434616,23.5866686 C30.6671351,23.5409353 30.3511918,23.272603 30.2544235,22.9030252 C30.057326,22.1522102 29.7520255,21.4275289 29.3469509,20.7491176 C29.1717733,20.4560122 29.1763954,20.0955859 29.3482845,19.8101399 L29.4205591,19.7068903 L29.5005896,19.6190537 L30.7493178,18.3864998 L28.7129089,16.3755614 L27.454428,17.6183018 L27.359429,17.700276 C27.0611212,17.9245188 26.6501773,17.952745 26.3199776,17.7606469 C25.6330545,17.3605005 24.8991431,17.0588061 24.139331,16.864305 C23.7991825,16.7774562 23.5413558,16.5107736 23.4639045,16.180366 L23.4449025,16.0680292 L23.4395278,15.9590469 L23.4398667,14.2187041 Z M22,21.249868 C19.8971766,21.249868 18.1867265,22.9389246 18.1867265,25.0154469 C18.1867265,25.2716201 18.2135137,25.5272224 18.2662141,25.7781848 L18.3275199,26.02745 L18.4582218,26.4373045 L25.5353596,26.4373045 L25.5949192,26.2703909 L25.6729442,26.0258109 C25.7657203,25.6967611 25.8132735,25.3567453 25.8132735,25.0154469 C25.8132735,22.9389246 24.1028234,21.249868 22,21.249868 Z M38.6929606,4.84381892 L5.30703936,4.84381892 L5.17058396,4.85017186 C4.54125753,4.90902969 4.02312417,5.37073021 3.89664063,5.97873465 L3.87563387,6.11116717 L3.8675416,6.25218386 L3.86717261,26.4373045 L9.19942639,26.4373045 L9.19942639,22.6717256 L9.20571539,22.5643925 C9.25103878,22.1799501 9.53679298,21.8642554 9.9148832,21.7750834 L10.0309322,21.7552852 L10.1465847,21.7494999 L12.14498,21.7498619 L12.2049381,21.5838411 L12.3309701,21.252981 L12.4683975,20.9268307 L12.69262,20.4428222 L11.2706351,19.0382884 L11.1866158,18.9432274 C10.95745,18.6451462 10.9346083,18.2382298 11.1260617,17.9182597 L11.1978273,17.8150919 L11.280623,17.7239565 L14.6267674,14.4199453 L14.7193182,14.3399597 C14.8813924,14.2175083 15.0805929,14.1501625 15.2870911,14.1501625 C15.4562737,14.1501625 15.6212924,14.1955031 15.7649681,14.2799944 L15.8684548,14.350607 L15.9575259,14.4296693 L17.3713827,15.8267432 L17.5329813,15.7504429 L17.8598454,15.6028469 L18.1901838,15.4670933 L18.6930533,15.2805564 L18.6930533,13.2968404 L18.6993406,13.18947 C18.7446524,12.8049132 19.0303396,12.4893275 19.4084776,12.4001886 L19.5245447,12.3803978 L19.6402041,12.3746151 L24.3734067,12.3749767 L24.4821371,12.3811854 C24.8715646,12.4259305 25.1911476,12.7080443 25.2814155,13.0814529 L25.301457,13.1960682 L25.3073129,13.310281 L25.3069467,15.2838376 L25.47526,15.3429636 L25.8094703,15.466958 L26.140469,15.6029825 L26.630901,15.8244875 L28.0529075,14.4199324 L28.1453293,14.3399808 C28.3072494,14.2175654 28.506564,14.1501625 28.7129089,14.1501625 C28.8820916,14.1501625 29.0471103,14.1955031 29.1907861,14.2799944 L29.2942727,14.350607 L29.3833439,14.4296693 L32.7293862,17.734427 L32.8133964,17.8294783 C33.0425424,18.1275362 33.0654332,18.5344782 32.874094,18.8544857 L32.8023689,18.9576665 L32.7196302,19.0487997 L31.3050873,20.4447221 L31.3823539,20.6042995 L31.5317554,20.9269047 L31.6694165,21.253363 L31.8586051,21.7498619 L33.8670336,21.7498619 L33.975764,21.7560706 C34.3651915,21.8008157 34.6847745,22.0829295 34.7750424,22.4563381 L34.7950839,22.5709534 L34.8009398,22.6851662 L34.8005736,26.4373045 L40.1328274,26.4373045 L40.1328274,6.26567651 L40.126394,6.13092783 C40.0667907,5.5094727 39.5992423,4.99781991 38.9835369,4.87291837 L38.849427,4.85217434 L38.6929606,4.84381892 Z M33.8670336,7.6875341 C35.6902205,7.6875341 37.1739803,9.15273578 37.1739803,10.9531191 C37.1739803,12.7535024 35.6902205,14.2187041 33.8670336,14.2187041 C32.0438468,14.2187041 30.5600869,12.7535024 30.5600869,10.9531191 C30.5600869,9.15273578 32.0438468,7.6875341 33.8670336,7.6875341 Z M33.8670336,9.53126152 C33.0729833,9.53126152 32.4271669,10.1690004 32.4271669,10.9531191 C32.4271669,11.7372378 33.0729833,12.3749767 33.8670336,12.3749767 C34.6610839,12.3749767 35.3069004,11.7372378 35.3069004,10.9531191 C35.3069004,10.1690004 34.6610839,9.53126152 33.8670336,9.53126152 Z" id="Shape"></path>
            </g>
        </g>
    </g>
</svg>