<?xml version="1.0" encoding="UTF-8"?>
<svg width="24px" height="24px" viewBox="0 0 24 24" version="1.1" xmlns="http://www.w3.org/2000/svg" xmlns:xlink="http://www.w3.org/1999/xlink">
    <title>71B0B3D4-CAD2-4FAF-9F98-1B783EE61360</title>
    <defs>
        <filter id="filter-1">
            <feColorMatrix in="SourceGraphic" type="matrix" values="0 0 0 0 1.000000 0 0 0 0 0.999937 0 0 0 0 1.000000 0 0 0 1.000000 0"></feColorMatrix>
        </filter>
    </defs>
    <g id="Page-1" stroke="none" stroke-width="1" fill="none" fill-rule="evenodd">
        <g id="Case-study-—-Fitness-and-Wellness-—-Desktop" transform="translate(-714.000000, -6957.000000)">
            <g id="footer" transform="translate(0.000000, 6780.000000)">
                <g id="icon/social/facebook" transform="translate(714.000000, 57.000000)" filter="url(#filter-1)">
                    <g transform="translate(0.000000, 120.000000)" id="ic_social_facebook" fill="#141F42" fill-rule="nonzero">
                        <path d="M17.5857723,2.00416133 L14.9473725,2 C11.9832208,2 10.0676557,3.93189975 10.0676557,6.92202699 L10.0676557,9.191411 L7.41486271,9.191411 C7.18562989,9.191411 7,9.37409361 7,9.5994299 L7,12.8875087 C7,13.112845 7.18584156,13.2953195 7.41486271,13.2953195 L10.0676557,13.2953195 L10.0676557,21.5921892 C10.0676557,21.8175255 10.2532856,22 10.4825184,22 L13.9436587,22 C14.1728915,22 14.3585214,21.8173174 14.3585214,21.5921892 L14.3585214,13.2953195 L17.4602552,13.2953195 C17.689488,13.2953195 17.8751179,13.112845 17.8751179,12.8875087 L17.8763878,9.5994299 C17.8763878,9.49123519 17.8325733,9.38761795 17.7548923,9.31104938 C17.6772114,9.23448082 17.5713791,9.191411 17.4613135,9.191411 L14.3585214,9.191411 L14.3585214,7.26762585 C14.3585214,6.34297723 14.5826743,5.87357864 15.8080009,5.87357864 L17.585349,5.87295444 C17.8143701,5.87295444 18,5.69027184 18,5.46514362 L18,2.41197216 C18,2.18705201 17.8145818,2.00457747 17.5857723,2.00416133 Z" id="Path"></path>
                    </g>
                </g>
            </g>
        </g>
    </g>
</svg>