<?xml version="1.0" encoding="UTF-8"?>
<svg width="24px" height="24px" viewBox="0 0 24 24" version="1.1" xmlns="http://www.w3.org/2000/svg" xmlns:xlink="http://www.w3.org/1999/xlink">
    <title>396D1FAF-6CE8-4F40-B114-2FD6141EBCC4</title>
    <defs>
        <filter id="filter-1">
            <feColorMatrix in="SourceGraphic" type="matrix" values="0 0 0 0 1.000000 0 0 0 0 0.999937 0 0 0 0 1.000000 0 0 0 1.000000 0"></feColorMatrix>
        </filter>
    </defs>
    <g id="Page-1" stroke="none" stroke-width="1" fill="none" fill-rule="evenodd">
        <g id="Case-study-—-Fitness-and-Wellness-—-Desktop" transform="translate(-794.000000, -6957.000000)">
            <g id="footer" transform="translate(0.000000, 6780.000000)">
                <g id="icon/social/facebook" transform="translate(714.000000, 57.000000)" filter="url(#filter-1)">
                    <g transform="translate(80.000000, 120.000000)" id="ic_social_twitter" fill="#141F42" fill-rule="nonzero">
                        <path d="M19.945,7.99015385 C20.7583333,7.42153846 21.4425,6.71179487 22,5.8945641 L22,5.89374359 C21.2558333,6.2145641 20.4641667,6.42789744 19.6375,6.53128205 C20.4875,6.03158974 21.1366667,5.24635897 21.4416667,4.30030769 C20.6491667,4.76553846 19.7741667,5.09374359 18.8416667,5.27753846 C18.0891667,4.48820513 17.0166667,4 15.8466667,4 C13.5766667,4 11.7491667,5.81415385 11.7491667,8.03774359 C11.7491667,8.35774359 11.7766667,8.6654359 11.8441667,8.95835897 C8.43583333,8.79425641 5.41916667,7.18605128 3.3925,4.73517949 C3.03916667,5.33989744 2.83083333,6.03158974 2.83083333,6.77579487 C2.83083333,8.17394872 3.56166667,9.41292308 4.6525,10.1308718 C3.99333333,10.1185641 3.3475,9.92984615 2.8,9.63364103 L2.8,9.67794872 C2.8,11.6397949 4.22083333,13.2693333 6.085,13.6451282 C5.75083333,13.7353846 5.3875,13.7780513 5.01,13.7780513 C4.7475,13.7780513 4.4825,13.7632821 4.23416667,13.7091282 C4.765,15.3074872 6.27333333,16.4832821 8.065,16.5218462 C6.67,17.5958974 4.89833333,18.2432821 2.98083333,18.2432821 C2.645,18.2432821 2.3225,18.2285128 2,18.1883077 C3.81666667,19.3411282 5.96833333,20 8.29,20 C15.5258333,20 20.2416667,14.0562051 19.945,7.99015385 Z" id="Path"></path>
                    </g>
                </g>
            </g>
        </g>
    </g>
</svg>