<?xml version="1.0" encoding="UTF-8"?>
<svg width="16px" height="16px" viewBox="0 0 16 16" version="1.1" xmlns="http://www.w3.org/2000/svg" xmlns:xlink="http://www.w3.org/1999/xlink">
    <title>5E60BFBC-6DBC-4B6B-9934-B5B1CBD2DD3D</title>
    <g id="Page-1" stroke="none" stroke-width="1" fill="none" fill-rule="evenodd">
        <g id="Home-—-Desktop" transform="translate(-693.000000, -7490.000000)" fill="#A0A6B5" fill-rule="nonzero">
            <g id="Group-4" transform="translate(-0.893223, 2385.000000)">
                <g id="LATEST-ARTICLES" transform="translate(0.893223, 4688.000000)">
                    <g id="card/blog" transform="translate(557.000000, 83.000000)">
                        <g id="ic_time" transform="translate(136.000000, 334.000000)">
                            <path d="M8,2 C11.3137085,2 14,4.6862915 14,8 C14,11.3137085 11.3137085,14 8,14 C4.6862915,14 2,11.3137085 2,8 C2,4.6862915 4.6862915,2 8,2 Z M8,3.33333333 C5.42267117,3.33333333 3.33333333,5.42267117 3.33333333,8 C3.33333333,10.5773288 5.42267117,12.6666667 8,12.6666667 C10.5773288,12.6666667 12.6666667,10.5773288 12.6666667,8 C12.6666667,5.42267117 10.5773288,3.33333333 8,3.33333333 Z M8,4.4741479 C8.34189056,4.4741479 8.62367144,4.73150802 8.66218151,5.06306715 L8.66666667,5.14081456 L8.66666667,8.02 L10.4555666,9.80905387 C10.6958893,10.0493765 10.7143756,10.4275306 10.5110257,10.689058 L10.4555666,10.7518629 C10.215244,10.9921856 9.83708994,11.0106719 9.57556247,10.807322 L9.51275758,10.7518629 L7.52859548,8.76770082 C7.4244086,8.66351394 7.35826781,8.52839302 7.33911496,8.38392562 L7.33333333,8.2962963 L7.33333333,5.14081456 C7.33333333,4.77262473 7.63181017,4.4741479 8,4.4741479 Z" id="Shape"></path>
                        </g>
                    </g>
                </g>
            </g>
        </g>
    </g>
</svg>