<?xml version="1.0" encoding="UTF-8"?>
<svg width="16px" height="16px" viewBox="0 0 16 16" version="1.1" xmlns="http://www.w3.org/2000/svg" xmlns:xlink="http://www.w3.org/1999/xlink">
    <title>9629063C-D45B-40C7-B414-0509C3D35154</title>
    <defs>
        <filter id="filter-1">
            <feColorMatrix in="SourceGraphic" type="matrix" values="0 0 0 0 0.066667 0 0 0 0 0.121569 0 0 0 0 0.266667 0 0 0 0.400000 0"></feColorMatrix>
        </filter>
    </defs>
    <g id="Page-1" stroke="none" stroke-width="1" fill="none" fill-rule="evenodd">
        <g id="Home-—-Desktop" transform="translate(-577.000000, -7490.000000)">
            <g id="Group-4" transform="translate(-0.893223, 2385.000000)">
                <g id="LATEST-ARTICLES" transform="translate(0.893223, 4688.000000)">
                    <g id="card/blog" transform="translate(557.000000, 83.000000)">
                        <g id="ic_views" transform="translate(20.000000, 334.000000)" filter="url(#filter-1)">
                            <g>
                                <path d="M8,3.33333333 C10.1409147,3.33333333 12.5957332,4.57499724 15.4015051,7.01804077 L15.6575431,7.2434441 L15.7229237,7.30695884 C16.0937283,7.700196 16.0896114,8.29819825 15.7270573,8.68824574 L15.654882,8.75884191 L15.3986778,8.9844164 C12.5948459,11.4250812 10.1408738,12.6666667 8,12.6666667 C5.85908532,12.6666667 3.40426679,11.4250028 0.598494926,8.98195923 L0.342456912,8.7565559 L0.277076298,8.69304116 C-0.0937283005,8.299804 -0.0896113764,7.70180175 0.272942733,7.31175426 L0.34511804,7.24115809 L0.601322193,7.0155836 C3.40515412,4.57491882 5.85912619,3.33333333 8,3.33333333 Z M8,4.69030733 C6.11841215,4.69030733 4.59308383,6.17210721 4.59308383,8 C4.59308383,9.82789279 6.11841215,11.3096927 8,11.3096927 C9.88158785,11.3096927 11.4069162,9.82789279 11.4069162,8 C11.4069162,6.17210721 9.88158785,4.69030733 8,4.69030733 Z M8,5.98108747 C9.12895271,5.98108747 10.0441497,6.8701674 10.0441497,7.96690307 C10.0441497,9.06363875 9.12895271,9.95271868 8,9.95271868 C6.87104729,9.95271868 5.9558503,9.06363875 5.9558503,7.96690307 C5.9558503,7.69271915 6.01305011,7.43151372 6.11648971,7.19393402 L6.15542283,7.11108723 C6.27872894,7.23087454 6.44907475,7.30496454 6.63723353,7.30496454 C7.0135511,7.30496454 7.31861677,7.00860456 7.31861677,6.643026 C7.31861677,6.46023673 7.24235035,6.29475209 7.11904424,6.17496478 L7.20432469,6.1371427 C7.44888338,6.03665497 7.71776182,5.98108747 8,5.98108747 Z M3.51006802,6.43272617 L3.3684163,6.53149085 C2.87392969,6.88015381 2.36162188,7.27789801 1.83183541,7.7250878 L1.51186884,7.99933806 L1.74650146,8.20143276 C2.35766876,8.72181594 2.94575409,9.17680497 3.51025096,9.56695055 C3.32889672,9.07728664 3.23031736,8.54982702 3.23031736,8 C3.23031736,7.52850616 3.30280866,7.0734604 3.43755457,6.6448073 L3.51006802,6.43272617 Z M12.4890687,6.43257924 L12.5064274,6.47806074 C12.6769978,6.95475916 12.7696826,7.4668646 12.7696826,8 C12.7696826,8.54982702 12.6711033,9.07728664 12.490178,9.56660871 C13.0349262,9.19027789 13.6022517,8.75288277 14.1911862,8.25435726 L14.4874498,8 L14.2534985,7.79856724 C13.6420857,7.27797499 13.0537734,6.82282944 12.4890687,6.43257924 Z" id="Shape" fill="#A0A6B5" fill-rule="nonzero"></path>
                            </g>
                        </g>
                    </g>
                </g>
            </g>
        </g>
    </g>
</svg>