<svg width="24" height="24" viewBox="0 0 24 24" fill="none" xmlns="http://www.w3.org/2000/svg">
<g clip-path="url(#clip0_1833_3084)">
<path opacity="0.1" fill-rule="evenodd" clip-rule="evenodd" d="M2.56389 0L21.4361 0C22.3276 0 22.6509 0.0928256 22.9768 0.267133C23.3028 0.44144 23.5586 0.697228 23.7329 1.02315C23.9072 1.34908 24 1.67237 24 2.56389V21.4361C24 22.3276 23.9072 22.6509 23.7329 22.9768C23.5586 23.3028 23.3028 23.5586 22.9768 23.7329C22.6509 23.9072 22.3276 24 21.4361 24H2.56389C1.67237 24 1.34908 23.9072 1.02315 23.7329C0.697228 23.5586 0.44144 23.3028 0.267133 22.9768C0.0928256 22.6509 0 22.3276 0 21.4361L0 2.56389C0 1.67237 0.0928256 1.34908 0.267133 1.02315C0.44144 0.697228 0.697228 0.44144 1.02315 0.267133C1.34908 0.0928256 1.67237 0 2.56389 0Z" fill="#7055BC"/>
<mask id="mask0_1833_3084" style="mask-type:alpha" maskUnits="userSpaceOnUse" x="3" y="2" width="18" height="21">
<path d="M21 2H3V22.3478H21V2Z" fill="white"/>
<path d="M11.872 2.79582C11.9561 2.78576 12.0428 2.79278 12.1265 2.80499C12.2043 2.81633 12.301 2.83087 12.387 2.86304C12.7824 3.01094 13.0551 3.3824 13.072 3.79168C13.0926 4.2388 12.8676 4.63434 12.4688 4.80975C12.3427 4.86478 12.3052 4.93013 12.3052 5.0677C12.3121 6.18551 12.3052 7.30332 12.3052 8.42457V8.56558C12.6426 8.69629 12.9732 8.78571 13.2629 8.94736C13.5117 9.08494 13.7128 9.31193 13.9378 9.49078C13.9958 9.5355 14.0775 9.58365 14.1457 9.58021C14.5717 9.54925 14.9773 9.60429 15.3692 9.7797C15.4238 9.80377 15.5124 9.80034 15.5636 9.76938C16.3781 9.30162 17.1893 8.82354 18.0038 8.35578C18.0993 8.30075 18.0993 8.24572 18.0857 8.14942C18.0175 7.59223 18.3924 7.06944 18.9241 6.97314C19.4933 6.86996 20.0283 7.21734 20.1545 7.77108C20.2806 8.33514 19.9602 8.88545 19.408 9.03678C19.0876 9.1262 18.7878 9.0643 18.5083 8.87513C18.4605 8.84418 18.3685 8.8201 18.3242 8.84762C17.5676 9.28098 16.8143 9.72122 16.0577 10.1615C16.0407 10.1718 16.027 10.1821 15.9998 10.1993C16.3441 10.5467 16.569 10.9388 16.678 11.4031C16.7087 11.5269 16.7667 11.6542 16.8484 11.7504C17.4926 12.5381 17.5846 13.6593 17.07 14.5467C17.0393 14.5983 17.0086 14.6499 16.9712 14.7118C17.0188 14.7462 17.0632 14.7772 17.1075 14.8047C17.5062 15.0386 17.905 15.2655 18.3003 15.5029C18.3958 15.5614 18.4605 15.5579 18.556 15.4891C18.9241 15.2312 19.316 15.2105 19.7011 15.441C20.0794 15.668 20.2602 16.0188 20.209 16.459C20.1579 16.913 19.9023 17.226 19.466 17.3636C18.7503 17.5906 18.0516 17.0093 18.1197 16.2389C18.13 16.1151 18.0993 16.0566 17.997 15.9981C17.5608 15.7505 17.1245 15.496 16.6917 15.2381C16.6065 15.1864 16.5417 15.1693 16.4497 15.2415C15.9827 15.6095 15.4442 15.7574 14.8546 15.754C14.0809 15.7505 13.3039 15.754 12.5302 15.754C12.4586 15.754 12.3904 15.754 12.3086 15.754C12.3052 15.8331 12.2984 15.8847 12.2984 15.9397C12.2984 17.0644 12.2984 18.189 12.2984 19.3137C12.2984 19.4101 12.3052 19.4754 12.4143 19.5236C12.8642 19.723 13.0959 20.122 13.0584 20.6069C13.0342 20.9128 12.8701 21.1839 12.6155 21.362C12.4027 21.5108 12.134 21.5398 11.8753 21.5617C11.8645 21.5626 11.8536 21.5606 11.8437 21.5559C11.6701 21.4738 11.4729 21.4152 11.3304 21.2948C10.7374 20.7962 10.8703 19.8641 11.5724 19.5339C11.6576 19.4926 11.7224 19.4651 11.7224 19.3447C11.7156 18.189 11.719 17.0334 11.719 15.8778C11.719 15.8433 11.7122 15.809 11.7054 15.754C11.6202 15.754 11.5417 15.754 11.4634 15.754C10.5977 15.7505 9.73197 15.754 8.86628 15.7367C8.38571 15.7264 7.95627 15.5441 7.58136 15.245C7.49274 15.1762 7.4348 15.1762 7.34278 15.2312C6.90652 15.4926 6.46345 15.7505 6.02037 15.9981C5.9113 16.06 5.87722 16.1185 5.88745 16.2526C5.94198 16.8339 5.53299 17.3223 4.95017 17.4014C4.41508 17.4737 3.90043 17.0747 3.80158 16.5071C3.70616 15.9638 4.07084 15.4238 4.62298 15.3034C4.97744 15.2277 5.29441 15.324 5.57729 15.5751L7.00536 14.7428C6.88266 14.3817 6.72588 14.0549 6.66113 13.7075C6.51798 12.9543 6.72929 12.2836 7.21667 11.6954C7.25757 11.6473 7.30528 11.5888 7.31551 11.5304C7.41094 11.0178 7.63589 10.5742 8.01762 10.1993C7.9699 10.1649 7.93241 10.1374 7.89151 10.1133C7.16214 9.68683 6.43277 9.26379 5.70681 8.8373C5.61819 8.78571 5.56026 8.77883 5.46823 8.84762C5.05242 9.1606 4.50028 9.13308 4.13219 8.79259C3.76069 8.45208 3.67548 7.90522 3.92428 7.47186C4.17649 7.03505 4.68774 6.839 5.1649 6.99378C5.64205 7.14854 5.94198 7.61975 5.87722 8.13566C5.86359 8.23884 5.89767 8.27668 5.97266 8.31795C6.79746 8.79602 7.61885 9.27755 8.44365 9.75218C8.49818 9.78313 8.59362 9.78658 8.65496 9.7625C9.05373 9.59397 9.46613 9.52518 9.89898 9.57677C9.94329 9.58365 10.008 9.56301 10.0387 9.53206C10.7204 8.87513 10.7408 8.86138 11.7019 8.59654C11.7019 8.56215 11.7087 8.52775 11.7087 8.48992C11.7087 7.32739 11.7087 6.16832 11.7054 5.00579C11.7054 4.94389 11.6576 4.85446 11.6065 4.83039C11.1601 4.60338 10.9146 4.2113 10.9488 3.76417C10.9837 3.33139 11.2407 3.00319 11.6728 2.84084C11.7368 2.81683 11.8042 2.80394 11.872 2.79582ZM12.0155 15.1796C12.9903 15.1796 13.9651 15.1864 14.9398 15.1796C15.7476 15.1727 16.3542 14.8047 16.6746 14.0515C16.978 13.3429 16.8553 12.6722 16.3542 12.0875C16.2315 11.943 16.1532 11.7987 16.1225 11.6094C15.9691 10.6602 15.0352 10.0067 14.1014 10.1959C13.8764 10.2406 13.7333 10.189 13.5936 9.99638C12.8063 8.9164 11.235 8.92328 10.4511 10.0067C10.3148 10.1959 10.1716 10.2406 9.95692 10.1959C8.99919 10.0033 8.05511 10.6809 7.91878 11.6576C7.89492 11.8192 7.83016 11.9397 7.7245 12.0566C7.28825 12.5415 7.12465 13.1091 7.27802 13.7522C7.48593 14.6258 8.21189 15.1796 9.14575 15.183C10.1035 15.1864 11.0578 15.183 12.0155 15.183V15.1796ZM12.4927 3.85703C12.4927 3.58876 12.2847 3.37896 12.0223 3.3824C11.7599 3.3824 11.5486 3.60252 11.552 3.86048C11.5554 4.11155 11.7667 4.32479 12.0189 4.33167C12.2779 4.33511 12.4927 4.12187 12.496 3.85703H12.4927ZM12.0223 20.9888C12.2847 20.9888 12.4927 20.7789 12.4927 20.5141C12.4927 20.2493 12.2779 20.036 12.0189 20.0395C11.7701 20.0429 11.5554 20.2562 11.552 20.5072C11.5486 20.7686 11.7599 20.9888 12.0223 20.9888ZM4.85815 15.8847C4.59231 15.8847 4.3844 16.0945 4.3844 16.3593C4.3844 16.6207 4.60594 16.8373 4.86156 16.8339C5.11377 16.8305 5.32168 16.6173 5.32508 16.3662C5.32849 16.1048 5.12059 15.8881 4.85474 15.8881L4.85815 15.8847ZM4.85474 7.54408C4.59571 7.54408 4.381 7.7642 4.38781 8.0256C4.39122 8.29043 4.60594 8.4968 4.87179 8.48992C5.1274 8.48304 5.3319 8.27668 5.3319 8.02216C5.3319 7.76076 5.11377 7.54408 4.85815 7.54408H4.85474ZM19.616 8.02216C19.616 7.75732 19.4047 7.54408 19.1422 7.54408C18.8866 7.54408 18.6685 7.76764 18.6718 8.0256C18.6753 8.28011 18.8832 8.48648 19.1388 8.48992C19.4046 8.48992 19.6125 8.28699 19.616 8.01872V8.02216ZM18.706 16.3662C18.7093 16.6276 18.9274 16.8442 19.1865 16.8373C19.4387 16.8305 19.6467 16.6173 19.65 16.3628C19.65 16.1014 19.4387 15.8881 19.1763 15.8881C18.9105 15.8881 18.706 16.0979 18.7093 16.3662H18.706Z" fill="black"/>
</mask>
<g mask="url(#mask0_1833_3084)">
<path d="M11.872 2.79582C11.9561 2.78576 12.0428 2.79278 12.1265 2.80499C12.2043 2.81633 12.301 2.83087 12.387 2.86304C12.7824 3.01094 13.0551 3.3824 13.072 3.79168C13.0926 4.2388 12.8676 4.63434 12.4688 4.80975C12.3427 4.86478 12.3052 4.93013 12.3052 5.0677C12.3121 6.18551 12.3052 7.30332 12.3052 8.42457V8.56558C12.6426 8.69629 12.9732 8.78571 13.2629 8.94736C13.5117 9.08494 13.7128 9.31193 13.9378 9.49078C13.9958 9.5355 14.0775 9.58365 14.1457 9.58021C14.5717 9.54925 14.9773 9.60429 15.3692 9.7797C15.4238 9.80377 15.5124 9.80034 15.5636 9.76938C16.3781 9.30162 17.1893 8.82354 18.0038 8.35578C18.0993 8.30075 18.0993 8.24572 18.0857 8.14942C18.0175 7.59223 18.3924 7.06944 18.9241 6.97314C19.4933 6.86996 20.0283 7.21734 20.1545 7.77108C20.2806 8.33514 19.9602 8.88545 19.408 9.03678C19.0876 9.1262 18.7878 9.0643 18.5083 8.87513C18.4605 8.84418 18.3685 8.8201 18.3242 8.84762C17.5676 9.28098 16.8143 9.72122 16.0577 10.1615C16.0407 10.1718 16.027 10.1821 15.9998 10.1993C16.3441 10.5467 16.569 10.9388 16.678 11.4031C16.7087 11.5269 16.7667 11.6542 16.8484 11.7504C17.4926 12.5381 17.5846 13.6593 17.07 14.5467C17.0393 14.5983 17.0086 14.6499 16.9712 14.7118C17.0188 14.7462 17.0632 14.7772 17.1075 14.8047C17.5062 15.0386 17.905 15.2655 18.3003 15.5029C18.3958 15.5614 18.4605 15.5579 18.556 15.4891C18.9241 15.2312 19.316 15.2105 19.7011 15.441C20.0794 15.668 20.2602 16.0188 20.209 16.459C20.1579 16.913 19.9023 17.226 19.466 17.3636C18.7503 17.5906 18.0516 17.0093 18.1197 16.2389C18.13 16.1151 18.0993 16.0566 17.997 15.9981C17.5608 15.7505 17.1245 15.496 16.6917 15.2381C16.6065 15.1864 16.5417 15.1693 16.4497 15.2415C15.9827 15.6095 15.4442 15.7574 14.8546 15.754C14.0809 15.7505 13.3039 15.754 12.5302 15.754C12.4586 15.754 12.3904 15.754 12.3086 15.754C12.3052 15.8331 12.2984 15.8847 12.2984 15.9397C12.2984 17.0644 12.2984 18.189 12.2984 19.3137C12.2984 19.4101 12.3052 19.4754 12.4143 19.5236C12.8642 19.723 13.0959 20.122 13.0584 20.6069C13.0342 20.9128 12.8701 21.1839 12.6155 21.362C12.4027 21.5108 12.134 21.5398 11.8753 21.5617C11.8645 21.5626 11.8536 21.5606 11.8437 21.5559C11.6701 21.4738 11.4729 21.4152 11.3304 21.2948C10.7374 20.7962 10.8703 19.8641 11.5724 19.5339C11.6576 19.4926 11.7224 19.4651 11.7224 19.3447C11.7156 18.189 11.719 17.0334 11.719 15.8778C11.719 15.8433 11.7122 15.809 11.7054 15.754C11.6202 15.754 11.5417 15.754 11.4634 15.754C10.5977 15.7505 9.73197 15.754 8.86628 15.7367C8.38571 15.7264 7.95627 15.5441 7.58136 15.245C7.49274 15.1762 7.4348 15.1762 7.34278 15.2312C6.90652 15.4926 6.46345 15.7505 6.02037 15.9981C5.9113 16.06 5.87722 16.1185 5.88745 16.2526C5.94198 16.8339 5.53299 17.3223 4.95017 17.4014C4.41508 17.4737 3.90043 17.0747 3.80158 16.5071C3.70616 15.9638 4.07084 15.4238 4.62298 15.3034C4.97744 15.2277 5.29441 15.324 5.57729 15.5751L7.00536 14.7428C6.88266 14.3817 6.72588 14.0549 6.66113 13.7075C6.51798 12.9543 6.72929 12.2836 7.21667 11.6954C7.25757 11.6473 7.30528 11.5888 7.31551 11.5304C7.41094 11.0178 7.63589 10.5742 8.01762 10.1993C7.9699 10.1649 7.93241 10.1374 7.89151 10.1133C7.16214 9.68683 6.43277 9.26379 5.70681 8.8373C5.61819 8.78571 5.56026 8.77883 5.46823 8.84762C5.05242 9.1606 4.50028 9.13308 4.13219 8.79259C3.76069 8.45208 3.67548 7.90522 3.92428 7.47186C4.17649 7.03505 4.68774 6.839 5.1649 6.99378C5.64205 7.14854 5.94198 7.61975 5.87722 8.13566C5.86359 8.23884 5.89767 8.27668 5.97266 8.31795C6.79746 8.79602 7.61885 9.27755 8.44365 9.75218C8.49818 9.78313 8.59362 9.78658 8.65496 9.7625C9.05373 9.59397 9.46613 9.52518 9.89898 9.57677C9.94329 9.58365 10.008 9.56301 10.0387 9.53206C10.7204 8.87513 10.7408 8.86138 11.7019 8.59654C11.7019 8.56215 11.7087 8.52775 11.7087 8.48992C11.7087 7.32739 11.7087 6.16832 11.7054 5.00579C11.7054 4.94389 11.6576 4.85446 11.6065 4.83039C11.1601 4.60338 10.9146 4.2113 10.9488 3.76417C10.9837 3.33139 11.2407 3.00319 11.6728 2.84084C11.7368 2.81683 11.8042 2.80394 11.872 2.79582ZM12.0155 15.1796C12.9903 15.1796 13.9651 15.1864 14.9398 15.1796C15.7476 15.1727 16.3542 14.8047 16.6746 14.0515C16.978 13.3429 16.8553 12.6722 16.3542 12.0875C16.2315 11.943 16.1532 11.7987 16.1225 11.6094C15.9691 10.6602 15.0352 10.0067 14.1014 10.1959C13.8764 10.2406 13.7333 10.189 13.5936 9.99638C12.8063 8.9164 11.235 8.92328 10.4511 10.0067C10.3148 10.1959 10.1716 10.2406 9.95692 10.1959C8.99919 10.0033 8.05511 10.6809 7.91878 11.6576C7.89492 11.8192 7.83016 11.9397 7.7245 12.0566C7.28825 12.5415 7.12465 13.1091 7.27802 13.7522C7.48593 14.6258 8.21189 15.1796 9.14575 15.183C10.1035 15.1864 11.0578 15.183 12.0155 15.183V15.1796ZM12.4927 3.85703C12.4927 3.58876 12.2847 3.37896 12.0223 3.3824C11.7599 3.3824 11.5486 3.60252 11.552 3.86048C11.5554 4.11155 11.7667 4.32479 12.0189 4.33167C12.2779 4.33511 12.4927 4.12187 12.496 3.85703H12.4927ZM12.0223 20.9888C12.2847 20.9888 12.4927 20.7789 12.4927 20.5141C12.4927 20.2493 12.2779 20.036 12.0189 20.0395C11.7701 20.0429 11.5554 20.2562 11.552 20.5072C11.5486 20.7686 11.7599 20.9888 12.0223 20.9888ZM4.85815 15.8847C4.59231 15.8847 4.3844 16.0945 4.3844 16.3593C4.3844 16.6207 4.60594 16.8373 4.86156 16.8339C5.11377 16.8305 5.32168 16.6173 5.32508 16.3662C5.32849 16.1048 5.12059 15.8881 4.85474 15.8881L4.85815 15.8847ZM4.85474 7.54408C4.59571 7.54408 4.381 7.7642 4.38781 8.0256C4.39122 8.29043 4.60594 8.4968 4.87179 8.48992C5.1274 8.48304 5.3319 8.27668 5.3319 8.02216C5.3319 7.76076 5.11377 7.54408 4.85815 7.54408H4.85474ZM19.616 8.02216C19.616 7.75732 19.4047 7.54408 19.1422 7.54408C18.8866 7.54408 18.6685 7.76764 18.6718 8.0256C18.6753 8.28011 18.8832 8.48648 19.1388 8.48992C19.4046 8.48992 19.6125 8.28699 19.616 8.01872V8.02216ZM18.706 16.3662C18.7093 16.6276 18.9274 16.8442 19.1865 16.8373C19.4387 16.8305 19.6467 16.6173 19.65 16.3628C19.65 16.1014 19.4387 15.8881 19.1763 15.8881C18.9105 15.8881 18.706 16.0979 18.7093 16.3662H18.706Z" fill="#7055BC"/>
<path d="M11.872 2.79582C11.9561 2.78576 12.0428 2.79278 12.1265 2.80499C12.2043 2.81633 12.301 2.83087 12.387 2.86304C12.7824 3.01094 13.0551 3.3824 13.072 3.79168C13.0926 4.2388 12.8676 4.63434 12.4688 4.80975C12.3427 4.86478 12.3052 4.93013 12.3052 5.0677C12.3121 6.18551 12.3052 7.30332 12.3052 8.42457V8.56558C12.6426 8.69629 12.9732 8.78571 13.2629 8.94736C13.5117 9.08494 13.7128 9.31193 13.9378 9.49078C13.9958 9.5355 14.0775 9.58365 14.1457 9.58021C14.5717 9.54925 14.9773 9.60429 15.3692 9.7797C15.4238 9.80377 15.5124 9.80034 15.5636 9.76938C16.3781 9.30162 17.1893 8.82354 18.0038 8.35578C18.0993 8.30075 18.0993 8.24572 18.0857 8.14942C18.0175 7.59223 18.3924 7.06944 18.9241 6.97314C19.4933 6.86996 20.0283 7.21734 20.1545 7.77108C20.2806 8.33514 19.9602 8.88545 19.408 9.03678C19.0876 9.1262 18.7878 9.0643 18.5083 8.87513C18.4605 8.84418 18.3685 8.8201 18.3242 8.84762C17.5676 9.28098 16.8143 9.72122 16.0577 10.1615C16.0407 10.1718 16.027 10.1821 15.9998 10.1993C16.3441 10.5467 16.569 10.9388 16.678 11.4031C16.7087 11.5269 16.7667 11.6542 16.8484 11.7504C17.4926 12.5381 17.5846 13.6593 17.07 14.5467C17.0393 14.5983 17.0086 14.6499 16.9712 14.7118C17.0188 14.7462 17.0632 14.7772 17.1075 14.8047C17.5062 15.0386 17.905 15.2655 18.3003 15.5029C18.3958 15.5614 18.4605 15.5579 18.556 15.4891C18.9241 15.2312 19.316 15.2105 19.7011 15.441C20.0794 15.668 20.2602 16.0188 20.209 16.459C20.1579 16.913 19.9023 17.226 19.466 17.3636C18.7503 17.5906 18.0516 17.0093 18.1197 16.2389C18.13 16.1151 18.0993 16.0566 17.997 15.9981C17.5608 15.7505 17.1245 15.496 16.6917 15.2381C16.6065 15.1864 16.5417 15.1693 16.4497 15.2415C15.9827 15.6095 15.4442 15.7574 14.8546 15.754C14.0809 15.7505 13.3039 15.754 12.5302 15.754C12.4586 15.754 12.3904 15.754 12.3086 15.754C12.3052 15.8331 12.2984 15.8847 12.2984 15.9397C12.2984 17.0644 12.2984 18.189 12.2984 19.3137C12.2984 19.4101 12.3052 19.4754 12.4143 19.5236C12.8642 19.723 13.0959 20.122 13.0584 20.6069C13.0342 20.9128 12.8701 21.1839 12.6155 21.362C12.4027 21.5108 12.134 21.5398 11.8753 21.5617C11.8645 21.5626 11.8536 21.5606 11.8437 21.5559C11.6701 21.4738 11.4729 21.4152 11.3304 21.2948C10.7374 20.7962 10.8703 19.8641 11.5724 19.5339C11.6576 19.4926 11.7224 19.4651 11.7224 19.3447C11.7156 18.189 11.719 17.0334 11.719 15.8778C11.719 15.8433 11.7122 15.809 11.7054 15.754C11.6202 15.754 11.5417 15.754 11.4634 15.754C10.5977 15.7505 9.73197 15.754 8.86628 15.7367C8.38571 15.7264 7.95627 15.5441 7.58136 15.245C7.49274 15.1762 7.4348 15.1762 7.34278 15.2312C6.90652 15.4926 6.46345 15.7505 6.02037 15.9981C5.9113 16.06 5.87722 16.1185 5.88745 16.2526C5.94198 16.8339 5.53299 17.3223 4.95017 17.4014C4.41508 17.4737 3.90043 17.0747 3.80158 16.5071C3.70616 15.9638 4.07084 15.4238 4.62298 15.3034C4.97744 15.2277 5.29441 15.324 5.57729 15.5751L7.00536 14.7428C6.88266 14.3817 6.72588 14.0549 6.66113 13.7075C6.51798 12.9543 6.72929 12.2836 7.21667 11.6954C7.25757 11.6473 7.30528 11.5888 7.31551 11.5304C7.41094 11.0178 7.63589 10.5742 8.01762 10.1993C7.9699 10.1649 7.93241 10.1374 7.89151 10.1133C7.16214 9.68683 6.43277 9.26379 5.70681 8.8373C5.61819 8.78571 5.56026 8.77883 5.46823 8.84762C5.05242 9.1606 4.50028 9.13308 4.13219 8.79259C3.76069 8.45208 3.67548 7.90522 3.92428 7.47186C4.17649 7.03505 4.68774 6.839 5.1649 6.99378C5.64205 7.14854 5.94198 7.61975 5.87722 8.13566C5.86359 8.23884 5.89767 8.27668 5.97266 8.31795C6.79746 8.79602 7.61885 9.27755 8.44365 9.75218C8.49818 9.78313 8.59362 9.78658 8.65496 9.7625C9.05373 9.59397 9.46613 9.52518 9.89898 9.57677C9.94329 9.58365 10.008 9.56301 10.0387 9.53206C10.7204 8.87513 10.7408 8.86138 11.7019 8.59654C11.7019 8.56215 11.7087 8.52775 11.7087 8.48992C11.7087 7.32739 11.7087 6.16832 11.7054 5.00579C11.7054 4.94389 11.6576 4.85446 11.6065 4.83039C11.1601 4.60338 10.9146 4.2113 10.9488 3.76417C10.9837 3.33139 11.2407 3.00319 11.6728 2.84084C11.7368 2.81683 11.8042 2.80394 11.872 2.79582ZM12.0155 15.1796C12.9903 15.1796 13.9651 15.1864 14.9398 15.1796C15.7476 15.1727 16.3542 14.8047 16.6746 14.0515C16.978 13.3429 16.8553 12.6722 16.3542 12.0875C16.2315 11.943 16.1532 11.7987 16.1225 11.6094C15.9691 10.6602 15.0352 10.0067 14.1014 10.1959C13.8764 10.2406 13.7333 10.189 13.5936 9.99638C12.8063 8.9164 11.235 8.92328 10.4511 10.0067C10.3148 10.1959 10.1716 10.2406 9.95692 10.1959C8.99919 10.0033 8.05511 10.6809 7.91878 11.6576C7.89492 11.8192 7.83016 11.9397 7.7245 12.0566C7.28825 12.5415 7.12465 13.1091 7.27802 13.7522C7.48593 14.6258 8.21189 15.1796 9.14575 15.183C10.1035 15.1864 11.0578 15.183 12.0155 15.183V15.1796ZM12.4927 3.85703C12.4927 3.58876 12.2847 3.37896 12.0223 3.3824C11.7599 3.3824 11.5486 3.60252 11.552 3.86048C11.5554 4.11155 11.7667 4.32479 12.0189 4.33167C12.2779 4.33511 12.4927 4.12187 12.496 3.85703H12.4927ZM12.0223 20.9888C12.2847 20.9888 12.4927 20.7789 12.4927 20.5141C12.4927 20.2493 12.2779 20.036 12.0189 20.0395C11.7701 20.0429 11.5554 20.2562 11.552 20.5072C11.5486 20.7686 11.7599 20.9888 12.0223 20.9888ZM4.85815 15.8847C4.59231 15.8847 4.3844 16.0945 4.3844 16.3593C4.3844 16.6207 4.60594 16.8373 4.86156 16.8339C5.11377 16.8305 5.32168 16.6173 5.32508 16.3662C5.32849 16.1048 5.12059 15.8881 4.85474 15.8881L4.85815 15.8847ZM4.85474 7.54408C4.59571 7.54408 4.381 7.7642 4.38781 8.0256C4.39122 8.29043 4.60594 8.4968 4.87179 8.48992C5.1274 8.48304 5.3319 8.27668 5.3319 8.02216C5.3319 7.76076 5.11377 7.54408 4.85815 7.54408H4.85474ZM19.616 8.02216C19.616 7.75732 19.4047 7.54408 19.1422 7.54408C18.8866 7.54408 18.6685 7.76764 18.6718 8.0256C18.6753 8.28011 18.8832 8.48648 19.1388 8.48992C19.4046 8.48992 19.6125 8.28699 19.616 8.01872V8.02216ZM18.706 16.3662C18.7093 16.6276 18.9274 16.8442 19.1865 16.8373C19.4387 16.8305 19.6467 16.6173 19.65 16.3628C19.65 16.1014 19.4387 15.8881 19.1763 15.8881C18.9105 15.8881 18.706 16.0979 18.7093 16.3662H18.706Z" stroke="#7055BC" stroke-width="0.1"/>
<path d="M9.59117 10.6109C9.68011 10.6282 9.77191 10.6387 9.86085 10.67C9.99856 10.7186 10.0645 10.8507 10.0387 11.0069C10.0158 11.1598 9.91249 11.2502 9.76904 11.2398C9.68297 11.2328 9.59691 11.2085 9.51084 11.2224C9.22682 11.264 9.02887 11.5003 8.96861 11.8547C8.92559 12.0979 8.81943 12.2056 8.66164 12.1639C8.51533 12.1257 8.45221 11.9693 8.48951 11.7366C8.58992 11.0868 9.04895 10.6178 9.5883 10.6074L9.59117 10.6109Z" fill="#7055BC"/>
</g>
</g>
<defs>
<clipPath id="clip0_1833_3084">
<rect width="24" height="24" fill="white"/>
</clipPath>
</defs>
</svg>
