<svg width="155" height="30" viewBox="0 0 155 30" fill="none" xmlns="http://www.w3.org/2000/svg">
<g clip-path="url(#clip0_2345_4883)">
<path fill-rule="evenodd" clip-rule="evenodd" d="M13.5068 0.485352C20.7901 0.717417 26.5744 6.69551 26.5744 13.9908C26.5744 21.2861 20.7901 27.2642 13.5068 27.4963C12.7665 27.4941 12.0276 27.4324 11.2972 27.3116C9.36416 26.9902 7.22282 26.3714 6.19825 24.5764C5.46056 23.2874 5.4913 21.7248 6.19825 20.1555L8.12443 15.9123C8.27471 15.4837 8.67818 15.1962 9.13192 15.1943H9.20706C9.78911 15.1962 10.2605 15.6681 10.2624 16.2508C10.2659 16.4738 10.195 16.6916 10.0609 16.8697L8.69478 19.8375C8.11119 21.1337 8.66563 22.6594 9.94475 23.2771C10.5651 23.5692 11.2764 23.6006 11.92 23.3642C12.5635 23.1278 13.0858 22.6433 13.3702 22.0189L13.9235 20.829C13.9472 20.7742 13.9758 20.7215 14.0089 20.6717C14.1985 20.3609 14.5364 20.1717 14.9002 20.1725H14.9685C15.5157 20.1727 15.9708 20.594 16.0136 21.1402C16.1497 21.8869 16.6102 22.5345 17.2704 22.9078C18.2891 23.4778 19.558 23.3304 20.4192 22.542C20.9118 22.0681 21.1905 21.4138 21.1911 20.7299C21.1892 19.339 20.0634 18.2119 18.674 18.21H18.5306C18.2745 18.2085 18.0197 18.2478 17.7758 18.3262C17.6043 18.4054 17.4417 18.5029 17.2909 18.6169C17.0973 18.8001 16.8401 18.9007 16.5737 18.8972C16.2793 18.9112 15.992 18.8041 15.7785 18.6007C15.565 18.3973 15.4439 18.1153 15.4433 17.8202C15.4407 17.6271 15.4903 17.437 15.5867 17.2697L17.1748 13.8506C17.7583 12.5544 17.2039 11.0288 15.9248 10.411C15.3048 10.114 14.5916 10.0788 13.9455 10.3135C13.2994 10.5482 12.7746 11.033 12.4891 11.659L11.8983 12.8899C11.7731 13.2088 11.5046 13.4497 11.1742 13.5395C10.611 13.6971 10.0201 13.4014 9.80814 12.8557C9.73493 12.6162 9.72435 12.3619 9.7774 12.1171C9.81378 11.9291 9.82412 11.737 9.80814 11.5462C9.7014 10.6393 9.14364 9.84799 8.32593 9.4434C7.03276 8.84282 5.49786 9.40035 4.89022 10.6914L2.1034 16.7295C1.91891 17.041 1.58402 17.2321 1.22227 17.2321C0.966869 17.231 0.721916 17.1305 0.539231 16.9518C-0.526318 15.9431 0.245522 11.1564 0.662179 9.87763C2.4496 4.28473 7.6413 0.488446 13.5068 0.485352Z" fill="url(#paint0_linear_2345_4883)"/>
<path d="M48.571 16.5724C48.571 16.7946 48.4652 16.9143 48.25 16.9143H46.3716C46.2841 16.9271 46.1957 16.8978 46.1331 16.8351C46.0705 16.7725 46.0412 16.684 46.054 16.5963V9.50852C46.0571 9.20975 46.0145 8.91227 45.9277 8.62639C45.8559 8.35577 45.7265 8.10386 45.5486 7.88787C45.3678 7.6691 45.1402 7.49383 44.8826 7.375C44.5659 7.24718 44.2268 7.18439 43.8854 7.19037C43.5981 7.18836 43.315 7.25892 43.0623 7.39552C42.8052 7.52314 42.5736 7.69698 42.3793 7.90838C42.1801 8.12233 42.0246 8.37322 41.9216 8.64691C41.8054 8.91919 41.7461 9.21242 41.7474 9.50852V16.5724C41.7647 16.6673 41.7343 16.7647 41.6661 16.8329C41.598 16.9011 41.5007 16.9316 41.4059 16.9143H39.5549C39.3272 16.9143 39.2133 16.8083 39.2133 16.5963V9.50852C39.2156 9.20761 39.1636 8.90876 39.0597 8.62639C38.9584 8.35494 38.8078 8.10456 38.6157 7.88787C38.2333 7.44261 37.6721 7.19179 37.0857 7.20405C36.4782 7.16856 35.8896 7.422 35.4976 7.88787C35.1136 8.33941 34.9072 8.91559 34.917 9.50852V16.5724C34.9326 16.667 34.9017 16.7633 34.8339 16.8311C34.7662 16.8989 34.67 16.9299 34.5755 16.9143H32.7518C32.5298 16.9143 32.4102 16.8083 32.4102 16.5963V9.50852C32.4078 8.89709 32.5238 8.291 32.7518 7.72375C32.9681 7.18979 33.2912 6.70576 33.7012 6.3014C34.1218 5.89467 34.6186 5.57513 35.1629 5.36115C35.7637 5.12359 36.4056 5.00739 37.0515 5.01924C37.6967 5.0143 38.3348 5.15329 38.9196 5.42611C39.463 5.6715 39.9484 6.02922 40.3438 6.47578C40.4667 6.59887 40.5828 6.60912 40.6853 6.50313C41.0895 6.06017 41.5831 5.70821 42.1334 5.47056C42.75 5.1775 43.4248 5.02789 44.1073 5.03292C44.7429 5.02606 45.3737 5.14215 45.9652 5.37483C46.4952 5.58451 46.9765 5.90106 47.3791 6.30482C47.7721 6.70886 48.0758 7.19113 48.2705 7.72033C48.4788 8.30134 48.5806 8.91523 48.571 9.53245V16.5724ZM60.8078 12.5618C60.8078 14.016 60.382 15.1307 59.5305 15.9057C58.6767 16.6886 57.5052 17.0955 55.9957 17.0955C54.4862 17.0955 53.3045 16.7057 52.4507 15.9228C51.5969 15.1398 51.1632 14.0525 51.1632 12.6267V9.50852C51.1565 8.87453 51.2725 8.24524 51.5047 7.65537C51.7281 7.11292 52.0646 6.62449 52.4917 6.22276C52.9309 5.818 53.4481 5.50735 54.0115 5.30986C54.6397 5.09272 55.3004 4.98517 55.965 4.99189C57.4472 4.99189 58.6289 5.37825 59.4895 6.15438C60.3501 6.93052 60.7975 8.04515 60.7975 9.47775L60.8078 12.5618ZM53.6905 12.5618C53.6662 13.1706 53.8668 13.767 54.254 14.2371C54.6228 14.685 55.1931 14.921 55.9616 14.921C56.5957 14.9607 57.2167 14.7282 57.6692 14.2816C58.0893 13.8143 58.3089 13.2002 58.2805 12.572V9.51878C58.3109 8.89578 58.1033 8.28454 57.6999 7.80923C57.2556 7.34911 56.6297 7.111 55.9923 7.1596C55.3559 7.1176 54.7327 7.3547 54.2847 7.80923C53.8705 8.27947 53.6549 8.89245 53.6836 9.51878L53.6905 12.5618ZM73.1572 12.5994C73.1609 13.193 73.0627 13.7828 72.8669 14.3431C72.6841 14.8725 72.3934 15.3581 72.0131 15.7689C71.6308 16.1773 71.1648 16.498 70.647 16.7091C70.0773 16.9471 69.4643 17.0636 68.8472 17.0511C68.3199 17.0545 67.7951 16.9796 67.2898 16.8288C66.8588 16.6999 66.4767 16.4437 66.1936 16.0937C66.1384 16.0205 66.0529 15.9764 65.9613 15.974C65.9033 15.974 65.8759 16.0732 65.8759 16.2271V16.5963C65.8779 16.6776 65.8578 16.758 65.8179 16.8288C65.7871 16.8869 65.7018 16.9143 65.5754 16.9143H63.8507C63.623 16.9143 63.5092 16.8083 63.5092 16.5963V0.34191C63.5092 0.109411 63.6253 0 63.8507 0H65.6983C65.9203 0 66.0194 0.0957348 66.0194 0.311138V5.7099C66.0194 5.90137 66.0672 6.00052 66.1526 6.00052C66.2804 5.97968 66.3993 5.92138 66.4941 5.83299C66.8152 5.59711 67.1682 5.4083 67.5426 5.27225C68.0138 5.10576 68.5115 5.02697 69.0111 5.03976C69.661 5.01921 70.308 5.1357 70.91 5.38167C71.4096 5.60708 71.8503 5.94529 72.1975 6.36979C72.5388 6.7915 72.7868 7.28097 72.9249 7.80581C73.0826 8.36181 73.1608 8.93739 73.1572 9.51536V12.5994ZM70.6299 9.54613C70.6456 8.95829 70.4573 8.38318 70.0972 7.91864C69.7283 7.4639 69.1477 7.23482 68.3349 7.23482C67.7109 7.21752 67.1089 7.46605 66.6785 7.91864C66.2451 8.34819 66.0048 8.93564 66.0125 9.54613V12.5891C66.0003 13.1855 66.2138 13.7645 66.6102 14.2098C67.0525 14.6746 67.678 14.9188 68.3178 14.8765C68.9442 14.9243 69.5624 14.7101 70.0254 14.285C70.4534 13.823 70.6711 13.204 70.6265 12.5755L70.6299 9.54613ZM78.6728 1.78477C78.6782 2.18474 78.5085 2.56705 78.2083 2.83102C77.926 3.11896 77.5389 3.27944 77.1359 3.2755C76.7295 3.28114 76.3367 3.12922 76.0396 2.85153C75.7468 2.57537 75.5853 2.1874 75.5957 1.78477C75.5903 1.38907 75.7514 1.00936 76.0396 0.738526C76.3245 0.449937 76.7136 0.288474 77.1188 0.290624C77.5299 0.28468 77.9265 0.442047 78.2219 0.728269C78.5222 0.992235 78.6919 1.37455 78.6864 1.77451L78.6728 1.78477ZM78.3551 16.6032C78.3549 16.6593 78.3445 16.7149 78.3244 16.7673C78.2971 16.8733 78.1912 16.9211 78.0341 16.9211H76.1762C75.944 16.9211 75.8347 16.8151 75.8347 16.6032V5.54236C75.8347 5.32012 75.9406 5.20045 76.1455 5.20045H78.0034C78.0972 5.1879 78.1916 5.21986 78.2586 5.2869C78.3255 5.35394 78.3574 5.44839 78.3449 5.54236L78.3551 16.6032ZM91.0085 16.5826C91.0085 16.8049 90.9027 16.9246 90.6875 16.9246H88.8399C88.6122 16.9246 88.4983 16.8186 88.4983 16.6066V9.57348C88.5225 8.96677 88.3218 8.37253 87.9348 7.90496C87.5592 7.46048 86.9786 7.23824 86.1726 7.23824C85.5509 7.20702 84.9456 7.44344 84.5094 7.88787C84.0835 8.33076 83.8565 8.92843 83.881 9.54271V16.5724C83.8935 16.6664 83.8616 16.7608 83.7946 16.8278C83.7277 16.8949 83.6333 16.9268 83.5395 16.9143H81.7294C81.4801 16.9143 81.364 16.8083 81.364 16.5963V5.54236C81.3484 5.44775 81.3793 5.35142 81.447 5.28361C81.5147 5.21581 81.611 5.18485 81.7055 5.20045H83.5155C83.7102 5.20045 83.8058 5.30645 83.8058 5.52185V6.04497C83.8058 6.18857 83.8332 6.25696 83.9117 6.2467C84.0026 6.22533 84.0841 6.17493 84.1439 6.1031C84.5177 5.73509 84.9764 5.46499 85.4793 5.3167C85.9876 5.142 86.5198 5.04741 87.0571 5.03634C88.4232 5.03634 89.4204 5.45347 90.0591 6.27747C90.7327 7.21454 91.0709 8.35175 91.0188 9.5051L91.0085 16.5826ZM103.245 16.6032C103.245 16.8151 103.131 16.9211 102.904 16.9211H101.196C101.049 16.9211 100.964 16.8938 100.943 16.8357C100.912 16.7609 100.889 16.6829 100.875 16.6032V16.3707C100.855 16.0903 100.759 16.0287 100.585 16.2065C100.255 16.5261 99.8534 16.7608 99.4134 16.8904C98.9232 17.0334 98.4144 17.1026 97.9038 17.0955C97.2453 17.1133 96.59 16.997 95.9777 16.7536C95.4621 16.5451 95.0041 16.2156 94.6423 15.7928C94.2802 15.3842 94.0121 14.901 93.8568 14.3773C93.6866 13.8048 93.6015 13.2104 93.604 12.6131V9.53587C93.6007 8.95345 93.6989 8.37491 93.8944 7.82632C94.0802 7.29533 94.3706 6.80703 94.7482 6.3903C95.1274 5.96649 95.5933 5.62946 96.1143 5.40218C96.6982 5.16393 97.3246 5.04758 97.9551 5.06027C98.4494 5.04257 98.9424 5.12155 99.4065 5.29277C99.7132 5.41027 100.004 5.56654 100.271 5.75777C100.368 5.83991 100.486 5.8932 100.612 5.91163C100.691 5.91163 100.728 5.81589 100.728 5.621V0.311138C100.728 0.0957348 100.844 0 101.07 0H102.9C103.133 0 103.242 0.105992 103.242 0.34191L103.245 16.6032ZM100.745 9.55639C100.756 8.96161 100.558 8.38193 100.185 7.91864C99.2228 7.00253 97.712 7.00253 96.7495 7.91864C96.343 8.36629 96.1209 8.95144 96.1279 9.55639V12.6096C96.1071 13.2126 96.3144 13.8012 96.7085 14.2577C97.1673 14.7194 97.8051 14.9568 98.4537 14.9073C99.0677 14.9193 99.6582 14.6709 100.079 14.2235C100.504 13.7902 100.74 13.2063 100.735 12.5994L100.745 9.55639ZM115.53 16.5826C115.53 16.8049 115.424 16.9246 115.209 16.9246H113.382C113.187 16.9246 113.081 16.8186 113.081 16.6066V16.2647C113.081 16.1176 113.05 16.0493 112.982 16.0595C112.888 16.0804 112.804 16.1322 112.743 16.2065C112.385 16.5141 111.969 16.7467 111.52 16.8904C111.056 17.0307 110.574 17.1032 110.089 17.1058C108.723 17.1058 107.699 16.6886 106.971 15.8646C106.226 14.9592 105.843 13.8091 105.895 12.637V5.54236C105.895 5.32012 106.005 5.20045 106.216 5.20045H108.074C108.296 5.20045 108.416 5.30645 108.416 5.52185V12.5618C108.396 13.1665 108.588 13.7591 108.959 14.2371C109.328 14.6748 109.908 14.897 110.701 14.897C111.329 14.9286 111.942 14.6926 112.388 14.2474C112.815 13.8033 113.047 13.2058 113.03 12.5891V5.54236C113.017 5.44839 113.049 5.35394 113.116 5.2869C113.183 5.21986 113.278 5.1879 113.371 5.20045H115.202C115.434 5.20045 115.543 5.30645 115.543 5.52185L115.53 16.5826ZM126.691 13.6183C126.717 14.591 126.275 15.5173 125.502 16.1074C124.706 16.7365 123.651 17.0476 122.347 17.0476C121.439 17.0539 120.541 16.8553 119.72 16.4664C118.899 16.0702 118.249 15.3884 117.893 14.5483C117.862 14.4801 117.843 14.4074 117.835 14.3329C117.839 14.2296 117.903 14.1384 117.999 14.1004L119.365 13.4166C119.512 13.3379 119.608 13.3208 119.655 13.3584C119.737 13.4188 119.809 13.4901 119.871 13.5704C120.149 14.0119 120.531 14.3783 120.984 14.6372C121.441 14.8843 121.953 15.0113 122.473 15.0064C122.915 15.0235 123.351 14.9042 123.723 14.6645C124.045 14.4575 124.235 14.097 124.225 13.714C124.243 13.3864 124.103 13.07 123.849 12.8627C123.525 12.6269 123.17 12.437 122.794 12.2985L121.086 11.7173C120.691 11.5867 120.309 11.4219 119.942 11.2249C119.605 11.0464 119.293 10.8245 119.013 10.565C118.756 10.307 118.546 10.0047 118.395 9.67264C118.235 9.29585 118.159 8.88857 118.173 8.47937C118.164 7.96203 118.281 7.45029 118.515 6.98864C118.74 6.57346 119.054 6.21282 119.433 5.93214C119.828 5.63457 120.275 5.41418 120.752 5.28251C121.256 5.12645 121.781 5.04805 122.309 5.04998C123.026 5.05652 123.737 5.1718 124.42 5.39192C125.149 5.60235 125.813 5.99537 126.349 6.5339C126.426 6.58757 126.472 6.67571 126.472 6.76982C126.472 6.86393 126.426 6.95207 126.349 7.00574L125.475 8.15114C125.414 8.22388 125.329 8.2724 125.236 8.2879C125.116 8.28076 125.003 8.23244 124.915 8.15114C124.536 7.87201 124.122 7.64223 123.685 7.46732C123.276 7.28742 122.835 7.18984 122.388 7.18011C122.177 7.17862 121.966 7.19809 121.759 7.23824C121.565 7.28073 121.379 7.3522 121.206 7.45022C121.044 7.53991 120.902 7.66213 120.789 7.80923C120.681 7.96529 120.627 8.15274 120.636 8.34261C120.636 8.9136 121.11 9.36834 122.067 9.71025L123.655 10.2505C124.183 10.4216 124.688 10.6594 125.157 10.9582C125.598 11.2286 125.977 11.5885 126.271 12.0147C126.568 12.4952 126.714 13.0537 126.691 13.6183ZM135.772 16.2236C135.803 16.4185 135.792 16.545 135.714 16.6134C135.617 16.6874 135.51 16.7462 135.396 16.7878C135.04 16.9021 134.672 16.9766 134.3 17.01C133.898 17.0549 133.495 17.0777 133.091 17.0784C132.55 17.0929 132.012 17.0071 131.503 16.8254C131.11 16.675 130.758 16.4323 130.478 16.1176C130.222 15.8134 130.037 15.4561 129.935 15.0714C129.823 14.6406 129.768 14.1968 129.771 13.7516V7.56989C129.781 7.48571 129.75 7.40195 129.69 7.34307C129.629 7.2842 129.544 7.25685 129.46 7.26901H128.436C128.193 7.26901 128.07 7.17327 128.07 6.95787V5.54236C128.07 5.32012 128.176 5.20045 128.388 5.20045H129.413C129.648 5.20045 129.754 5.0842 129.754 4.85854V2.73528C129.755 2.65077 129.778 2.56803 129.822 2.49594C129.883 2.41389 129.972 2.3577 130.072 2.33867L131.814 1.93863C131.928 1.89165 132.058 1.90995 132.155 1.9865C132.213 2.05422 132.244 2.14032 132.244 2.22925V4.8859C132.244 5.09788 132.358 5.20387 132.585 5.20387H134.839C135.072 5.20387 135.181 5.30986 135.181 5.52527V6.95787C135.181 7.17327 135.065 7.26901 134.839 7.26901H132.555C132.343 7.26901 132.237 7.375 132.237 7.56989V13.2764C132.214 13.6578 132.308 14.0372 132.507 14.3636C132.741 14.6574 133.111 14.8077 133.484 14.7603C133.712 14.7585 133.94 14.7425 134.167 14.7124C134.467 14.6748 134.699 14.644 134.884 14.6064C135.123 14.5483 135.29 14.5585 135.365 14.6338C135.458 14.7179 135.52 14.8313 135.54 14.9551L135.772 16.2236ZM143.777 7.33397C143.75 7.50835 143.692 7.61434 143.623 7.63485C143.54 7.66542 143.451 7.67252 143.364 7.65537C143.224 7.61523 143.081 7.5889 142.937 7.57673C142.806 7.55745 142.673 7.54716 142.541 7.54596C142.128 7.5339 141.718 7.61086 141.339 7.77162C141.039 7.91123 140.777 8.11978 140.574 8.38022C140.375 8.65588 140.233 8.96861 140.157 9.29996C140.078 9.68347 140.039 10.0742 140.041 10.4659V16.5724C140.055 16.6667 140.023 16.762 139.956 16.8295C139.889 16.8969 139.793 16.9283 139.699 16.9143H137.889C137.636 16.9143 137.52 16.8083 137.52 16.5963V5.54236C137.506 5.44807 137.538 5.35271 137.605 5.2853C137.672 5.21789 137.768 5.18641 137.862 5.20045H139.433C139.665 5.20045 139.774 5.30645 139.774 5.52185V6.54758C139.774 6.64673 139.802 6.70486 139.86 6.72195C139.918 6.73905 139.986 6.72195 140.065 6.63648C140.4 6.19364 140.813 5.81589 141.284 5.52185C141.819 5.17546 142.447 5.00017 143.084 5.01924C143.232 5.01687 143.38 5.02372 143.528 5.03976C143.656 5.05327 143.783 5.07961 143.907 5.1184C144.071 5.15601 144.166 5.21413 144.204 5.29277C144.235 5.39299 144.235 5.50027 144.204 5.60049L143.777 7.33397ZM149.924 21.2224C149.888 21.3719 149.807 21.5067 149.692 21.6087C149.535 21.7364 149.334 21.7988 149.132 21.7831H147.804C147.647 21.7994 147.493 21.7334 147.397 21.6087C147.31 21.4392 147.31 21.2381 147.397 21.0685L148.589 17.3451C148.622 17.248 148.642 17.1467 148.647 17.0442C148.647 16.9587 148.569 16.9177 148.405 16.9177H148.145C147.819 16.9396 147.526 16.7158 147.462 16.3946L144.491 5.65861C144.364 5.3167 144.491 5.15259 144.832 5.15259H146.584C146.737 5.14021 146.89 5.1853 147.011 5.27909C147.099 5.36039 147.161 5.46466 147.192 5.57997L148.357 10.3667L149.265 14.3329C149.296 14.4662 149.354 14.5449 149.429 14.5551C149.504 14.5654 149.576 14.4867 149.634 14.3329L150.959 10.0761L152.325 5.66887C152.381 5.54848 152.448 5.43395 152.527 5.32696C152.647 5.20201 152.819 5.14118 152.991 5.16284H154.559C154.948 5.16284 155.081 5.35773 154.958 5.75435L149.924 21.2224Z" fill="#111F44"/>
<path d="M35.5965 26.3921C35.5983 26.5489 35.5657 26.7042 35.5008 26.8469C35.4368 27.0032 35.3375 27.1425 35.2105 27.2538C35.0607 27.3782 34.891 27.4764 34.7085 27.5444C34.4801 27.6178 34.2414 27.6536 34.0015 27.6504C33.6796 27.6538 33.3613 27.5811 33.0726 27.4384C32.7783 27.2966 32.5445 27.0541 32.4135 26.7546C32.3827 26.717 32.393 26.6793 32.4408 26.6588L32.6833 26.5426C32.714 26.5221 32.7311 26.5221 32.7516 26.5426L32.7891 26.5802C32.9093 26.7859 33.0843 26.954 33.2946 27.0657C33.5128 27.1904 33.7605 27.2542 34.0118 27.2503C34.3009 27.2643 34.5865 27.1826 34.8246 27.0178C35.0286 26.8743 35.1477 26.6383 35.1422 26.3887C35.1431 26.2561 35.1102 26.1255 35.0466 26.0092C34.9848 25.9068 34.9063 25.8155 34.8144 25.7391C34.7095 25.6567 34.5948 25.5878 34.4728 25.5339C34.3628 25.4747 34.2486 25.4233 34.1313 25.3801L33.6156 25.1852C33.4313 25.1208 33.2557 25.0335 33.0931 24.9253C32.9331 24.8237 32.795 24.6912 32.6867 24.5356C32.5818 24.3715 32.5283 24.1798 32.533 23.9851C32.5298 23.795 32.5769 23.6074 32.6696 23.4415C32.7528 23.2903 32.8696 23.1605 33.0111 23.0619C33.153 22.9523 33.314 22.87 33.4858 22.8192C33.6616 22.7702 33.843 22.7449 34.0255 22.744C34.2984 22.7501 34.568 22.8057 34.8212 22.9081C35.0576 22.9976 35.2702 23.1403 35.4428 23.3252C35.4628 23.34 35.4746 23.3635 35.4746 23.3885C35.4746 23.4134 35.4628 23.4369 35.4428 23.4517L35.2891 23.6261C35.2481 23.674 35.2003 23.674 35.1525 23.6261C34.9997 23.4823 34.8228 23.3666 34.6299 23.2842C34.4387 23.2078 34.2348 23.1684 34.0289 23.1679C33.914 23.1678 33.7994 23.1804 33.6873 23.2055C33.5665 23.2362 33.4512 23.2858 33.3458 23.3526C33.2447 23.4202 33.1557 23.5046 33.0829 23.6022C33.0155 23.7132 32.9823 23.8416 32.9872 23.9714C32.9859 24.1074 33.0304 24.2399 33.1136 24.3475C33.1909 24.45 33.2857 24.538 33.3936 24.6074C33.5134 24.6845 33.6404 24.7497 33.7727 24.8023C33.8991 24.8501 34.0323 24.9082 34.1484 24.9459C34.3328 25.0142 34.5172 25.0826 34.6812 25.1613C34.8516 25.2323 35.0114 25.3267 35.1559 25.4416C35.2921 25.5487 35.4079 25.6796 35.4974 25.828C35.5854 26.0026 35.6277 26.1967 35.6204 26.3921H35.5965ZM39.9748 25.8759C40.0054 26.3545 39.8373 26.8246 39.5103 27.1751C39.1547 27.5003 38.6831 27.668 38.2023 27.6401C37.7222 27.6915 37.2443 27.5262 36.8984 27.1891C36.5524 26.852 36.3744 26.3782 36.4127 25.8964V24.4911C36.3927 24.0327 36.5576 23.5854 36.8703 23.25C37.6289 22.6202 38.7278 22.6202 39.4864 23.25C39.815 23.5918 39.987 24.055 39.9611 24.5287L39.9748 25.8759ZM39.5103 24.5082C39.5212 24.1502 39.3995 23.8007 39.1688 23.5269C38.9165 23.2605 38.5576 23.1223 38.192 23.1508C37.8336 23.1361 37.4855 23.2726 37.2323 23.5269C36.9798 23.7856 36.8441 24.1365 36.8567 24.498V25.8656C36.8408 26.2296 36.9628 26.5861 37.1982 26.864C37.4636 27.1225 37.8259 27.2566 38.1954 27.2332C38.5596 27.2611 38.9173 27.1258 39.1722 26.864C39.4094 26.5831 39.5315 26.2227 39.5137 25.8553L39.5103 24.5082ZM44.1857 22.7132C44.1857 22.7713 44.2028 22.8021 44.2438 22.8021H45.4733C45.5211 22.8021 45.5416 22.8021 45.5416 22.8773V23.1098C45.5416 23.1679 45.5211 23.1884 45.4733 23.1884H44.2711C44.2131 23.1884 44.1857 23.2261 44.1857 23.2944V26.252C44.1649 26.5092 44.2259 26.7665 44.3599 26.9871C44.5046 27.1539 44.7208 27.2405 44.9405 27.2196C45.0548 27.2188 45.169 27.2096 45.282 27.1922C45.3898 27.1798 45.4962 27.1569 45.5996 27.1238C45.6509 27.1033 45.6782 27.1238 45.6987 27.1717L45.7567 27.4145C45.7567 27.4521 45.7567 27.4828 45.7567 27.4931C45.7567 27.5033 45.726 27.4931 45.6987 27.5307C45.5689 27.5675 45.4364 27.5938 45.3025 27.6093C45.1352 27.6093 44.9917 27.6093 44.8654 27.6093C44.6754 27.6147 44.4866 27.5785 44.3121 27.5033C44.1777 27.4382 44.0607 27.3421 43.9706 27.223C43.8766 27.1037 43.8112 26.9646 43.7793 26.8161C43.7381 26.6484 43.7186 26.476 43.7213 26.3032V23.3081C43.7213 23.2397 43.6905 23.2021 43.6325 23.2021H41.8702C41.8224 23.2021 41.8019 23.25 41.8019 23.3081V27.517C41.8019 27.5649 41.7746 27.582 41.7268 27.582H41.416C41.3682 27.582 41.3374 27.582 41.3374 27.517V23.3081C41.3374 23.25 41.3374 23.2124 41.2794 23.2021H40.7398C40.6988 23.2021 40.6715 23.1816 40.6715 23.1235V22.9081C40.6715 22.85 40.6988 22.8329 40.7398 22.8329H41.2521C41.3204 22.8329 41.3477 22.7918 41.3477 22.7269V21.9712C41.3066 21.6017 41.4308 21.2328 41.6871 20.9637C41.9434 20.6946 42.3055 20.5527 42.6762 20.5763C42.8358 20.5721 42.9953 20.5882 43.1509 20.6241C43.2783 20.6513 43.4038 20.6867 43.5266 20.7301C43.5847 20.7506 43.6051 20.7882 43.5847 20.8361L43.4993 21.0891C43.4993 21.1301 43.448 21.1472 43.39 21.1199C43.1755 21.0233 42.942 20.9765 42.7069 20.9831C42.4348 20.952 42.1664 21.0662 42 21.284C41.8654 21.505 41.7978 21.7604 41.8053 22.0191V22.7029C41.8053 22.7679 41.8361 22.8089 41.8941 22.8089H43.6461C43.6954 22.7987 43.7292 22.7531 43.7247 22.7029V21.749C43.7226 21.7042 43.7554 21.6654 43.7998 21.6601L44.1106 21.5849C44.1584 21.5849 44.1891 21.5849 44.1891 21.6601L44.1857 22.7132ZM49.0149 22.8123C49.0408 22.8072 49.0675 22.8072 49.0934 22.8123C49.1187 22.8415 49.1384 22.8752 49.1515 22.9115L49.9643 25.5852L50.3502 26.9118C50.3707 26.9426 50.3809 26.9631 50.4014 26.9631C50.4219 26.9631 50.4014 26.9426 50.4014 26.9118L50.7122 25.5852L51.3509 22.9115C51.3673 22.845 51.4295 22.8001 51.4977 22.8055H51.7675C51.8153 22.8055 51.8461 22.8055 51.8461 22.8055C51.8529 22.8278 51.8529 22.8516 51.8461 22.8739L50.6166 27.4486C50.6116 27.4785 50.5972 27.5061 50.5756 27.5273C50.5585 27.5273 50.538 27.5273 50.5005 27.5273H50.2477C50.2161 27.5326 50.1838 27.5326 50.1521 27.5273C50.1316 27.5273 50.1214 27.4965 50.1009 27.4589L49.271 24.8399L48.909 23.5919C48.909 23.5645 48.909 23.544 48.8817 23.544C48.8543 23.544 48.8612 23.544 48.8509 23.5919L48.4821 24.9083L47.6863 27.4965C47.6658 27.5444 47.659 27.5649 47.6385 27.5751C47.6126 27.5803 47.5859 27.5803 47.56 27.5751H47.3004C47.271 27.58 47.241 27.58 47.2116 27.5751C47.1844 27.5558 47.1641 27.5282 47.1536 27.4965L45.9275 22.9081C45.907 22.85 45.9275 22.8226 45.9753 22.8226H46.2656C46.2948 22.8158 46.3252 22.8158 46.3544 22.8226C46.3702 22.8471 46.3828 22.8735 46.392 22.9012L47.075 25.5579L47.3926 26.9255C47.4131 26.9563 47.4234 26.9768 47.4404 26.9768C47.4575 26.9768 47.4609 26.9563 47.4609 26.9255L47.8468 25.5784L48.6323 22.9252C48.647 22.8965 48.6596 22.8668 48.6699 22.8363C48.6988 22.8273 48.7298 22.8273 48.7587 22.8363L49.0149 22.8123ZM52.3071 26.0571C52.3042 25.8393 52.34 25.6228 52.413 25.4177C52.4789 25.2242 52.5888 25.0486 52.734 24.9048C52.8795 24.752 53.0584 24.635 53.2566 24.5629C53.4836 24.4682 53.7278 24.4216 53.9737 24.4262C54.1964 24.4235 54.4173 24.4665 54.6226 24.5527C54.8161 24.6224 54.9888 24.74 55.1247 24.8946C55.152 24.9253 55.1725 24.9356 55.193 24.9253C55.2121 24.9038 55.2219 24.8755 55.2203 24.8467V24.3475C55.2201 24.1969 55.2041 24.0468 55.1725 23.8996C55.1356 23.7636 55.073 23.6359 54.9881 23.5235C54.8926 23.4044 54.7695 23.3105 54.6295 23.25C54.4397 23.1697 54.2342 23.1335 54.0284 23.144C53.9351 23.139 53.8416 23.139 53.7483 23.144C53.6436 23.1565 53.5398 23.1759 53.4376 23.2021C53.3324 23.2173 53.2286 23.2401 53.1268 23.2705C53.0385 23.2975 52.9519 23.3295 52.8672 23.3662C52.816 23.3936 52.7784 23.3868 52.7579 23.3286L52.6623 23.0961C52.6534 23.056 52.6732 23.015 52.7101 22.997C52.9178 22.9045 53.1356 22.8368 53.359 22.7952C53.592 22.7502 53.8287 22.7273 54.066 22.7269C54.5248 22.6878 54.9785 22.8471 55.3125 23.1645C55.5762 23.5145 55.7059 23.9476 55.6779 24.3851V27.5068C55.6779 27.5649 55.6609 27.582 55.6028 27.582H55.3125C55.2613 27.582 55.2442 27.582 55.2442 27.517V27.0896C55.2442 27.0418 55.2442 27.011 55.2135 27.011C55.1827 27.011 55.1657 27.0315 55.1452 27.0589C54.8482 27.4547 54.3715 27.6734 53.8781 27.6401C53.4438 27.6684 53.0179 27.5105 52.7067 27.2059C52.4289 26.8949 52.2831 26.4876 52.3003 26.0707L52.3071 26.0571ZM52.734 26.0571C52.7269 26.3678 52.8256 26.6717 53.0141 26.9187C53.2559 27.1678 53.5976 27.2935 53.943 27.2606C54.2817 27.2813 54.6132 27.157 54.8549 26.9187C55.0832 26.683 55.2064 26.3647 55.1964 26.0366C55.2015 25.7191 55.0868 25.4115 54.8754 25.1749C54.6438 24.934 54.3171 24.8087 53.984 24.833C53.8028 24.8272 53.6224 24.8598 53.4546 24.9288C53.3036 24.9906 53.1674 25.0839 53.0551 25.2023C52.9463 25.3152 52.8636 25.4506 52.8126 25.5989C52.7625 25.7559 52.7371 25.9197 52.7374 26.0844L52.734 26.0571ZM57.1738 22.8192C57.2216 22.8192 57.2421 22.8192 57.2421 22.8944V23.4175C57.2421 23.5167 57.2729 23.5167 57.3309 23.438C57.4703 23.2441 57.6439 23.0772 57.8432 22.9457C58.0534 22.8088 58.2994 22.7374 58.5501 22.7405H58.7141L58.8678 22.7713C58.8914 22.7753 58.9122 22.7891 58.9252 22.8092C58.9382 22.8294 58.9422 22.8541 58.9361 22.8773L58.8678 23.1953C58.8678 23.2534 58.8199 23.2842 58.7414 23.2637C58.6628 23.2431 58.6663 23.2637 58.6082 23.2431H58.4716C58.1266 23.2201 57.7926 23.37 57.5802 23.6432C57.3676 23.9314 57.2592 24.2835 57.2728 24.6416V27.5102C57.2728 27.5683 57.2524 27.5854 57.2148 27.5854H56.904C56.8459 27.5854 56.8152 27.5854 56.8152 27.5204V22.9081C56.8152 22.85 56.8357 22.8329 56.8938 22.8329L57.1738 22.8192ZM63.0616 25.0587C63.0639 25.1084 63.0454 25.1567 63.0104 25.192C62.9837 25.2226 62.9451 25.24 62.9045 25.2399H60.0938C60.0084 25.2399 59.9675 25.2912 59.9675 25.3869V25.91C59.9506 26.2567 60.0737 26.5955 60.309 26.8503C60.5603 27.1149 60.9147 27.2561 61.2789 27.2367C61.5003 27.2413 61.7194 27.192 61.9175 27.0931C62.1048 27.0044 62.2651 26.8675 62.382 26.6964C62.4298 26.6395 62.4776 26.6292 62.5255 26.6657L62.7304 26.8024C62.7756 26.8213 62.797 26.8734 62.7782 26.9187C62.6216 27.1551 62.4013 27.3424 62.143 27.4589C61.8653 27.5809 61.565 27.6426 61.2618 27.6401C60.784 27.6687 60.3152 27.5008 59.964 27.1751C59.6345 26.8415 59.4588 26.3856 59.4791 25.9169V24.5287C59.4786 24.274 59.5249 24.0213 59.6157 23.7834C59.7114 23.583 59.8434 23.4021 60.005 23.25C60.1649 23.0969 60.356 22.9803 60.5651 22.9081C60.7842 22.8296 61.0154 22.7902 61.2482 22.7918C61.4888 22.7887 61.7281 22.8281 61.9551 22.9081C62.3897 23.0471 62.7362 23.3788 62.8943 23.8073C62.9876 24.0659 63.0339 24.3392 63.0309 24.6142L63.0616 25.0587ZM62.5869 24.4809C62.5989 24.1285 62.4669 23.7866 62.2215 23.5338C61.9679 23.2808 61.6194 23.1467 61.2618 23.1645C61.0863 23.1602 60.9117 23.1928 60.7495 23.2602C60.5924 23.3231 60.4504 23.4187 60.3329 23.5406C60.2119 23.6589 60.1165 23.8009 60.0528 23.9577C59.9857 24.1203 59.952 24.2947 59.9538 24.4706V24.7339C59.9538 24.8125 59.9948 24.8501 60.0802 24.8501H62.4708C62.5391 24.8501 62.5767 24.8125 62.5767 24.7339L62.5869 24.4809ZM69.7145 25.0553C69.7181 25.1065 69.6964 25.1563 69.6564 25.1886C69.6307 25.2165 69.5953 25.2336 69.5574 25.2365H66.7501C66.6647 25.2365 66.6169 25.2878 66.6169 25.3835V25.9066C66.6077 26.2552 66.7366 26.5932 66.9755 26.8469C67.2284 27.1113 67.5837 27.2523 67.9488 27.2332C68.1702 27.2379 68.3894 27.1886 68.5875 27.0896C68.7709 26.9953 68.93 26.8595 69.0519 26.693C69.0625 26.6672 69.085 26.6481 69.1122 26.642C69.1395 26.6358 69.1679 26.6434 69.1886 26.6622L69.4003 26.799C69.4391 26.8237 69.4549 26.8725 69.4379 26.9153C69.2875 27.1515 69.0731 27.34 68.8197 27.4589C68.5386 27.5812 68.2349 27.643 67.9283 27.6401C67.451 27.6652 66.9836 27.4977 66.6306 27.1751C66.3044 26.84 66.1324 26.3841 66.1558 25.9169V24.5287C66.1504 24.2736 66.1969 24.02 66.2924 23.7834C66.3801 23.5827 66.5067 23.4014 66.6647 23.25C66.8279 23.1013 67.018 22.9852 67.2248 22.9081C67.4441 22.8301 67.6752 22.7908 67.9078 22.7918C68.1518 22.7895 68.3943 22.8288 68.625 22.9081C69.0544 23.052 69.3959 23.3825 69.554 23.8073C69.6574 24.0634 69.7074 24.338 69.7008 24.6142L69.7145 25.0553ZM69.25 24.4809C69.2686 24.1288 69.138 23.7852 68.8903 23.5345C68.6425 23.2839 68.3007 23.1496 67.9488 23.1645C67.7699 23.1593 67.5918 23.1919 67.4263 23.2602C67.271 23.3265 67.1296 23.4216 67.0096 23.5406C66.8919 23.6616 66.797 23.8029 66.7296 23.9577C66.6684 24.1219 66.636 24.2954 66.634 24.4706V24.7339C66.634 24.8125 66.6818 24.8501 66.7672 24.8501H69.1578C69.2261 24.8501 69.2569 24.8125 69.2569 24.7339L69.25 24.4809ZM74.2431 27.5068C74.2431 27.5649 74.226 27.582 74.185 27.582H73.8674C73.8093 27.582 73.7889 27.582 73.7889 27.517V24.5492C73.7894 24.3719 73.7629 24.1955 73.7103 24.0261C73.67 23.8634 73.5942 23.7116 73.4883 23.5816C73.3792 23.4499 73.2397 23.3466 73.0819 23.2808C72.8866 23.1981 72.6757 23.1584 72.4637 23.1645C72.2774 23.1624 72.0926 23.1985 71.9207 23.2705C71.7683 23.3455 71.6306 23.4475 71.5143 23.5714C71.3955 23.6934 71.3036 23.839 71.2445 23.9988C71.1767 24.1671 71.143 24.3472 71.1455 24.5287V27.5068C71.1455 27.5649 71.1182 27.582 71.0703 27.582H70.7596C70.7117 27.582 70.681 27.582 70.681 27.517V22.9081C70.681 22.85 70.7117 22.8329 70.7596 22.8329H71.0601C71.0977 22.8329 71.1284 22.8329 71.1284 22.9081V23.3081C71.1284 23.356 71.1284 23.3833 71.1455 23.3833C71.1625 23.3833 71.1933 23.3833 71.2343 23.3457C71.3974 23.1545 71.6034 23.0045 71.8353 22.9081C72.0684 22.8126 72.3178 22.7638 72.5696 22.7645C72.8354 22.7556 73.0999 22.8046 73.3449 22.9081C73.549 23.0001 73.7281 23.1396 73.8674 23.3149C74.0027 23.4843 74.1015 23.6799 74.1577 23.8894C74.2165 24.1125 74.2452 24.3424 74.2431 24.5732V27.5068ZM79.3352 28.4744C79.3327 28.7288 79.2593 28.9774 79.1234 29.1924C78.9787 29.4187 78.7834 29.6083 78.5531 29.7463C78.5294 29.7614 78.5025 29.7707 78.4745 29.7736C78.4472 29.7736 78.4165 29.7736 78.3892 29.736L78.2525 29.5411C78.2368 29.5175 78.2319 29.4883 78.239 29.4609C78.2462 29.4334 78.2648 29.4103 78.2901 29.3975C78.4408 29.2961 78.5745 29.1715 78.6863 29.0283C78.8088 28.8859 78.8744 28.7033 78.8707 28.5154C78.8773 28.3538 78.8265 28.1951 78.7273 28.0675C78.6274 27.9444 78.5014 27.8451 78.3584 27.7769C78.1993 27.7039 78.03 27.6555 77.8564 27.6333C77.6736 27.6021 77.4885 27.5861 77.3031 27.5854C77.0406 27.5878 76.7785 27.6038 76.5176 27.6333C76.2273 27.6709 75.9473 27.7017 75.6775 27.7393C75.6241 27.7558 75.5669 27.7558 75.5135 27.7393C75.4587 27.7025 75.4178 27.6483 75.3974 27.5854C75.3375 27.4309 75.3107 27.2655 75.3189 27.0999C75.3379 26.9022 75.4047 26.7121 75.5135 26.546C75.6539 26.3189 75.8372 26.1215 76.0531 25.9648C76.0745 25.9648 76.0923 25.9485 76.0941 25.9271C76.0941 25.9271 76.0736 25.8964 76.0463 25.869C75.7973 25.725 75.5946 25.5126 75.4623 25.257C75.3206 25.0019 75.2465 24.7147 75.2471 24.4227C75.248 24.2057 75.2945 23.9914 75.3838 23.7936C75.47 23.5917 75.5927 23.4074 75.7458 23.25C75.9081 23.1053 76.0941 22.9896 76.2956 22.9081C76.513 22.8213 76.7447 22.7761 76.9787 22.7747C77.1687 22.7786 77.3577 22.8038 77.5422 22.85C77.7501 22.9095 77.9417 23.0159 78.1023 23.1611C78.1221 23.184 78.1506 23.1976 78.1808 23.1987C78.2114 23.199 78.2404 23.1851 78.2594 23.1611C78.3849 23.053 78.5282 22.9674 78.6829 22.9081C78.8416 22.8447 79.0082 22.8033 79.1781 22.785H79.2191C79.2771 22.785 79.2976 22.8226 79.2976 22.891V23.2329C79.2976 23.291 79.2771 23.3218 79.2395 23.3218H79.2191C79.0947 23.3243 78.971 23.3403 78.8502 23.3697C78.7505 23.387 78.6531 23.4157 78.5599 23.4551C78.5223 23.4756 78.5019 23.4859 78.5019 23.5133C78.5117 23.5401 78.5231 23.5664 78.536 23.5919C78.6149 23.709 78.6706 23.8401 78.6999 23.9783C78.7396 24.1172 78.7591 24.2611 78.758 24.4056C78.7638 24.6504 78.7111 24.8931 78.6043 25.1134C78.5137 25.3158 78.3809 25.4964 78.215 25.6434C78.0467 25.7921 77.8521 25.908 77.6412 25.9853C77.4275 26.062 77.2023 26.1013 76.9753 26.1015H76.7908C76.732 26.1048 76.6731 26.0979 76.6167 26.081C76.5736 26.0798 76.5307 26.0868 76.4903 26.1015C76.4565 26.1133 76.4243 26.1293 76.3947 26.1494C76.3264 26.1973 76.2478 26.2656 76.1693 26.334C76.0947 26.4073 76.0273 26.4874 75.9678 26.5734C75.9124 26.6573 75.8633 26.7453 75.8209 26.8366C75.7835 26.9194 75.7637 27.009 75.7628 27.0999C75.7628 27.2161 75.7628 27.2811 75.8038 27.3016C75.8448 27.3221 75.879 27.3324 75.9575 27.3016L76.2786 27.2435C76.3947 27.223 76.5108 27.2059 76.6201 27.1956C76.7294 27.1854 76.8626 27.1649 76.9616 27.1546H77.2621C77.5184 27.1564 77.7742 27.1781 78.0271 27.2196C78.2559 27.2646 78.4768 27.343 78.6829 27.4521C78.8669 27.547 79.026 27.6841 79.1473 27.8521C79.268 28.0315 79.329 28.2445 79.3215 28.4607L79.3352 28.4744ZM78.2901 24.4125C78.2872 24.2485 78.2548 24.0863 78.1945 23.9338C78.1375 23.7836 78.0476 23.6481 77.9315 23.5372C77.8207 23.4185 77.6855 23.3252 77.5353 23.2637C77.3659 23.1965 77.1848 23.1639 77.0026 23.1679C76.8191 23.1603 76.6364 23.1967 76.4698 23.2739C76.3148 23.3352 76.1758 23.4311 76.0634 23.5543C75.953 23.6627 75.8649 23.7916 75.8038 23.9338C75.7377 24.0871 75.704 24.2524 75.7048 24.4193C75.7042 24.5853 75.7343 24.7499 75.7936 24.9048C75.8502 25.055 75.9348 25.1931 76.0429 25.3117C76.1485 25.4374 76.2818 25.5369 76.4322 25.6023C76.5986 25.6813 76.7809 25.7211 76.965 25.7186C77.1547 25.7218 77.3426 25.682 77.5149 25.6023C77.6749 25.54 77.8177 25.4404 77.9315 25.3117C78.0496 25.1944 78.1395 25.0517 78.1945 24.8946C78.2512 24.7355 78.2801 24.5677 78.2799 24.3988L78.2901 24.4125ZM80.5851 21.4208C80.5857 21.51 80.5514 21.5959 80.4895 21.6601C80.4291 21.7239 80.3451 21.7598 80.2573 21.7593C80.1715 21.7599 80.0885 21.7282 80.025 21.6704C79.9594 21.6042 79.9236 21.514 79.926 21.4208C79.9242 21.3326 79.9603 21.248 80.025 21.1883C80.0885 21.1305 80.1715 21.0987 80.2573 21.0994C80.3435 21.0962 80.4274 21.1283 80.4895 21.1883C80.5534 21.2483 80.5882 21.3331 80.5851 21.4208ZM80.0148 22.9081C80.0148 22.85 80.0421 22.8329 80.0899 22.8329H80.4007C80.4485 22.8329 80.469 22.8329 80.469 22.9081V27.517C80.469 27.5649 80.4485 27.582 80.4007 27.582H80.0899C80.0421 27.582 80.0148 27.582 80.0148 27.517V22.9081ZM85.3664 27.5068C85.3664 27.5649 85.346 27.582 85.3084 27.582H84.9874C84.9293 27.582 84.9088 27.582 84.9088 27.517V24.5492C84.9088 24.3722 84.8835 24.196 84.8337 24.0261C84.7962 23.8617 84.7188 23.709 84.6083 23.5816C84.5013 23.4476 84.3612 23.3439 84.2019 23.2808C84.0065 23.1981 83.7957 23.1584 83.5837 23.1645C83.3974 23.1624 83.2126 23.1985 83.0407 23.2705C82.8883 23.3455 82.7506 23.4475 82.6343 23.5714C82.5166 23.6943 82.4248 23.8396 82.3645 23.9988C82.2967 24.1671 82.263 24.3472 82.2654 24.5287V27.5068C82.2654 27.5649 82.2381 27.582 82.1903 27.582H81.8795C81.8317 27.582 81.801 27.582 81.801 27.517V22.9081C81.801 22.85 81.8317 22.8329 81.8795 22.8329H82.18C82.2176 22.8329 82.2483 22.8329 82.2483 22.9081V23.3081C82.2483 23.356 82.2483 23.3833 82.2757 23.3833C82.303 23.3833 82.3167 23.3833 82.3542 23.3457C82.5154 23.1554 82.7189 23.0055 82.9485 22.9081C83.437 22.7165 83.9797 22.7165 84.4682 22.9081C84.6676 23.003 84.8428 23.1422 84.9805 23.3149C85.1171 23.4835 85.2161 23.6794 85.2708 23.8894C85.3308 24.1123 85.3606 24.3423 85.3596 24.5732L85.3664 27.5068ZM89.9838 25.0553C89.9861 25.1049 89.9675 25.1533 89.9326 25.1886C89.9059 25.2192 89.8673 25.2366 89.8267 25.2365H87.0194C86.934 25.2365 86.893 25.2878 86.893 25.3835V25.9066C86.8808 26.2557 87.0101 26.5948 87.2516 26.8469C87.5029 27.1115 87.8574 27.2527 88.2216 27.2332C88.4429 27.2379 88.6621 27.1886 88.8602 27.0896C89.0437 26.9953 89.2027 26.8595 89.3247 26.693C89.3725 26.636 89.4203 26.6258 89.4681 26.6622L89.673 26.799C89.7146 26.8214 89.7346 26.8701 89.7208 26.9153C89.5666 27.152 89.3488 27.3404 89.0925 27.4589C88.8148 27.5809 88.5145 27.6426 88.2113 27.6401C87.7307 27.6668 87.2595 27.4993 86.9033 27.1751C86.58 26.8383 86.4084 26.3836 86.4286 25.9169V24.5287C86.4264 24.2738 86.4728 24.0209 86.5652 23.7834C86.6558 23.5844 86.7819 23.4036 86.9374 23.25C87.0973 23.0969 87.2884 22.9803 87.4975 22.9081C87.7167 22.8296 87.9479 22.7902 88.1806 22.7918C88.4212 22.7896 88.6603 22.8289 88.8875 22.9081C89.0985 22.9764 89.2904 23.0935 89.4476 23.25C89.6152 23.4054 89.7449 23.5972 89.8267 23.8107C89.9201 24.0694 89.9663 24.3426 89.9633 24.6176L89.9838 25.0553ZM89.5262 24.4809C89.5192 24.0356 89.2935 23.6225 88.9228 23.3764C88.5521 23.1304 88.0841 23.0831 87.6717 23.25C87.5181 23.3139 87.3797 23.4095 87.2653 23.5304C87.1443 23.6486 87.049 23.7906 86.9853 23.9475C86.9181 24.11 86.8844 24.2845 86.8862 24.4603V24.7236C86.8862 24.8023 86.9272 24.8399 87.0126 24.8399H89.4032C89.4715 24.8399 89.5091 24.8023 89.5091 24.7236L89.5262 24.4809ZM94.4543 25.0553C94.458 25.1045 94.4406 25.1529 94.4065 25.1886C94.3793 25.2185 94.341 25.2358 94.3007 25.2365H91.4934C91.4046 25.2365 91.367 25.2878 91.367 25.3835V25.9066C91.3547 26.2557 91.4841 26.5948 91.7256 26.8469C91.9755 27.1114 92.3289 27.2526 92.6921 27.2332C92.9135 27.2379 93.1326 27.1886 93.3307 27.0896C93.5149 26.9963 93.6741 26.8603 93.7952 26.693C93.8464 26.6349 93.8942 26.6246 93.9421 26.6622L94.147 26.799C94.1885 26.8214 94.2086 26.8701 94.1948 26.9153C94.0366 27.1499 93.8184 27.3376 93.563 27.4589C93.2866 27.5812 92.9874 27.643 92.6853 27.6401C92.2045 27.6676 91.733 27.5 91.3772 27.1751C91.0539 26.8383 90.8824 26.3836 90.9025 25.9169V24.5287C90.9004 24.2738 90.9467 24.0209 91.0391 23.7834C91.13 23.5786 91.2573 23.3921 91.4148 23.2329C91.5759 23.0797 91.7681 22.9631 91.9783 22.891C92.1973 22.8121 92.4286 22.7728 92.6614 22.7747C92.9053 22.7722 93.1479 22.8115 93.3785 22.891C93.5895 22.9593 93.7814 23.0764 93.9386 23.2329C94.104 23.3902 94.2333 23.5815 94.3177 23.7936C94.4098 24.0525 94.4549 24.3258 94.4509 24.6005L94.4543 25.0553ZM93.9899 24.4809C94.0099 24.126 93.8778 23.7794 93.6268 23.528C93.3757 23.2767 93.0295 23.1445 92.675 23.1645C92.4961 23.1602 92.3183 23.1928 92.1525 23.2602C91.9984 23.3233 91.8598 23.4189 91.7461 23.5406C91.624 23.6587 91.5275 23.8007 91.4626 23.9577C91.3965 24.1205 91.364 24.2949 91.367 24.4706V24.7339C91.367 24.8125 91.4046 24.8501 91.4934 24.8501H93.884C93.9523 24.8501 93.9796 24.8125 93.9796 24.7339L93.9899 24.4809ZM95.8307 22.8158C95.8682 22.8158 95.8887 22.8158 95.8887 22.891V23.4141C95.8887 23.5133 95.9161 23.5133 95.9741 23.4346C96.1191 23.242 96.2958 23.0755 96.4966 22.9423C96.6996 22.8089 96.9369 22.7377 97.1797 22.7371H97.347L97.5007 22.7679C97.5588 22.7679 97.5895 22.826 97.5793 22.8739L97.5007 23.1919C97.5007 23.25 97.4529 23.2808 97.3744 23.2602C97.347 23.2602 97.2958 23.2602 97.248 23.2397H97.1046C96.7597 23.2179 96.4263 23.3675 96.2132 23.6398C96.0013 23.928 95.8951 24.2806 95.9126 24.6381V27.5068C95.9126 27.5649 95.8853 27.582 95.8443 27.582H95.537C95.4789 27.582 95.4482 27.582 95.4482 27.517V22.9081C95.4482 22.85 95.4789 22.8329 95.5267 22.8329L95.8307 22.8158ZM98.8805 21.4208C98.8838 21.5112 98.8476 21.5985 98.7814 21.6601C98.7226 21.7261 98.6375 21.7624 98.5492 21.7593C98.4663 21.7604 98.3864 21.7284 98.3272 21.6704C98.2606 21.605 98.2257 21.5139 98.2316 21.4208C98.2285 21.3331 98.2633 21.2483 98.3272 21.1883C98.3864 21.1302 98.4663 21.0982 98.5492 21.0994C98.6385 21.0961 98.7256 21.128 98.7917 21.1883C98.8494 21.2518 98.8811 21.3349 98.8805 21.4208ZM98.3101 22.9081C98.3101 22.85 98.3306 22.8329 98.3784 22.8329H98.6858C98.7336 22.8329 98.7609 22.8329 98.7609 22.9081V27.517C98.7609 27.5649 98.7336 27.582 98.6858 27.582H98.375C98.3272 27.582 98.3067 27.582 98.3067 27.517L98.3101 22.9081ZM103.655 27.5239C103.655 27.582 103.634 27.5991 103.587 27.5991H103.269C103.218 27.5991 103.201 27.5991 103.201 27.5341V24.5492C103.2 24.372 103.173 24.1959 103.122 24.0261C103.044 23.6915 102.81 23.4146 102.494 23.2808C102.297 23.1991 102.085 23.1595 101.872 23.1645C101.687 23.1629 101.503 23.1989 101.333 23.2705C101.176 23.3393 101.038 23.4421 100.926 23.5714C100.807 23.6941 100.715 23.8394 100.653 23.9988C100.586 24.1673 100.554 24.3475 100.557 24.5287V27.5068C100.557 27.5649 100.527 27.582 100.479 27.582H100.171C100.12 27.582 100.093 27.582 100.093 27.517V22.9081C100.093 22.85 100.12 22.8329 100.171 22.8329H100.469C100.51 22.8329 100.527 22.8329 100.527 22.9081V23.3081C100.527 23.356 100.527 23.3833 100.557 23.3833C100.588 23.3833 100.605 23.3833 100.643 23.3457C100.803 23.1555 101.005 23.0056 101.234 22.9081C101.471 22.8126 101.725 22.7638 101.981 22.7645C102.246 22.7566 102.509 22.8056 102.753 22.9081C102.958 22.9988 103.138 23.1385 103.276 23.3149C103.412 23.4835 103.511 23.6794 103.566 23.8894C103.626 24.1123 103.656 24.3423 103.655 24.5732V27.5239Z" fill="#111F44"/>
<path d="M108.737 28.4741C108.738 28.729 108.664 28.9787 108.525 29.1921C108.386 29.4204 108.192 29.6107 107.961 29.746C107.939 29.7611 107.913 29.7705 107.886 29.7734C107.856 29.7734 107.828 29.7734 107.797 29.7358L107.654 29.5409C107.64 29.5157 107.637 29.4858 107.646 29.4585C107.655 29.4312 107.676 29.409 107.702 29.3973C107.852 29.2949 107.985 29.1704 108.098 29.028C108.216 28.8831 108.281 28.7021 108.282 28.5151C108.29 28.3528 108.238 28.1933 108.136 28.0672C108.036 27.9458 107.911 27.8467 107.77 27.7766C107.609 27.705 107.439 27.6567 107.265 27.633C107.083 27.6018 106.899 27.5858 106.715 27.5851C106.452 27.5875 106.19 27.6035 105.929 27.633L105.079 27.739C105.028 27.7555 104.973 27.7555 104.922 27.739C104.869 27.6999 104.829 27.6465 104.806 27.5851C104.749 27.4299 104.723 27.2649 104.731 27.0996C104.748 26.9021 104.814 26.7119 104.922 26.5457C105.063 26.3184 105.248 26.1209 105.465 25.9645C105.485 25.9645 105.496 25.9645 105.496 25.9269C105.496 25.8893 105.496 25.8961 105.455 25.8688C105.215 25.7264 105.018 25.5221 104.884 25.2772C104.741 25.023 104.668 24.735 104.673 24.443C104.674 24.2264 104.719 24.0124 104.806 23.8139C104.884 23.6049 105.002 23.4132 105.154 23.2497C105.318 23.1057 105.505 22.9901 105.707 22.9078C105.924 22.8186 106.156 22.7733 106.39 22.7744C106.579 22.7783 106.767 22.8036 106.951 22.8497C107.159 22.9107 107.351 23.0169 107.514 23.1608C107.533 23.184 107.561 23.1974 107.591 23.1974C107.621 23.1974 107.649 23.184 107.668 23.1608C107.793 23.0511 107.938 22.9654 108.095 22.9078C108.252 22.8433 108.417 22.8018 108.586 22.7847H108.617C108.665 22.7847 108.696 22.8223 108.696 22.8907V23.2326C108.696 23.2907 108.675 23.3215 108.627 23.3215H108.597C108.473 23.324 108.351 23.3401 108.231 23.3694C108.132 23.3867 108.034 23.4154 107.941 23.4549C107.9 23.4754 107.883 23.4856 107.883 23.513C107.894 23.5514 107.91 23.5881 107.931 23.6224C108.005 23.7417 108.061 23.8721 108.095 24.0088C108.129 24.1485 108.145 24.2922 108.142 24.4361C108.146 24.6797 108.098 24.9212 107.999 25.1439C107.905 25.3344 107.774 25.5041 107.613 25.6431C107.45 25.7916 107.26 25.9077 107.053 25.985C106.834 26.0633 106.603 26.1026 106.37 26.1013H106.199C106.139 26.1048 106.079 26.0979 106.022 26.0807C105.98 26.0787 105.938 26.0857 105.899 26.1013C105.864 26.1136 105.831 26.1296 105.8 26.1491C105.721 26.2054 105.647 26.2671 105.578 26.3338C105.502 26.4061 105.435 26.4864 105.376 26.5731C105.32 26.6563 105.27 26.7444 105.229 26.8364C105.184 26.9167 105.16 27.0074 105.161 27.0996C105.154 27.1695 105.168 27.2399 105.202 27.3014C105.254 27.3255 105.314 27.3255 105.366 27.3014L105.673 27.2432C105.789 27.2227 105.916 27.2056 106.015 27.1954C106.114 27.1851 106.257 27.1646 106.356 27.1543H106.657C106.913 27.1564 107.169 27.1781 107.422 27.2193C107.648 27.2645 107.867 27.3428 108.071 27.4518C108.257 27.5439 108.416 27.6815 108.535 27.8518C108.656 28.0312 108.717 28.2443 108.709 28.4604L108.737 28.4741ZM107.712 24.4122C107.712 24.2475 107.682 24.0842 107.623 23.9301C107.568 23.7801 107.479 23.6445 107.364 23.5335C107.251 23.4124 107.112 23.3188 106.957 23.26C106.788 23.1913 106.607 23.1587 106.425 23.1642C106.241 23.1583 106.059 23.1946 105.892 23.2702C105.74 23.3317 105.604 23.4277 105.496 23.5506C105.383 23.6662 105.29 23.8004 105.222 23.9472C105.165 24.1027 105.137 24.2671 105.137 24.4327C105.135 24.5985 105.164 24.7631 105.222 24.9182C105.277 25.0681 105.359 25.2062 105.465 25.3251C105.573 25.451 105.709 25.5504 105.861 25.6157C106.027 25.6951 106.21 25.7349 106.394 25.732C106.585 25.7356 106.774 25.6958 106.947 25.6157C107.107 25.5534 107.25 25.4538 107.364 25.3251C107.481 25.2077 107.57 25.065 107.623 24.908C107.681 24.7491 107.711 24.5813 107.712 24.4122Z" fill="#111F44"/>
</g>
<defs>
<linearGradient id="paint0_linear_2345_4883" x1="13.4932" y1="27.5065" x2="13.4932" y2="0.485352" gradientUnits="userSpaceOnUse">
<stop offset="0.499994" stop-color="#FFD700"/>
<stop offset="0.500003" stop-color="#0057B8"/>
</linearGradient>
<clipPath id="clip0_2345_4883">
<rect width="155" height="30" fill="white"/>
</clipPath>
</defs>
</svg>
