<svg width="24" height="24" viewBox="0 0 24 24" fill="none" xmlns="http://www.w3.org/2000/svg">
<path opacity="0.1" fill-rule="evenodd" clip-rule="evenodd" d="M2.56389 0L21.4361 0C22.3276 0 22.6509 0.0928256 22.9768 0.267133C23.3028 0.44144 23.5586 0.697228 23.7329 1.02315C23.9072 1.34908 24 1.67237 24 2.56389V21.4361C24 22.3276 23.9072 22.6509 23.7329 22.9768C23.5586 23.3028 23.3028 23.5586 22.9768 23.7329C22.6509 23.9072 22.3276 24 21.4361 24H2.56389C1.67237 24 1.34908 23.9072 1.02315 23.7329C0.697228 23.5586 0.44144 23.3028 0.267133 22.9768C0.0928256 22.6509 0 22.3276 0 21.4361L0 2.56389C0 1.67237 0.0928256 1.34908 0.267133 1.02315C0.44144 0.697228 0.697228 0.44144 1.02315 0.267133C1.34908 0.0928256 1.67237 0 2.56389 0Z" fill="#D85555"/>
<path d="M21 18.1636C20.9866 18.2083 20.9687 18.2485 20.9553 18.2932C20.7988 18.8475 20.4547 19.2408 19.8959 19.3883C18.3941 19.7817 16.8877 20.175 15.3724 20.5281C14.5679 20.7159 13.7678 20.5996 12.9945 20.2957C12.2213 19.9917 11.448 19.6878 10.6747 19.3883C10.6345 19.3749 10.5987 19.357 10.5629 19.3437C10.3707 19.2543 10.2903 19.062 10.3663 18.8787C10.4378 18.7044 10.6256 18.6195 10.8177 18.691C11.1977 18.834 11.5687 18.9816 11.9441 19.1291C12.2749 19.2587 12.6146 19.3749 12.9365 19.5224C13.8796 19.9515 14.8316 19.9917 15.8284 19.7146C17.071 19.366 18.3315 19.071 19.5831 18.7536C20.0077 18.6463 20.2625 18.3648 20.2893 17.9848C20.3251 17.4171 19.811 17.0014 19.2389 17.1311C18.0767 17.3948 16.9146 17.663 15.7524 17.9267C14.8943 18.1233 14.0539 18.0474 13.2359 17.7345C12.1498 17.3143 11.0635 16.8987 9.9774 16.4829C9.93271 16.4651 9.88801 16.4517 9.84778 16.4293C9.66452 16.3399 9.58406 16.1566 9.65111 15.9778C9.71816 15.8035 9.90589 15.7097 10.0981 15.7812C10.4914 15.9242 10.8848 16.0806 11.2781 16.2282C11.6581 16.3757 12.0424 16.5231 12.4224 16.6662C12.9275 16.8584 13.4281 16.6394 13.6203 16.1566C13.808 15.6783 13.5935 15.1956 13.0884 14.9856C11.9754 14.5251 10.8624 14.0648 9.74944 13.6044C9.69134 13.582 9.62428 13.5597 9.56617 13.5597C8.52918 13.5597 7.49218 13.5597 6.45518 13.5597C6.43283 13.5597 6.41048 13.5642 6.37472 13.5686V17.5155C6.69655 17.5155 7.00944 17.5155 7.3268 17.5155C7.45195 17.5155 7.57264 17.5155 7.69779 17.5155C7.9481 17.52 8.0956 17.6541 8.10007 17.8641C8.10007 18.0742 7.95704 18.2127 7.70673 18.2172C7.33127 18.2217 6.9558 18.2172 6.58033 18.2172C6.51775 18.2172 6.45517 18.2172 6.36578 18.2172C6.36578 18.329 6.36578 18.4273 6.36578 18.5256C6.35237 18.767 6.21828 18.9056 5.97691 18.9056C5.11423 18.9056 4.25602 18.9056 3.39335 18.9056C3.20561 18.9056 3.09387 18.8028 3 18.6597V12.2634C3.10728 12.0801 3.26819 12.0176 3.48274 12.0176C4.29178 12.0265 5.09635 12.0176 5.90539 12.0176C6.23615 12.0176 6.36578 12.1428 6.36578 12.469C6.36578 12.5853 6.36578 12.7014 6.36578 12.849H6.58033C7.57711 12.849 8.56941 12.849 9.56617 12.849C9.70027 12.849 9.84778 12.8758 9.97293 12.9249C11.0993 13.3854 12.2123 13.8726 13.3432 14.3106C14.5054 14.7621 14.7602 16.2773 13.7768 17.0819C13.7633 17.0908 13.75 17.1042 13.7366 17.1132V17.1713C14.0048 17.216 14.2729 17.2785 14.5411 17.3054C15.1222 17.3679 15.6764 17.2115 16.2352 17.0864C17.1917 16.8673 18.1483 16.6394 19.1048 16.4337C19.9853 16.246 20.7586 16.7556 20.9598 17.6406C20.9642 17.663 20.9776 17.6808 20.9866 17.7032V18.1591L21 18.1636ZM5.65508 18.1904V12.7372H3.72411V18.1904H5.65508Z" fill="#D85555"/>
<path d="M16.4011 8.59385C16.3609 8.88885 16.3296 9.17939 16.2715 9.46546C16.2134 9.76941 16.048 9.8588 15.7486 9.78282C15.3239 9.67554 14.9574 9.97502 15.0289 10.3952C15.0512 10.5159 15.1317 10.641 15.2167 10.7393C15.3954 10.945 15.4044 11.1327 15.2122 11.3204C14.7697 11.7451 14.2511 12.0446 13.6656 12.2189C13.4064 12.2948 13.232 12.1965 13.1605 11.9373C13.0801 11.6423 12.8744 11.4635 12.6063 11.468C12.347 11.468 12.1414 11.6423 12.061 11.9283C11.9805 12.2099 11.8151 12.2993 11.529 12.2144C10.948 12.0401 10.4384 11.7406 9.99589 11.3204C9.80368 11.1372 9.80368 10.945 9.98695 10.7573C10.2149 10.5293 10.2641 10.2834 10.13 10.0465C9.99589 9.80517 9.75451 9.72024 9.43268 9.8007C9.17791 9.86327 9.00805 9.76047 8.94547 9.50569C8.80244 8.91567 8.79797 8.32565 8.941 7.73117C9.00805 7.4451 9.17344 7.34229 9.45503 7.41828C9.7411 7.49427 9.99142 7.40487 10.1255 7.17691C10.2641 6.94001 10.2194 6.68076 10.0004 6.46174C9.80368 6.26507 9.79921 6.07733 10.0004 5.88513C10.4473 5.45603 10.9703 5.15207 11.5648 4.98222C11.8195 4.91071 11.9849 5.00457 12.0565 5.25935C12.1459 5.58118 12.3381 5.74209 12.6196 5.73763C12.8968 5.73763 13.0845 5.56777 13.165 5.25935C13.232 5.00904 13.4019 4.91071 13.6567 4.98222C14.2556 5.15207 14.7741 5.45603 15.2211 5.88513C15.4133 6.06839 15.4133 6.26954 15.2211 6.46174C15.0021 6.68076 14.9574 6.94448 15.0959 7.17691C15.2345 7.40487 15.4804 7.49427 15.7664 7.41828C16.0435 7.34229 16.2178 7.43616 16.2715 7.71329C16.3296 8.00383 16.3609 8.3033 16.4056 8.59385H16.4011ZM10.6932 6.18014C10.9569 6.645 10.9882 7.08752 10.7334 7.52555C10.4786 7.9636 10.0719 8.15133 9.57125 8.16027V9.0453C10.0897 9.05424 10.4831 9.24644 10.7379 9.68001C10.9927 10.1181 10.9614 10.5605 10.7021 11.021L11.4664 11.459C12.1146 10.5203 13.0175 10.5248 13.7684 11.459L14.5283 11.0165C14.3361 10.6991 14.2735 10.3818 14.345 10.051C14.4613 9.49228 14.9172 9.1034 15.4893 9.05424C15.5474 9.04977 15.6502 9.00507 15.6502 8.97825C15.6636 8.70559 15.6592 8.4374 15.6592 8.16027C15.1362 8.14686 14.7339 7.95466 14.4836 7.51214C14.2333 7.07411 14.278 6.62712 14.5283 6.17567L13.7595 5.73763C13.4824 6.19802 13.1158 6.44386 12.6063 6.43939C12.0967 6.43939 11.7391 6.17567 11.4664 5.73316L10.7021 6.18014H10.6932Z" fill="#D85555"/>
<path d="M7.72614 9.51764C7.79766 9.41484 7.85577 9.32544 7.91834 9.24498C8.04797 9.07513 8.25359 9.03491 8.41003 9.14665C8.56647 9.25392 8.61117 9.45953 8.49942 9.62939C8.28934 9.95122 8.07032 10.2686 7.84683 10.586C7.73061 10.7468 7.55629 10.7871 7.38197 10.6888C7.04673 10.501 6.7115 10.3043 6.38519 10.0987C6.21534 9.99145 6.17511 9.78584 6.27345 9.62045C6.37178 9.464 6.55952 9.41037 6.73384 9.49529C6.82324 9.53999 6.9037 9.58916 6.99756 9.6428C6.97521 9.33885 6.93945 9.05278 6.93498 8.77118C6.87688 6.17421 8.55306 3.91248 11.0562 3.21071C14.1806 2.33016 17.4346 4.29689 18.0738 7.47941C18.4672 9.42378 17.9442 11.1268 16.5898 12.5705C16.5183 12.6465 16.4066 12.7315 16.3127 12.727C16.201 12.727 16.0669 12.6555 15.9864 12.575C15.8881 12.4722 15.9059 12.3247 15.9864 12.1996C16.0222 12.1459 16.0713 12.1012 16.116 12.0565C17.4436 10.586 17.8637 8.8874 17.2067 7.01454C16.5541 5.14615 15.1863 4.05104 13.2285 3.7605C10.5153 3.35822 8.00774 5.3026 7.68145 8.03813C7.62781 8.47617 7.68145 8.92316 7.68592 9.36567C7.68592 9.41037 7.70826 9.45059 7.72614 9.51764Z" fill="#D85555"/>
<path d="M15.3779 13.2011C15.3779 13.3888 15.2305 13.5497 15.0428 13.5587C14.8505 13.5676 14.6807 13.4022 14.6807 13.2055C14.6807 13.0134 14.8371 12.8613 15.0293 12.8613C15.226 12.8613 15.3779 13.0089 15.3824 13.2011H15.3779Z" fill="#D85555"/>
<path d="M9.1889 18.7749C8.99223 18.7749 8.84473 18.6229 8.84473 18.4307C8.84473 18.2385 8.9967 18.0865 9.1889 18.082C9.38557 18.082 9.55096 18.2385 9.54649 18.4352C9.54202 18.6274 9.39004 18.7749 9.19337 18.7704L9.1889 18.7749Z" fill="#D85555"/>
<path d="M11.0898 8.60494C11.0898 7.76014 11.7782 7.06732 12.6185 7.07626C13.4544 7.08073 14.1382 7.76908 14.1338 8.60494C14.1338 9.4408 13.4499 10.1247 12.614 10.1247C11.7782 10.1247 11.0943 9.44527 11.0943 8.60941L11.0898 8.60494ZM11.7915 8.596C11.7915 9.05192 12.1581 9.41845 12.614 9.41845C13.061 9.41845 13.4275 9.05192 13.4275 8.60494C13.4275 8.15349 13.0566 7.77802 12.6051 7.78249C12.1581 7.78249 11.796 8.14902 11.7915 8.60047V8.596Z" fill="#D85555"/>
</svg>
