<?xml version="1.0" encoding="UTF-8"?>
<svg width="44px" height="44px" viewBox="0 0 44 44" version="1.1" xmlns="http://www.w3.org/2000/svg" xmlns:xlink="http://www.w3.org/1999/xlink">
    <title>8AD8042C-F499-4C44-9D1A-803EB1E0DB8D</title>
    <g id="Page-1" stroke="none" stroke-width="1" fill="none" fill-rule="evenodd">
        <g id="Home-—-Desktop" transform="translate(-809.000000, -6473.000000)" fill="#111F44" fill-rule="nonzero">
            <g id="Group-4" transform="translate(-0.893223, 2385.000000)">
                <g id="block/CONTACT-US" transform="translate(200.893223, 3959.000000)">
                    <g id="pic_contact_us_support" transform="translate(609.000000, 129.000000)">
                        <path d="M22,0 C29.2890538,0 35.2393587,5.8461756 35.4078799,13.0954919 L35.4115501,13.4115501 L35.4115501,14.17032 L35.5009025,14.3009365 L35.6147351,14.4813326 C35.8283758,14.8495439 35.9572253,15.2609189 35.9896794,15.6911364 L35.9978198,15.9077028 L35.9978198,19.5130807 L35.9925982,19.6866687 C35.9059903,21.122368 34.7524789,22.2759014 33.3168369,22.3625109 L33.1432558,22.3677326 L30.5666945,22.3677326 L30.5101603,22.8152348 L30.4565017,23.1824044 C30.2542723,24.3999852 29.8193994,25.5523474 29.182879,26.5782726 L28.9859045,26.8821958 L28.8980392,27.0120735 L28.8980392,31.6020532 L41.0266946,35.5778286 L41.229328,35.6498035 L41.4265647,35.7309455 C42.9146751,36.3861993 43.9104886,37.8213969 43.9942681,39.4572207 L44,39.6814767 L44,44 L0,44 L0,39.6814767 L0.00526568229,39.4665189 C0.0892390345,37.7555585 1.17090029,36.2626558 2.77061807,35.6497953 L2.97324631,35.5778192 L15.1375749,31.5904485 L15.1375749,27.0617084 L15.0478508,26.9309097 L14.8462683,26.6240575 C14.194878,25.587938 13.7500858,24.4211529 13.5444197,23.1873208 L13.4899262,22.8152234 L13.4333833,22.3677326 L10.8568321,22.3677326 L10.6832429,22.3625109 C9.24753448,22.2759021 8.09401064,21.1223783 8.00740187,19.6866699 L8.00218023,19.5130807 L8.00218023,15.9077028 L8.01032079,15.6911628 C8.04277562,15.2609895 8.17162838,14.8496071 8.38528043,14.4813352 L8.49911937,14.3009045 L8.58844985,14.1702987 L8.58844985,13.4115501 L8.59212012,13.0954919 C8.76064127,5.8461756 14.7109462,0 22,0 Z M15.741311,33.0919079 L3.47633229,37.1123617 L3.30369528,37.1754367 C2.34653208,37.5621184 1.69506486,38.4579963 1.62173364,39.4870586 L1.61482558,39.6814767 L1.61482558,42.3851744 L9.0825625,42.3851744 L9.08246121,40.4656744 C9.08243768,40.0198115 9.44386192,39.6583491 9.88972484,39.6583256 C9.88973904,39.6583256 9.88975324,39.6583256 9.88976744,39.6583256 C10.3356669,39.6583256 10.6971523,40.0197749 10.6971968,40.4656744 L10.6973881,42.3851744 L10.6973881,42.3851744 L33.3026119,42.3851744 L33.302083,40.4656744 C33.3019601,40.0199108 33.6632233,39.6584485 34.1089869,39.6583256 C34.109061,39.6583256 34.1091352,39.6583256 34.1092093,39.6583256 C34.5551379,39.6583256 34.9166747,40.0197458 34.9168185,40.4656744 L34.9174375,42.3851744 L34.9174375,42.3851744 L42.3851744,42.3851744 L42.3851744,39.6814767 L42.3790091,39.4977912 C42.3096935,38.4678496 41.6612783,37.5696859 40.7063027,37.1795439 L40.5237188,37.1124375 L28.2820646,33.0995721 L28.0639391,33.2836583 L27.7922419,33.5082912 C25.9698126,34.9838724 23.9305265,36.0103946 22.0000879,36.0103946 C20.0665981,36.0103946 18.0366709,34.9816441 16.2292133,33.5033018 L15.741311,33.0919079 Z M27.2832137,28.8296474 L26.4919898,29.3459527 L26.2013126,29.5274303 C24.9288429,30.2867313 23.4918915,30.6923743 22,30.6923743 C20.5205576,30.6923743 19.0950612,30.2936402 17.8305236,29.5465936 L17.5416132,29.3680381 L16.7524004,28.8583026 L16.7524004,31.831827 L17.179687,32.1988496 C18.7037057,33.465251 20.4739245,34.395569 22,34.395569 C23.5277066,34.395569 25.3103505,33.464487 26.8511342,32.1965836 L27.1056068,31.9822495 L27.2832137,31.829173 L27.2832137,28.8296474 Z M23.7727031,14.0103425 L23.361699,14.5647469 L23.1985817,14.7753311 C22.0868888,16.14951 20.4437189,16.9968848 18.6538601,17.0781868 L18.3700879,17.0846228 L15.0283263,17.0846228 L15.0283263,21.6044637 L15.0322022,21.855312 C15.1559074,25.8531279 18.2252032,29.0775487 22.0000879,29.0775487 C24.1448832,29.0775487 26.1275802,28.0273991 27.4387804,26.2752164 L27.6059566,26.0427181 L28.1601168,25.2403394 L24.8323721,25.2397668 C24.3864632,25.2396901 24.0250233,24.878188 24.0250233,24.4322791 C24.0250233,23.986448 24.3864407,23.6250305 24.8322718,23.6250305 C24.8323052,23.6250305 24.8323387,23.6250305 24.8323721,23.6250305 L28.7223703,23.6255138 L28.7223703,23.6255138 L28.8064791,23.2170802 L28.8655941,22.8978863 C28.9182789,22.5777157 28.9516063,22.2547234 28.9649772,21.9298834 L28.9716737,21.6044637 L28.9716737,17.0982902 L28.5141011,17.0496739 L28.2266109,17.0122801 C26.7024051,16.7774736 25.3287141,15.980271 24.3604441,14.7920742 L24.1837068,14.5647472 L23.7727031,14.0103425 Z M33.1431679,14.6678765 L30.5864993,14.6678765 L30.5864993,20.752907 L33.1431679,20.752907 L33.2698247,20.7464987 C33.8528975,20.6871748 34.317262,20.2228103 34.3765859,19.6397375 L34.3829942,19.5130807 L34.3829942,15.9077028 L34.3765859,15.781046 C34.317262,15.1979732 33.8528975,14.7336086 33.2698247,14.6742848 L33.1431679,14.6678765 Z M13.4135007,14.6678765 L10.8568321,14.6678765 L10.7301753,14.6742848 C10.1471025,14.7336086 9.68273796,15.1979732 9.62341411,15.781046 L9.61700581,15.9077028 L9.61700581,19.5130807 L9.62341411,19.6397375 C9.68273796,20.2228103 10.1471025,20.6871748 10.7301753,20.7464987 L10.8568321,20.752907 L13.4135007,20.752907 L13.4135007,14.6678765 Z M22,6.71511628 C18.2354342,6.71511628 15.1589299,9.71316392 15.0323762,13.4473704 L15.0283263,13.686702 L15.0283263,15.4697093 L18.3700879,15.4697093 L18.5861136,15.4646991 C19.7423055,15.4109604 21.3369985,14.7043876 22.5184831,12.960781 C22.6342997,12.7898617 22.731717,12.5230618 22.8107351,12.1603812 C22.9092443,11.7082076 23.3094994,11.3857674 23.7722791,11.3857674 C24.2576597,11.3857674 24.6821145,11.7127903 24.8058992,12.1821214 C24.89363,12.5147613 24.95759,12.7154296 24.9977791,12.7841265 C25.9253152,14.3696017 27.1569444,15.1272586 28.1547844,15.3541506 L28.3706221,15.3978164 L28.9716737,15.5045121 L28.9716737,13.686702 L28.9676238,13.4473704 C28.8410701,9.71316392 25.7645658,6.71511628 22,6.71511628 Z M22,1.61482558 C15.9335757,1.61482558 10.8732011,6.23352549 10.2643655,12.2054759 L10.2376493,12.505186 L10.1942435,13.0734978 L10.763927,13.0555224 L13.4248493,13.0530509 L13.4813203,12.6054665 L13.5181091,12.3458259 C14.1682795,8.21254467 17.756925,5.1002907 22,5.1002907 C26.2430858,5.1002907 29.831718,8.21255402 30.4818069,12.3458172 L30.5185905,12.6054567 L30.575054,13.0530509 L33.1646356,13.0533228 L33.80566,13.0734978 L33.7622634,12.5051937 L33.7355517,12.205484 C33.126805,6.23354208 28.0664394,1.61482558 22,1.61482558 Z" id="Shape"></path>
                    </g>
                </g>
            </g>
        </g>
    </g>
</svg>