<?xml version="1.0" encoding="UTF-8"?>
<svg width="44px" height="44px" viewBox="0 0 44 44" version="1.1" xmlns="http://www.w3.org/2000/svg" xmlns:xlink="http://www.w3.org/1999/xlink">
    <title>802F5967-64DB-40CE-8545-86246A79616C</title>
    <g id="Page-1" stroke="none" stroke-width="1" fill="none" fill-rule="evenodd">
        <g id="Home-—-Desktop" transform="translate(-809.000000, -6555.000000)" fill="#111F44" fill-rule="nonzero">
            <g id="Group-4" transform="translate(-0.893223, 2385.000000)">
                <g id="block/CONTACT-US" transform="translate(200.893223, 3959.000000)">
                    <g id="pic_contact_us_info" transform="translate(609.000000, 211.000000)">
                        <path d="M26.0974639,0 L26.3277681,0.00766132336 C27.0145874,0.0525339754 27.6620837,0.297880314 28.2032058,0.717541872 L28.3795481,0.863849295 L28.5449576,1.01995688 L32.2649089,4.74012801 L32.4224618,4.90825274 C32.8763958,5.42556052 33.1607396,6.05683145 33.2466276,6.73621155 L33.2678671,6.96436307 L33.274448,7.19170289 L33.2742184,18.8652527 L38.1164797,14.0192782 L38.2691379,13.8755597 C39.6207648,12.6779014 41.6963877,12.7256942 42.9897855,14.0190684 C44.2353668,15.2644146 44.3337464,17.2318305 43.259168,18.5892758 L43.1245868,18.7491561 L42.9797862,18.9019419 L33.2742184,28.6147172 L33.2742184,40.554367 L33.2691091,40.7428424 C33.1775343,42.4280815 31.8656206,43.8042685 30.1931149,43.9807143 L30.0058407,43.9953369 L29.815513,44 L3.44589196,44 L3.25740243,43.9947264 C1.57203661,43.9031585 0.195746192,42.5913434 0.0192871486,40.9189634 L0.00466342096,40.7317032 L0,40.5413898 L0,3.44563301 L0.00527394902,3.25715765 C0.0968487714,1.57191848 1.40876246,0.195731483 3.08126819,0.0192856992 L3.2685424,0.00466307051 L3.45887008,0 L26.0974639,0 Z M23.7445038,1.61497811 L3.44589196,1.61497811 L3.29067554,1.62150989 C2.47145172,1.69072509 1.79764362,2.30268927 1.64664969,3.10627865 L1.62455719,3.25911154 L1.61575487,3.41974582 L1.61509948,40.554367 L1.62163175,40.7095717 C1.69085215,41.528734 2.30286232,42.2024915 3.10651209,42.3534741 L3.25935647,42.3755649 L3.42000282,42.3843666 L29.8284911,42.3850219 L29.9837169,42.3784903 C30.8029857,42.3092768 31.476756,41.6973263 31.6277371,40.8937182 L31.6498275,40.7408814 L31.6586284,40.5802505 L31.6592836,30.2301954 L30.6257666,31.2636348 L30.5558623,31.3258991 L30.4794176,31.3795213 L30.4794176,31.3795213 L30.397199,31.4239874 L30.2823106,31.4689048 L24.7135344,33.3240889 L24.6036495,33.3523458 C24.34519,33.3997367 24.0765596,33.3183292 23.8872244,33.1290082 C23.721228,32.9630656 23.6372997,32.734962 23.6523523,32.5053407 L23.6682053,32.3906843 L23.7004453,32.2752622 L25.5577282,26.706559 L25.5923981,26.6196904 L25.6368157,26.5375483 L25.6368157,26.5375483 L25.6905143,26.4609633 L25.7731952,26.3693874 L31.6592836,20.48153 L31.6592836,9.52916308 L24.5519713,9.52916308 L24.4406394,9.52151873 C24.1128035,9.47615028 23.8452053,9.23334227 23.7674175,8.9140264 L23.748696,8.80492003 L23.7438527,8.69595267 L23.7445038,1.61497811 Z M24.5519713,37.1088986 L24.6615348,37.1162697 C25.0556452,37.1697366 25.3594387,37.5075686 25.3594387,37.9163053 C25.3594387,38.2936352 25.0990779,38.6143758 24.7442558,38.7008001 L24.6351412,38.7195202 L24.5261657,38.7243632 L16.6371915,38.7237121 L16.527628,38.716341 C16.1335176,38.6628741 15.8297241,38.325042 15.8297241,37.9163053 C15.8297241,37.5389755 16.0900849,37.2182349 16.444907,37.1318105 L16.5540216,37.1130904 L16.6629971,37.1082475 L24.5519713,37.1088986 Z M28.1892746,26.2384068 L27.0294505,27.3980006 L25.7349626,31.2814164 L29.6185607,29.9870217 L30.7783659,28.8273036 L28.1892746,26.2384068 Z M6.10995747,29.0181917 L19.2754514,29.0188428 L19.385015,29.026214 C19.7791254,29.0796808 20.0829189,29.4175129 20.0829189,29.8262496 C20.0829189,30.2035794 19.822558,30.52432 19.467736,30.6107444 L19.3586214,30.6294645 L19.2496458,30.6343074 L6.08415187,30.6336563 L5.97458834,30.6262852 C5.58047792,30.5728183 5.27668445,30.2349863 5.27668445,29.8262496 C5.27668445,29.4489197 5.53704527,29.1281791 5.89186735,29.0417548 L6.00098192,29.0230347 L6.10995747,29.0181917 Z M36.3953188,18.0264731 L29.3309669,25.09627 L31.9200807,27.6851892 L38.9844325,20.6153923 L36.3953188,18.0264731 Z M6.10995747,23.7420684 L19.2754514,23.7427195 L19.385015,23.7500906 C19.7791254,23.8035575 20.0829189,24.1413896 20.0829189,24.5501263 C20.0829189,24.9274561 19.822558,25.2481967 19.467736,25.3346211 L19.3586214,25.3533412 L19.2496458,25.3581841 L6.08415187,25.357533 L5.97458834,25.3501619 C5.58047792,25.296695 5.27668445,24.958863 5.27668445,24.5501263 C5.27668445,24.1727964 5.53704527,23.8520558 5.89186735,23.7656315 L6.00098192,23.7469114 L6.10995747,23.7420684 Z M6.10995747,18.4659451 L19.2754514,18.4665962 L19.385015,18.4739673 C19.7791254,18.5274342 20.0829189,18.8652663 20.0829189,19.274003 C20.0829189,19.6513328 19.822558,19.9720734 19.467736,20.0584978 L19.3586214,20.0772179 L19.2496458,20.0820608 L6.08415187,20.0814097 L5.97458834,20.0740386 C5.58047792,20.0205717 5.27668445,19.6827397 5.27668445,19.274003 C5.27668445,18.8966731 5.53704527,18.5759325 5.89186735,18.4895081 L6.00098192,18.4707881 L6.10995747,18.4659451 Z M41.848063,15.1609992 C41.2251844,14.5381674 40.2543685,14.4540385 39.5382299,14.9317127 L39.4070855,15.0278659 L39.2788985,15.1418404 L37.5368337,16.884159 L40.1259475,19.4730782 L41.8475946,17.7501132 L41.9603222,17.6267985 C42.5614906,16.90657 42.5231451,15.8363769 41.848063,15.1609992 Z M24.5519713,13.1904729 L24.6615348,13.197844 C25.0556452,13.2513109 25.3594387,13.5891429 25.3594387,13.9978796 C25.3594387,14.3752095 25.0990779,14.6959501 24.7442558,14.7823744 L24.6351412,14.8010945 L24.5261657,14.8059375 L6.08415187,14.8052864 L5.97458834,14.7979153 C5.58047792,14.7444484 5.27668445,14.4066163 5.27668445,13.9978796 C5.27668445,13.6205498 5.53704527,13.2998092 5.89186735,13.2133848 L6.00098192,13.1946647 L6.10995747,13.1898218 L24.5519713,13.1904729 Z M26.0304852,1.61380102 L25.3595266,1.61881036 L25.3595266,7.91434958 L31.6585013,7.91434958 L31.6596599,7.23374668 L31.6529763,7.0650237 C31.6301525,6.73536263 31.5482068,6.45046586 31.3642641,6.17532371 L31.2635944,6.03840344 L31.1418819,5.90178357 L27.392069,2.15113375 L27.2564651,2.02662582 C26.9370249,1.7586203 26.595016,1.64504542 26.2020847,1.61953556 L26.0304852,1.61380102 Z" id="Shape"></path>
                    </g>
                </g>
            </g>
        </g>
    </g>
</svg>