<?xml version="1.0" encoding="UTF-8"?>
<svg width="44px" height="44px" viewBox="0 0 44 44" version="1.1" xmlns="http://www.w3.org/2000/svg" xmlns:xlink="http://www.w3.org/1999/xlink">
    <title>5CDA864D-7E82-4E24-810F-1C8A1F1861FC</title>
    <g id="Page-1" stroke="none" stroke-width="1" fill="none" fill-rule="evenodd">
        <g id="Home-—-Desktop" transform="translate(-809.000000, -6623.000000)" fill="#111F44" fill-rule="nonzero">
            <g id="Group-4" transform="translate(-0.893223, 2385.000000)">
                <g id="block/CONTACT-US" transform="translate(200.893223, 3959.000000)">
                    <g id="pic_contact_us_estimate" transform="translate(609.000000, 279.000000)">
                        <path d="M22,0 C25.2647942,0 28.4306302,0.712307899 31.3241163,2.06810472 C31.8242224,2.3024387 32.0396732,2.89781996 31.8053392,3.39792598 C31.5710052,3.898032 30.9756239,4.11348279 30.4755179,3.87914881 C27.8462627,2.64716232 24.9699647,2 22,2 C11.7580081,2 3.31413249,9.69865128 2.1395755,19.6247516 L4,19.6240107 C4.55228475,19.6240107 5,20.0717259 5,20.6240107 C5,21.1368465 4.61395981,21.5595179 4.11662113,21.617283 L4,21.6240107 L2.00345544,21.6244447 L2.00086512,21.8120162 L2,22 C2,33.045695 10.954305,42 22,42 C33.045695,42 42,33.045695 42,22 L41.995,21.624 L40,21.6240107 C39.4477153,21.6240107 39,21.1762954 39,20.6240107 C39,20.1111749 39.3860402,19.6885035 39.8833789,19.6307384 L40,19.6240107 L41.8603607,19.6239765 C41.5183837,16.7335373 40.5546128,13.9810369 39.0390132,11.5219336 C38.7492426,11.0517726 38.8954779,10.4357262 39.365639,10.1459556 C39.8358,9.85618493 40.4518464,10.0024203 40.741617,10.4725813 C42.5614326,13.4252836 43.6585795,16.7639837 43.9322454,20.2618256 C43.9760903,20.3743374 44,20.4963819 44,20.6240107 C44,20.7061959 43.9900857,20.7860655 43.9713878,20.8624888 C43.9903065,21.2400002 44,21.6192972 44,22 C44,34.1502645 34.1502645,44 22,44 C9.8497355,44 0,34.1502645 0,22 C0,21.6185697 0.00970696589,21.2394066 0.0288873424,20.8627442 C0.00991432934,20.7860655 0,20.7061959 0,20.6240107 C0,20.4975421 0.0234769123,20.3765569 0.0663103571,20.2651754 C0.951765326,8.92601654 10.4334912,0 22,0 Z M22,10 C22.5128358,10 22.9355072,10.3860402 22.9932723,10.8833789 L23,11 L23,21.585 L30.9551282,29.5409146 C31.3156121,29.9013986 31.3433417,30.4686296 31.0383168,30.8609208 L30.9551282,30.9551282 C30.5946442,31.3156121 30.0274132,31.3433417 29.635122,31.0383168 L29.5409146,30.9551282 L21.2928932,22.7071068 C21.1366129,22.5508265 21.0374017,22.3481451 21.0086724,22.131444 L21,22 L21,11 C21,10.4477153 21.4477153,10 22,10 Z M35.5079597,4.63402001 C36.1192286,5.11014093 36.7051425,5.61818076 37.2631368,6.15583196 C37.6608435,6.53903926 37.6725975,7.17209512 37.2893902,7.56980181 C36.9061829,7.9675085 36.2731271,7.97926258 35.8754204,7.59605528 C35.3678669,7.10700598 34.834933,6.64490445 34.2789698,6.21186148 C33.8432609,5.87248528 33.7651678,5.24415467 34.104544,4.80844577 C34.4439202,4.37273688 35.0722508,4.29464381 35.5079597,4.63402001 Z" id="Shape"></path>
                    </g>
                </g>
            </g>
        </g>
    </g>
</svg>