<?xml version="1.0" encoding="UTF-8"?>
<svg width="44px" height="44px" viewBox="0 0 44 44" version="1.1" xmlns="http://www.w3.org/2000/svg" xmlns:xlink="http://www.w3.org/1999/xlink">
    <title>pic_serv_update</title>
    <g id="Symbols" stroke="none" stroke-width="1" fill="none" fill-rule="evenodd">
        <g id="pic_serv_update">
            <path d="M39.9616132,20.96426 C40.5353392,20.96426 41.0003758,21.4281321 41.0003758,22 C41.0096815,27.0569487 39.0442101,31.9175672 35.5210565,35.5501285 C28.2275699,43.0702128 16.3012423,43.4536832 8.54475306,36.500599 L8.26952333,36.2491549 L7.15383914,35.1908225 L7.15383914,39.6268071 L7.14774808,39.7396299 C7.09139004,40.258436 6.65085454,40.6625471 6.11534795,40.6625471 C5.61532909,40.6625471 5.1934782,40.3084747 5.09738615,39.833286 L5.08110645,39.7215831 L5.0763355,39.6043142 L5.07684169,32.75 L5.08372647,32.6270532 C5.12116957,32.3033457 5.30885893,32.0164285 5.58863244,31.8523512 L5.69775035,31.7967484 L5.80839671,31.7548315 L10.6768322,30.0396408 L10.7863075,30.0097071 C11.2986782,29.8989791 11.8231101,30.1893531 11.9922831,30.6969282 C12.1485596,31.1658096 11.9503989,31.6724349 11.5358987,31.9167412 L11.4278465,31.9721791 L11.3113619,32.0164912 L8.12689817,33.1718862 L8.64839616,33.7405784 L8.93454034,34.0452049 C12.2147084,37.4543877 16.7494827,39.3885507 21.4965592,39.3894506 C31.118869,39.3913961 38.9211729,31.6061102 38.923122,22.0001015 C38.923122,21.4281631 39.3878561,20.96426 39.9616132,20.96426 Z M36.8847209,3.16284942 C37.3847545,3.16284942 37.8066679,3.51693743 37.9027713,3.9920612 L37.9190527,4.10374763 L37.9238238,4.22099755 L37.9233173,11.24991 L37.9164326,11.3728568 C37.8789895,11.6965643 37.6913001,11.9834815 37.4115266,12.1475588 L37.3024087,12.2031616 L37.1917623,12.2450785 L31.547931,13.8362917 L31.4384558,13.8662254 C30.926085,13.9769534 30.4016531,13.6865794 30.2324801,13.1790043 C30.0762036,12.7101229 30.2743644,12.2034976 30.6888646,11.9591913 L30.7969168,11.9037534 L30.9134014,11.8594413 L34.8732609,10.8280238 L34.3517629,10.2593316 L34.0656187,9.95470515 C30.7854506,6.54552231 26.2506763,4.61135928 21.5035998,4.61045938 C11.88129,4.60851396 4.07898617,12.3937998 4.07703706,21.9998086 C4.07703705,22.5717732 3.61236683,23.03565 3.03863601,23.03565 C2.46485746,23.03565 1.99996491,22.5717254 1.99996491,21.99991 C1.99038738,16.9429613 3.9558588,12.0823428 7.4790124,8.44978155 C14.7726136,0.929752965 26.6988625,0.546259129 34.4553171,7.49931219 L34.7305456,7.75075514 L35.8462297,8.80908748 L35.8462297,4.19858942 L35.8523208,4.08576662 C35.9086788,3.56696054 36.3492143,3.16284942 36.8847209,3.16284942 Z" id="Shape" fill="#141F42" fill-rule="nonzero"></path>
            <polyline id="Path-42" stroke="#141F42" stroke-width="2" stroke-linecap="round" points="13.9276947 22.03565 19.5383854 27.6463406 29.3479031 17.8368229"></polyline>
        </g>
    </g>
</svg>