<?xml version="1.0" encoding="UTF-8"?>
<svg width="44px" height="44px" viewBox="0 0 44 44" version="1.1" xmlns="http://www.w3.org/2000/svg" xmlns:xlink="http://www.w3.org/1999/xlink">
    <title>pic_serv_desidn</title>
    <g id="Symbols" stroke="none" stroke-width="1" fill="none" fill-rule="evenodd">
        <g id="pic/services/design" fill="#141F42" fill-rule="nonzero">
            <g id="pic_serv_desidn">
                <path d="M36.9099026,10.8327381 C38.0396336,11.9624691 38.0799811,13.7690562 37.0309452,14.947134 L36.9099026,15.0753788 L17.1109127,34.8743687 C17.0212124,34.9640689 16.4197847,35.6028391 16.058869,35.6629917 L8.95453915,36.8470467 C8.73684193,36.8833295 8.51464042,36.8833295 8.2969432,36.8470467 C7.20740256,36.6654566 6.47136322,35.6350015 6.65295333,34.5454609 L7.83700831,27.441131 C7.89702544,27.0810282 8.49142914,26.54878 8.54233224,26.4833879 L8.62563133,26.3890873 L28.4246212,6.59009742 C29.5543522,5.46036644 31.3609393,5.4200189 32.5390171,6.46905482 L32.6672619,6.59009742 L36.9099026,10.8327381 Z M14.7648441,33.8442511 L9.45572466,28.6042939 L8.62611944,34.8738806 L14.7648441,33.8442511 Z M31.9599495,17.1964936 L26.3030953,11.5396393 L10.7469517,27.0961941 L16.4038059,32.7530483 L31.9599495,17.1964936 Z M14,1 C14,1.51283584 13.6139598,1.93550716 13.1166211,1.99327227 L13,2 L4,2 C2.9456382,2 2.08183488,2.81587779 2.00548574,3.85073766 L2,4 L2,13 C2,13.5522847 1.55228475,14 1,14 C0.487164161,14 0.0644928393,13.6139598 0.00672773133,13.1166211 L2.84217094e-12,13 L2.84217094e-12,4 C2.84217094e-12,1.85780461 1.68396847,0.108921124 3.80035966,0.00489530724 L4,1.65556457e-12 L13,1.65556457e-12 C13.5522847,1.65556457e-12 14,0.44771525 14,1 Z M43.9932723,30.8833789 L44,31 L44,40 C44,42.1421954 42.3160315,43.8910789 40.1996403,43.9951047 L40,44 L31,44 C30.4477153,44 30,43.5522847 30,43 C30,42.4871642 30.3860402,42.0644928 30.8833789,42.0067277 L31,42 L40,42 C41.0543618,42 41.9181651,41.1841222 41.9945143,40.1492623 L42,40 L42,31 C42,30.4477153 42.4477153,30 43,30 C43.5128358,30 43.9355072,30.3860402 43.9932723,30.8833789 Z M35.495689,12.2469517 L31.2530483,8.00431099 C30.8904186,7.64168129 30.3185732,7.61577916 29.9260556,7.92660462 L29.8388348,8.00431099 L27.7175144,10.1256313 L33.3743687,15.7824856 L35.495689,13.6611652 C35.8304241,13.3264301 35.8782434,12.8134284 35.6391469,12.42776 L35.5733954,12.3341725 L35.495689,12.2469517 Z" id="Shape"></path>
            </g>
        </g>
    </g>
</svg>