<svg width="24" height="24" viewBox="0 0 24 24" fill="none" xmlns="http://www.w3.org/2000/svg">
<g clip-path="url(#clip0_1833_3060)">
<path opacity="0.1" fill-rule="evenodd" clip-rule="evenodd" d="M2.56389 0L21.4361 0C22.3276 0 22.6509 0.0928256 22.9768 0.267133C23.3028 0.44144 23.5586 0.697228 23.7329 1.02315C23.9072 1.34908 24 1.67237 24 2.56389V21.4361C24 22.3276 23.9072 22.6509 23.7329 22.9768C23.5586 23.3028 23.3028 23.5586 22.9768 23.7329C22.6509 23.9072 22.3276 24 21.4361 24H2.56389C1.67237 24 1.34908 23.9072 1.02315 23.7329C0.697228 23.5586 0.44144 23.3028 0.267133 22.9768C0.0928256 22.6509 0 22.3276 0 21.4361L0 2.56389C0 1.67237 0.0928256 1.34908 0.267133 1.02315C0.44144 0.697228 0.697228 0.44144 1.02315 0.267133C1.34908 0.0928256 1.67237 0 2.56389 0Z" fill="#1F7CAF"/>
<path d="M11.2837 2.23588C11.6407 1.95695 12.1236 1.92413 12.512 2.14416L12.5883 2.19154L12.6593 2.24389L12.7271 2.30179L12.8914 2.45916C14.4342 3.90027 16.2419 4.63583 18.5452 4.76468C19.5326 4.82 20.3248 5.61382 20.3902 6.5912L20.3944 6.69294L20.4016 7.02397L20.4134 7.34637L20.4283 8.23516L20.4335 8.8942L20.4329 9.19679C20.4192 11.6942 20.1783 13.5936 19.5304 15.3543C18.9939 16.8125 18.1829 18.0791 17.1196 19.1201C15.9068 20.3072 14.3152 21.2524 12.3877 21.9282C12.3322 21.9476 12.2742 21.9634 12.2153 21.9753C12.1332 21.9918 12.0499 22 11.9667 22C11.8837 22 11.8006 21.9918 11.718 21.9753C11.6593 21.9634 11.6017 21.9478 11.5465 21.9284C9.61675 21.254 8.02345 20.3093 6.80958 19.1219C5.74578 18.0812 4.93478 16.815 4.39878 15.3572C3.77868 13.6707 3.53126 11.8341 3.50252 9.48879L3.5 9.17997L3.50087 8.64434L3.50663 8.12183L3.52083 7.32689L3.53193 7.02579L3.53913 6.69442L3.54328 6.59254C3.60868 5.61388 4.40102 4.82002 5.38828 4.76484C7.61347 4.64022 9.37501 3.94954 10.8832 2.60417L11.0439 2.45751L11.214 2.29495L11.2837 2.23588ZM12.1735 2.89776C12.0622 2.8024 11.9216 2.79191 11.8102 2.85967L11.7699 2.88875L11.5737 3.07514C10.7619 3.82934 9.89294 4.39727 8.92307 4.80877C7.87607 5.25302 6.73533 5.50453 5.4336 5.57737C4.86232 5.60925 4.40331 6.06151 4.35498 6.62392L4.3509 6.70498L4.34368 7.04649L4.33177 7.37628L4.31753 8.19379L4.31178 8.74871L4.31099 9.04142C4.31238 11.551 4.53027 13.3612 5.16064 15.0758C6.20368 17.9128 8.31318 19.8811 11.5887 21.0795L11.8138 21.16L11.8647 21.1742L11.933 21.1842C11.962 21.1865 11.9894 21.1862 12.0162 21.1833L12.0559 21.1773L12.1067 21.164L12.3324 21.0831C15.6167 19.8788 17.7249 17.9095 18.7687 15.0727C19.3755 13.4235 19.6036 11.6608 19.6211 9.315L19.6222 9.0187L19.6192 8.45972L19.6115 7.90803L19.6017 7.36633L19.5952 7.20552L19.5857 6.87801L19.5827 6.70514C19.5738 6.10562 19.0987 5.61077 18.5001 5.57737C17.1982 5.50453 16.0575 5.25303 15.0105 4.80877C13.9662 4.36562 13.0387 3.74104 12.1735 2.89776ZM11.9664 7.11211C14.6552 7.11211 16.8432 9.30527 16.8432 12.0005C16.8432 14.6958 14.6552 16.889 11.9664 16.889C9.27752 16.889 7.08968 14.6958 7.08968 12.0005C7.08968 9.30522 9.27754 7.11211 11.9664 7.11211ZM11.9664 7.92591C9.72484 7.92591 7.90155 9.75354 7.90155 12.0005C7.90155 14.2474 9.72484 16.075 11.9664 16.075C14.2079 16.075 16.0312 14.2474 16.0312 12.0005C16.0312 9.75357 14.2079 7.92591 11.9664 7.92591ZM13.6032 10.5192C13.7462 10.4127 13.9432 10.4127 14.0862 10.5192L14.1317 10.5586L14.1716 10.605C14.267 10.7346 14.2767 10.9093 14.1973 11.0482L14.1634 11.0984L14.1242 11.1421L11.3562 13.9163L11.3069 13.9584C11.2377 14.0087 11.1549 14.0354 11.0692 14.0354C10.9962 14.0354 10.9251 14.016 10.8627 13.9791L10.8177 13.9481L10.7742 13.9087L9.72136 12.8529L9.68208 12.8073C9.56425 12.6481 9.57735 12.422 9.7214 12.2775C9.85283 12.1457 10.054 12.1223 10.2098 12.2117L10.2599 12.2457L10.3035 12.2851L11.0692 13.053L13.5577 10.5587L13.6032 10.5192Z" fill="#1F7CAF"/>
</g>
<defs>
<clipPath id="clip0_1833_3060">
<rect width="24" height="24" fill="white"/>
</clipPath>
</defs>
</svg>
