<svg width="24" height="24" viewBox="0 0 24 24" fill="none" xmlns="http://www.w3.org/2000/svg">
<path opacity="0.1" fill-rule="evenodd" clip-rule="evenodd" d="M2.56389 0L21.4361 0C22.3276 0 22.6509 0.0928256 22.9768 0.267133C23.3028 0.44144 23.5586 0.697228 23.7329 1.02315C23.9072 1.34908 24 1.67237 24 2.56389V21.4361C24 22.3276 23.9072 22.6509 23.7329 22.9768C23.5586 23.3028 23.3028 23.5586 22.9768 23.7329C22.6509 23.9072 22.3276 24 21.4361 24H2.56389C1.67237 24 1.34908 23.9072 1.02315 23.7329C0.697228 23.5586 0.44144 23.3028 0.267133 22.9768C0.0928256 22.6509 0 22.3276 0 21.4361L0 2.56389C0 1.67237 0.0928256 1.34908 0.267133 1.02315C0.44144 0.697228 0.697228 0.44144 1.02315 0.267133C1.34908 0.0928256 1.67237 0 2.56389 0Z" fill="#F469E6"/>
<path d="M5.66888 4C5.85199 4 6.00045 4.14845 6.00045 4.33156C6.00045 4.5006 5.87396 4.64009 5.71047 4.66055L5.66888 4.66314H4.08944C3.86969 4.66314 3.68878 4.8294 3.66564 5.04298L3.66314 5.08944V13.4734H15.8015V14.1365L19.5784 10.0726H18.9153V5.08944C18.9153 4.86969 18.749 4.68878 18.5354 4.66564L18.4889 4.66314H7.88353C7.70041 4.66314 7.55196 4.51469 7.55196 4.33156C7.55196 4.16253 7.67845 4.02304 7.84193 4.00258L7.88353 4H18.4889C19.0692 4 19.5434 4.45354 19.5766 5.02542L19.5784 5.08944V10.0726V16.125C19.5784 16.7052 19.1248 17.133 18.5529 17.1662L18.4889 17.168H17.7783C16.4185 17.168 17.2059 17.168 16.8379 17.168C16.8379 16.999 16.6744 16.5253 16.8379 16.5049H17.7783H18.4889C18.7087 16.5049 18.8897 16.3386 18.9128 16.125H19.5784V10.0726L15.8015 14.1365H3.66314V16.0785C3.66314 16.2983 3.8294 16.4792 4.04298 16.5023L4.08944 16.5049H16.8379C17.0211 16.5049 17.1695 16.6533 17.1695 16.8364C17.1695 17.0055 17.043 17.145 16.8795 17.1654L16.8379 17.168H13.8944V18.7785H14.7943C14.9513 18.7785 15.0786 18.9057 15.0786 19.0627V19.1574C15.0786 19.3144 14.9513 19.4416 14.7943 19.4416H7.78405C7.6271 19.4416 7.49985 19.3144 7.49985 19.1574V19.0627C7.49985 18.9057 7.6271 18.7785 7.78405 18.7785H8.68402V17.168H4.08944C3.50925 17.168 3.03498 16.7144 3.00185 16.1426L3 16.0785V5.08944C3 4.50925 3.45354 4.03498 4.02542 4.00185L4.08944 4H5.66888ZM13.2313 17.168H9.34716V18.7785H13.2313V17.168ZM11.9494 5.92298C12.1149 5.95744 12.2256 6.10971 12.2124 6.27394L12.2064 6.31518L11.0409 11.9113C11.0036 12.0905 10.828 12.2056 10.6487 12.1683C10.4832 12.1338 10.3724 11.9815 10.3857 11.8173L10.3917 11.7761L11.5572 6.17997C11.5945 6.0007 11.7701 5.88564 11.9494 5.92298ZM9.25004 6.87969C9.36957 6.99921 9.37877 7.18729 9.27762 7.31736L9.25004 7.34859L7.34092 9.25772L9.25004 11.1669C9.36957 11.2863 9.37877 11.4744 9.27762 11.6045L9.25004 11.6358C9.13052 11.7553 8.94245 11.7645 8.81237 11.6633L8.78114 11.6358L6.63756 9.49218C6.51803 9.37265 6.50884 9.18457 6.60997 9.0545L6.63756 9.02326C6.63756 9.02326 8.65165 7.00917 8.78114 6.87969C8.91063 6.7502 9.12056 6.7502 9.25004 6.87969ZM13.3284 6.87969C13.4471 6.76099 13.6333 6.7511 13.7633 6.85002L13.7973 6.87969L15.9408 9.02326L15.9684 9.0545C16.0604 9.17275 16.0611 9.33893 15.9707 9.45797L15.9408 9.49218L13.7973 11.6358L13.766 11.6633C13.6478 11.7553 13.4816 11.7561 13.3626 11.6656L13.3284 11.6358L13.3007 11.6045C13.2088 11.4863 13.2081 11.3201 13.2985 11.2011L13.3284 11.1669L15.2374 9.25772L13.3284 7.34859L13.3007 7.31736C13.1997 7.18729 13.2088 6.99921 13.3284 6.87969Z" fill="#DB56CD"/>
<path d="M20.9976 13.1624C20.9734 13.3398 20.9546 13.5145 20.9197 13.6865C20.8847 13.8693 20.7853 13.9231 20.6052 13.8774C20.3498 13.8129 20.1294 13.9929 20.1724 14.2456C20.1858 14.3182 20.2342 14.3935 20.2853 14.4526C20.3928 14.5763 20.3982 14.6892 20.2826 14.8021C20.0165 15.0574 19.7047 15.2375 19.3526 15.3423C19.1967 15.388 19.0919 15.3288 19.0489 15.173C19.0004 14.9955 18.8768 14.888 18.7156 14.8907C18.5596 14.8907 18.436 14.9955 18.3877 15.1676C18.3392 15.3369 18.2398 15.3907 18.0678 15.3396C17.7184 15.2348 17.4119 15.0547 17.1458 14.8021C17.0302 14.6919 17.0302 14.5763 17.1404 14.4634C17.2775 14.3262 17.3071 14.1784 17.2264 14.036C17.1458 13.8908 17.0006 13.8398 16.8071 13.8881C16.6539 13.9258 16.5518 13.8639 16.5142 13.7108C16.4281 13.3559 16.4254 13.0011 16.5115 12.6436C16.5518 12.4716 16.6512 12.4098 16.8205 12.4554C16.9926 12.5012 17.1431 12.4474 17.2237 12.3103C17.3071 12.1679 17.2802 12.0119 17.1485 11.8802C17.0302 11.762 17.0275 11.6491 17.1485 11.5335C17.4173 11.2755 17.7318 11.0927 18.0893 10.9905C18.2424 10.9475 18.3419 11.004 18.385 11.1572C18.4387 11.3507 18.5543 11.4475 18.7236 11.4448C18.8902 11.4448 19.0031 11.3427 19.0516 11.1572C19.0919 11.0067 19.194 10.9475 19.3472 10.9905C19.7074 11.0927 20.0192 11.2755 20.288 11.5335C20.4036 11.6437 20.4036 11.7647 20.288 11.8802C20.1563 12.0119 20.1294 12.1706 20.2127 12.3103C20.2961 12.4474 20.4439 12.5012 20.6159 12.4554C20.7826 12.4098 20.8874 12.4662 20.9197 12.6329C20.9546 12.8076 20.9734 12.9877 21.0003 13.1624H20.9976ZM17.5651 11.7109C17.7237 11.9905 17.7425 12.2565 17.5893 12.52C17.4361 12.7834 17.1915 12.8963 16.8904 12.9016V13.4339C17.2023 13.4392 17.4388 13.5548 17.592 13.8156C17.7452 14.079 17.7264 14.3451 17.5705 14.622L18.0301 14.8853C18.4199 14.3209 18.9628 14.3236 19.4144 14.8853L19.8713 14.6193C19.7558 14.4284 19.7182 14.2376 19.7611 14.0387C19.8311 13.7027 20.1052 13.4688 20.4493 13.4392C20.4842 13.4365 20.546 13.4097 20.546 13.3936C20.5541 13.2296 20.5514 13.0683 20.5514 12.9016C20.2369 12.8936 19.995 12.778 19.8445 12.5119C19.694 12.2485 19.7209 11.9797 19.8713 11.7082L19.409 11.4448C19.2424 11.7217 19.022 11.8695 18.7156 11.8668C18.4091 11.8668 18.1941 11.7082 18.0301 11.4421L17.5705 11.7109H17.5651Z" fill="#DB56CD"/>
<path d="M17.8032 13.1654C17.8032 12.6574 18.2172 12.2407 18.7225 12.2461C19.2252 12.2488 19.6364 12.6628 19.6338 13.1654C19.6338 13.668 19.2225 14.0793 18.7198 14.0793C18.2172 14.0793 17.8059 13.6707 17.8059 13.1681L17.8032 13.1654ZM18.2253 13.1601C18.2253 13.4342 18.4457 13.6546 18.7198 13.6546C18.9886 13.6546 19.209 13.4342 19.209 13.1654C19.209 12.8939 18.9859 12.6681 18.7144 12.6708C18.4457 12.6708 18.2279 12.8912 18.2253 13.1628V13.1601Z" fill="#DB56CD"/>
</svg>
