<svg fill="none" height="495" viewBox="0 0 945 495" width="945" xmlns="http://www.w3.org/2000/svg" xmlns:xlink="http://www.w3.org/1999/xlink"><clipPath id="clip0_4941_792"><path d="M0 0H945V495H0Z"/></clipPath><clipPath id="clip1_4941_792"><path d="M0 0H69.9699V77.2081H0Z" transform="matrix(-.9853 -.170832 -.170832 .9853 512.982 35.9891)"/></clipPath><g clip-path="url(#clip0_4941_792)"><path d="M0 0H945V495H0Z" fill="#f8f8f8"/><path d="M983.437 185.142C956.731 142.295 900.331 129.198 857.474 155.912 846.375 162.83 837.322 171.77 830.39 181.901 803.319 171.047 771.658 172.683 745.005 189.296 727.316 200.322 714.566 216.243 707.35 234.191 672.161 214.017 627.304 213.334 590.473 236.292 537.145 269.532 463.863 331.826 497.102 385.154 530.342 438.482 657.52 462.655 710.848 429.415 726.288 419.792 738.49 407.001 747.42 392.502 750.341 385.583 755.29 379.448 762.142 375.178 779.056 364.634 800.979 369.256 812.501 385.154 819.001 391.924 824.796 399.264 838.042 401.29 861.832 404.923 872.037 383.616 873.559 380.068 875.018 382.339 876.533 384.561 878.142 386.652 884.845 396.708 898.905 414.394 917.526 419.404 945.102 426.805 966.761 421.613 983.125 411.98 986.286 410.503 989.407 408.892 992.44 407.001 1033.07 381.677 1045.48 328.204 1020.15 287.565 1013.06 276.194 1003.73 267.139 993.134 260.422 1000.66 235.978 998.013 208.548 983.42 185.138L983.437 185.142Z" fill="#e3e3e3"/><path d="M664.307 181.751C661.081 186.574 660.673 192.753 663.238 197.958L673.903 219.611C676.468 224.817 681.614 228.259 687.405 228.642L710.987 230.198C717.044 230.598 722.819 227.587 725.958 222.391L738.725 201.267C741.537 196.612 741.834 190.859 739.515 185.94L729.818 165.369C727.301 160.029 722.086 156.476 716.196 156.087L692.297 154.51C686.507 154.127 680.952 156.863 677.726 161.687L664.307 181.751Z" fill="#ff7059"/><path d="M656.018 189.8C652.536 195.006 652.357 201.75 655.559 207.133L665.231 223.395C666.664 225.806 668.697 227.804 671.132 229.195L683.631 236.337C685.822 237.59 688.276 238.314 690.796 238.453L703.336 239.143C708.789 239.444 714.029 236.983 717.28 232.594L731.575 213.298C735.275 208.304 735.8 201.635 732.927 196.123L721.186 173.592C718.565 168.563 713.51 165.264 707.851 164.891L683.522 163.285C677.732 162.903 672.177 165.639 668.951 170.463L656.018 189.8Z" fill="#ff7059"/><path d="M644.69 166.805C641.157 171.41 640.35 177.549 642.571 182.91L651.811 205.209C654.033 210.57 658.945 214.338 664.699 215.095L688.13 218.177C694.149 218.969 700.107 216.338 703.576 211.357L717.685 191.105C720.794 186.642 721.463 180.921 719.468 175.861L711.125 154.705C708.959 149.214 703.985 145.329 698.133 144.56L674.387 141.436C668.633 140.68 662.913 143.05 659.381 147.654L644.69 166.805Z" fill="#e55041"/><path d="M-61.3645 193.119C-34.6578 150.273 21.7419 137.176 64.599 163.89 75.6977 170.807 84.7514 179.748 91.6834 189.879 118.754 179.024 150.415 180.661 177.068 197.274 194.757 208.3 207.507 224.221 214.723 242.169 249.912 221.995 294.769 221.312 331.6 244.27 384.928 277.51 401.214 347.691 367.974 401.019 334.734 454.348 264.553 470.633 211.225 437.393 195.785 427.77 183.583 414.979 174.653 400.48 171.732 393.561 166.783 387.426 159.931 383.155 143.017 372.612 121.094 377.234 109.572 393.132 103.072 399.902 97.2773 407.241 84.031 409.268 60.2413 412.901 50.0358 391.594 48.5145 388.046 47.0552 390.317 45.5396 392.539 43.9312 394.63 37.2276 404.686 23.168 422.372 4.54745 427.382-23.0294 434.783-44.6884 429.591-61.052 419.958-64.2131 418.481-67.334 416.87-70.3675 414.979-110.996 389.655-123.405 336.182-98.0738 295.543-90.9864 284.172-81.6528 275.117-71.0606 268.4-78.5849 243.956-75.9398 216.526-61.3476 193.116L-61.3645 193.119Z" fill="#e3e3e3"/><path d="M-338.193 341.363C-338.193 341.363-164.28 309.962 61.4548 313.912 231.611 316.89 479.672 399.493 733.186 325.215 986.699 250.937 1539 341.363 1539 341.363V761.383H-338.193V341.363Z" fill="#3d3d3d"/><path d="M284.939 298.377C281.713 303.201 281.305 309.379 283.87 314.585L294.535 336.238C297.1 341.444 302.247 344.886 308.037 345.268L332.122 346.858C337.912 347.24 343.467 344.504 346.693 339.68L360.112 319.617C363.338 314.793 363.746 308.615 361.182 303.409L350.516 281.756C347.952 276.55 342.805 273.108 337.014 272.726L312.929 271.136C307.139 270.754 301.584 273.49 298.358 278.314L284.939 298.377Z" fill="#ff7059"/><path d="M479.399 294.032C476.574 298.257 476.216 303.669 478.462 308.228L487.805 327.194C490.051 331.754 494.558 334.769 499.63 335.103L520.726 336.496C525.798 336.83 530.663 334.434 533.489 330.209L545.242 312.636C548.068 308.411 548.425 302.999 546.179 298.44L536.837 279.474C534.591 274.914 530.083 271.899 525.011 271.565L503.916 270.172C498.844 269.838 493.979 272.234 491.153 276.459L479.399 294.032Z" fill="#ff7059"/><path d="M214.869 302.723C210.948 308.585 210.453 316.094 213.569 322.421L226.532 348.736C229.648 355.062 235.903 359.246 242.94 359.71L272.211 361.642C279.248 362.107 285.999 358.781 289.92 352.919L306.228 328.536C310.149 322.674 310.644 315.165 307.528 308.838L294.565 282.523C291.449 276.196 285.194 272.013 278.157 271.548L248.886 269.617C241.849 269.152 235.098 272.477 231.178 278.34L214.869 302.723Z" fill="#e55041"/><path d="M522.339 329.036C519.89 332.698 519.58 337.388 521.527 341.34L529.624 357.777C531.57 361.729 535.477 364.342 539.873 364.632L558.156 365.839C562.552 366.129 566.768 364.052 569.217 360.39L579.404 345.16C581.853 341.498 582.163 336.808 580.216 332.856L572.119 316.419C570.173 312.467 566.266 309.854 561.87 309.564L543.587 308.357C539.191 308.067 534.975 310.144 532.526 313.806L522.339 329.036Z" fill="#e55041"/><path d="M537.795 174.123C537.795 173.365 537.262 172.712 536.519 172.56L471.185 159.195 460.843 188.513 537.795 187.04 537.795 174.123Z" fill="#95d1f9"/><rect fill="#e47b4c" height="7.19827" rx="3.59914" transform="matrix(.92250239 -.38599138 .38599138 .92250239 -25.611459 219.711331)" width="17.7219" x="534.351" y="173.637"/><path d="M509.992 175.042 516.488 175.385C517.943 175.461 519.06 176.704 518.984 178.159V178.159C518.907 179.614 517.665 180.731 516.209 180.655L509.713 180.312 509.992 175.042Z" fill="#e47b4c"/><path d="M409.706 420.197C409.706 420.197 405.407 430.27 405.407 438.448H474.248C474.248 430.78 441.073 427.297 441.073 420.197H409.706Z" fill="#000000"/><path d="M409.706 420.197H441.073C441.073 420.197 474.206 297.659 474.206 204.558H417.367L409.706 420.197Z" fill="#3d3d3d"/><path d="M480.001 185.338 432.528 142.87 475.426 106.752 502.966 177.28 480.001 185.338Z" fill="#95d1f9"/><path d="M414.481 202.363 413.21 141.669C414.653 126.028 421.389 111.347 432.315 100.062L448.665 84.8624 468.81 98.9451C474.988 104.123 478.709 111.661 479.057 119.711L483.207 214.548C483.564 222.614 475.8 228.586 468.095 226.176L422.599 214.548C417.36 212.909 413.971 207.83 414.475 202.361" fill="#95d1f9"/><path d="M481.932 182.796 481.932 187.183 456.004 198.405C442.617 201.427 432.845 201.499 428.576 189.514L431.15 198.529 428.48 189.178C428.275 188.592 424.256 169.439 424.093 168.834L419.214 140.037 447.813 95.7852 457.078 189.793 481.932 182.796Z" fill="#6aaed8"/><path d="M476.255 164.062 474.366 150.778C474.232 149.856 475.512 149.483 475.899 150.325L486.572 183.524 479.938 187.183 476.255 164.062Z" fill="#6aaed8"/><g clip-path="url(#clip1_4941_792)"><g fill="#e47b4c"><path d="M447.743 86.0023 452.998 55.6931C454.949 44.4397 465.656 36.8935 476.914 38.8452 488.171 40.797 495.713 51.5035 493.761 62.7607L491.73 74.4773C489.65 86.474 477.708 94.0869 465.955 90.9142"/><path d="M493.425 64.7026 494.97 69.1486C495.243 69.9462 495.005 70.8284 494.357 71.3738L491.907 73.4343 491.913 68.938 493.421 64.7019 493.428 64.7032 493.425 64.7026Z"/><path d="M447.742 86.0025 456.414 82.3761 465.949 90.9129 466.759 102.19C466.869 103.729 464.985 104.545 463.934 103.416L447.742 86.0025Z"/></g><path d="M453.499 53.506C456.371 43.4811 466.402 37.0229 476.913 38.8453 484.848 40.2211 490.938 45.9472 493.157 53.1497 493.189 53.2542 493.219 53.3582 493.25 53.4618 487.132 53.2206 484.756 47.888 484.624 47.5805 487.39 59.7634 469.832 61.8705 466.361 61.6303 465.87 62.2681 465.377 62.9381 464.874 63.621 461.196 68.6118 457.013 74.2881 449.987 73.0801L453.001 55.6938C453.129 54.9597 453.295 54.2293 453.499 53.506Z" fill="#000000"/><path d="M468.447 64.8619C468.866 62.4491 467.251 60.157 464.838 59.7387 462.425 59.3204 460.133 60.9351 459.715 63.3479 459.297 65.7607 460.911 68.0527 463.324 68.4711 465.737 68.8894 468.029 67.2747 468.447 64.8619Z" fill="#e47b4c"/><path d="M489.093 59.9532C488.783 59.8994 488.497 59.7037 488.339 59.3992 488.077 58.8883 488.277 58.2652 488.788 58.0037 488.878 57.9538 491.04 56.863 493.856 57.4858 494.416 57.606 494.774 58.1643 494.65 58.7237 494.522 59.2825 493.979 59.6423 493.412 59.5171 491.352 59.0599 489.75 59.8478 489.737 59.857 489.534 59.9604 489.306 59.9863 489.093 59.9494" fill="#000000"/><path d="M491.497 65.729C491.218 67.5388 490.818 68.9777 490.289 68.8976 489.761 68.8175 489.812 67.3259 490.087 65.5154 490.366 63.7056 490.766 62.2668 491.294 62.3469 491.823 62.427 491.772 63.9186 491.497 65.729Z" fill="#000000"/><path d="M479.004 75.4858C478.624 75.4745 478.377 75.1041 478.41 74.7597 478.442 74.3997 478.769 74.1295 479.129 74.1649 479.295 74.1822 479.464 74.2038 479.629 74.2323 482.792 74.7808 485.505 77.6403 485.817 80.7452 485.833 80.9211 485.78 81.0927 485.667 81.231 485.555 81.3692 485.398 81.4536 485.218 81.4723 485.158 81.4813 485.102 81.4753 485.038 81.4643 484.743 81.4132 484.52 81.1705 484.491 80.8731 484.239 78.3325 482.005 75.9909 479.395 75.5383 479.264 75.5156 479.138 75.4898 479.004 75.4858Z" fill="#000000"/><path d="M414.22 178.392 442.671 103.909 467.422 121.489 453.312 153.642 500.258 169.651 490.433 176.378 414.22 178.392Z" stroke="#000000" stroke-width=".797787"/></g><path d="M241.747 437.764C244.045 434.94 247.493 433.301 251.133 433.301H562.004C565.645 433.301 569.093 434.94 571.39 437.764L608.013 482.774C612.924 488.809 610.942 497.818 603.906 501.139 585.088 510.023 550.413 525.899 522.559 535.859 489.363 547.73 435.242 562.146 417.064 566.893 412.992 567.956 408.788 567.963 404.712 566.915 386.344 562.192 331.199 547.749 296.561 535.859 267.328 525.825 229.914 509.789 209.82 500.944 202.565 497.751 200.415 488.562 205.418 482.414L241.747 437.764Z" fill="#000000"/><path d="M206.068 351.971C205.513 350.895 205.897 349.592 206.971 349.034 217.249 343.695 266.847 318.056 300.428 302.905 333.102 288.164 383.331 268.612 395.988 263.721 397.431 263.163 398.956 264.241 398.95 265.788L398.165 469.999 248.786 433.222C248.169 433.07 247.647 432.659 247.356 432.093L206.068 351.971Z" fill="#e59a48"/><path d="M604.542 357.763C605.071 356.747 604.761 355.515 603.788 354.909 594.247 348.971 546.32 319.454 512.216 304.233 479.27 289.528 429.576 269.425 416.868 264.309 415.409 263.721 413.854 264.824 413.881 266.396L417.311 469.999 564.439 433.223C565.05 433.07 565.567 432.663 565.857 432.104L604.542 357.763Z" fill="#ffbd6e"/><path d="M398.416 261.022C398.416 261.022 337.224 286.107 298.866 302.817 265.42 317.388 216.634 340.342 204.685 345.983 203.14 346.712 202.422 348.495 203.013 350.098L210.132 369.412C210.757 371.11 212.633 371.987 214.337 371.379L399.08 305.471 398.416 261.022Z" fill="#824f36"/><rect fill="#3d3d3d" height="6.3823" rx="3.19115" transform="matrix(.99813155 -.06110167 .06110167 .99813155 -10.876006 21.779569)" width="407.07" x="350.677" y="188.722"/><path d="M417.557 139.921 450.135 89.575 459.878 162.438 459.878 183.402 427.284 172.823 417.557 139.921Z" fill="#95d1f9"/><path d="M496.75 169.331 426.963 165.144C424.892 182.581 440.054 194.7 457.532 189.58L497.609 182.316 496.75 169.331Z" fill="#95d1f9"/><path d="M414.56 262.054C414.56 262.054 474.085 287.139 512.227 303.849 545.481 318.419 593.989 341.372 605.872 347.014 607.411 347.745 608.126 349.521 607.54 351.121L600.471 370.411C599.844 372.122 597.948 373.001 596.237 372.374L414.56 305.84V262.054Z" fill="#824f36"/><path d="M398.164 257.787C398.164 252.5 402.451 248.214 407.738 248.214V248.214C413.025 248.214 417.311 252.5 417.311 257.787V469.999H398.164V257.787Z" fill="#ffbd6e"/><path d="M640.692 177.151C640.692 177.151 644.279 189.272 651.571 202.834M746.558 170.031C746.558 170.031 745.395 178.634 742.122 189.798M675.768 174.792C675.768 174.792 670.565 184.825 665.918 190.273 661.082 195.943 651.571 202.834 651.571 202.834M651.571 202.834C654.967 209.152 659.168 215.783 664.185 221.647M694.263 173.548C694.263 173.548 689.149 191.31 683.276 200.702 677.403 210.094 664.185 221.647 664.185 221.647M664.185 221.647C668.722 226.952 673.928 231.629 679.809 234.881M712.758 172.304C712.758 172.304 708.527 195.138 700.677 211.773 692.827 228.408 679.809 234.881 679.809 234.881M679.809 234.881C683.858 237.119 688.227 238.681 692.92 239.308M733.166 170.932C733.166 170.932 731.602 185.276 724.567 205.012 717.532 224.748 708.186 237.683 708.186 237.683M708.186 237.683C705.073 238.868 702.976 239.381 699.343 239.566 697.139 239.679 694.997 239.585 692.92 239.308M708.186 237.683C709.837 237.054 711.423 236.298 712.943 235.43M656.636 176.079C656.636 176.079 664.39 197.808 671.763 210.496 678.78 222.572 692.92 239.308 692.92 239.308M671.304 175.092C671.304 175.092 679.739 197.165 688.344 209.381 696.409 220.828 712.943 235.43 712.943 235.43M712.943 235.43C717.118 233.048 720.808 229.825 724.062 226.08M689.799 173.848C689.799 173.848 698.295 190.976 704.986 201.175 711.676 211.374 724.062 226.08 724.062 226.08M724.062 226.08C728.78 220.649 732.583 214.121 735.623 207.47M708.716 172.576C708.716 172.576 715.088 184.821 720.472 191.758 725.702 198.495 735.623 207.47 735.623 207.47M735.623 207.47C738.379 201.439 740.507 195.307 742.122 189.798M727.426 171.318C727.426 171.318 730.705 178.611 733.942 182.476 736.697 185.766 742.122 189.798 742.122 189.798" stroke="#3d3d3d" stroke-width="2.39336"/><path d="M866.465 414.163C866.465 455.746 960.479 501.917 1002.05 501.917 1043.62 501.917 1086.08 427.468 1086.08 385.886 1086.08 344.303 1072.16 378.15 1002.05 351.334 893.788 338.957 866.465 372.581 866.465 414.163Z" fill="#3d3d3d"/><path d="M533.869 176.372C534.963 173.901 537.363 172.263 540.063 172.145L551.568 171.642C554.996 171.492 557.672 174.57 557.047 177.944L556.527 180.748C555.923 184.011 553.141 186.423 549.825 186.559L538.977 187.004C534.371 187.193 531.165 182.482 533.031 178.266L533.869 176.372Z" fill="#e37b4c"/><path d="M786.747 302.366C783.521 307.19 783.113 313.368 785.678 318.574L796.344 340.227C798.908 345.432 804.055 348.875 809.845 349.257L833.93 350.846C839.721 351.229 845.275 348.493 848.501 343.669L861.92 323.606C865.146 318.782 865.554 312.604 862.99 307.398L852.324 285.745C849.76 280.539 844.613 277.097 838.823 276.715L814.738 275.125C808.947 274.743 803.393 277.479 800.166 282.303L786.747 302.366Z" fill="#ff7059"/><path d="M58.034 353.139C57.3492 358.754 53.7208 363.578 48.5156 365.792L26.8648 375.003C21.6596 377.218 15.6683 376.487 11.1479 373.087L-7.65459 358.942C-12.1751 355.542-14.5379 349.988-13.8532 344.373L-11.0049 321.017C-10.3201 315.402-6.69174 310.578-1.4865 308.364L20.1642 299.153C25.3694 296.938 31.3607 297.669 35.8812 301.069L54.6836 315.214C59.2041 318.615 61.567 324.169 60.8822 329.784L58.034 353.139Z" fill="#e45041"/><path d="M718.218 358.396C721.676 361.223 723.363 365.679 722.644 370.087L719.652 388.42C718.933 392.828 715.917 396.517 711.74 398.098L694.368 404.674C690.191 406.255 685.488 405.487 682.031 402.661L667.65 390.904C664.192 388.077 662.505 383.621 663.224 379.213L666.216 360.88C666.935 356.472 669.951 352.783 674.127 351.202L691.5 344.626C695.677 343.045 700.38 343.813 703.837 346.639L718.218 358.396Z" fill="#e55041"/><path d="M497.588 182.358 496.705 169.117 503.735 170.607C507.967 171.504 511.719 173.932 514.27 177.426L518.093 182.661C519.977 185.242 518.214 188.88 515.021 188.999L504.235 189.404C502.784 189.458 501.417 188.719 500.668 187.475L497.588 182.358Z" fill="#e47b4c"/><g fill="#3d3d3d"><path d="M727.65 394.543C727.65 345.011 767.804 304.857 817.336 304.857V304.857C866.868 304.857 907.022 345.011 907.022 394.543V404.165H727.65V394.543Z"/><path d="M604.791 461.557C604.791 412.025 644.945 371.871 694.477 371.871V371.871C744.009 371.871 784.163 412.025 784.163 461.557V471.179H604.791V461.557Z"/><path d="M-75.7209 424.859C-75.7209 375.326-35.5672 335.173 13.9649 335.173V335.173C63.497 335.173 103.651 375.327 103.651 424.859V434.481H-75.7209V424.859Z"/></g><path d="M848.152 489.392C843.598 494.589 836.617 496.962 829.839 495.616L801.647 490.019C794.869 488.673 789.324 483.814 787.101 477.271L777.852 450.058C775.628 443.515 777.064 436.283 781.618 431.086L800.562 409.47C805.116 404.273 812.097 401.9 818.875 403.246L847.067 408.843C853.845 410.189 859.39 415.048 861.613 421.591L870.862 448.804C873.086 455.347 871.65 462.579 867.096 467.776L848.152 489.392Z" fill="#ff7059"/><path d="M717.28 533.358C717.28 483.826 757.433 443.672 806.965 443.672V443.672C856.497 443.672 896.651 483.826 896.651 533.358V542.98H717.28V533.358Z" fill="#3d3d3d"/><path d="M140.604 382.312C144.166 386.707 145.112 392.668 143.087 397.95L134.664 419.919C132.639 425.201 127.95 429.001 122.363 429.888L99.1255 433.578C93.5388 434.465 87.9032 432.305 84.3415 427.91L69.5271 409.631C65.9654 405.236 65.0189 399.275 67.0439 393.993L75.4671 372.024C77.4922 366.742 82.1812 362.942 87.768 362.055L111.005 358.365C116.592 357.477 122.228 359.638 125.79 364.033L140.604 382.312Z" fill="#ff7059"/><path d="M13.6313 485.49C13.6313 435.958 53.785 395.805 103.317 395.805V395.805C152.849 395.805 193.003 435.958 193.003 485.49V495.112H13.6313V485.49Z" fill="#3d3d3d"/></g></svg>