<svg viewBox="0 0 945 495" xmlns="http://www.w3.org/2000/svg" xmlns:xlink="http://www.w3.org/1999/xlink"><clipPath id="clippath"><path d="M0 0H945V495H0Z"/></clipPath><g clip-path="url(#clippath)"><path d="M-5.55-10.42H955.75V507.88H-5.55Z" fill="#e2f1ff"/><circle cx="476.87" cy="440.78" fill="#3e5fff" r="422.87"/><path d="m120.12 478.68h331.64v20.67H120.12v-20.67Z" fill="#6aaed8"/><path d="m120.12 360.81h331.64v28.46H120.12v-28.46Z" fill="#6aaed8"/><path d="m95.07 400.06-.05 68.3c0 8.6 6.97 15.59 15.57 15.59l350.68.29c8.58 0 15.55-6.95 15.56-15.54l.05-68.33c0-4.1-1.27-8.12-3.65-11.47-3.71-5.22-9.72-8.33-16.12-8.33l-342.23-.29c-6.4 0-12.42 3.1-16.13 8.31-2.38 3.35-3.66 7.36-3.67 11.46h0Z" fill="#95d1f9"/><path d="m427.84 446.84c-7.13 0-12.91-5.78-12.91-12.92s5.78-12.92 12.91-12.92 12.92 5.78 12.92 12.92-5.78 12.92-12.92 12.92Z" fill="#e2f1ff"/><path d="m385.86 446.84c-7.13 0-12.92-5.78-12.92-12.92s5.78-12.92 12.92-12.92 12.92 5.78 12.92 12.92-5.78 12.92-12.92 12.92Z" fill="#6aadd7"/><path d="m120.12 242.71h331.64v20.67H120.12v-20.67Z" fill="#6aaed8"/><path d="m95.07 164.08-.05 68.3c0 8.6 6.97 15.59 15.57 15.59l350.68.29c8.58 0 15.55-6.95 15.56-15.54l.05-68.33c0-4.1-1.27-8.12-3.65-11.47-3.71-5.22-9.72-8.33-16.12-8.33l-342.23-.29c-6.4 0-12.42 3.1-16.13 8.31-2.38 3.35-3.66 7.36-3.67 11.46h0Z" fill="#95d1f9"/><path d="m95.07 282.18-.05 68.3c0 8.6 6.97 15.59 15.57 15.59l350.68.29c8.58 0 15.55-6.95 15.56-15.54l.05-68.33c0-4.11-1.27-8.12-3.65-11.47-3.71-5.22-9.72-8.33-16.12-8.33l-342.23-.29c-6.4 0-12.42 3.1-16.13 8.31-2.38 3.35-3.66 7.36-3.67 11.46h0Z" fill="#95d1f9"/><path d="m427.84 209.19c-7.13 0-12.91-5.78-12.91-12.92s5.78-12.92 12.91-12.92 12.92 5.78 12.92 12.92-5.78 12.92-12.92 12.92Z" fill="#e2f1ff"/><path d="m385.86 209.19c-7.13 0-12.92-5.78-12.92-12.92s5.78-12.92 12.92-12.92 12.92 5.78 12.92 12.92-5.78 12.92-12.92 12.92Z" fill="#6aadd7"/><path d="m427.84 327.3c-7.13 0-12.91-5.78-12.91-12.92s5.78-12.91 12.91-12.91 12.92 5.78 12.92 12.91-5.78 12.92-12.92 12.92Z" fill="#e2f1ff"/><path d="m385.86 327.3c-7.13 0-12.92-5.78-12.92-12.92s5.78-12.91 12.92-12.91 12.92 5.78 12.92 12.91-5.78 12.92-12.92 12.92Z" fill="#6aadd7"/><path d="m753.8 439.96c-.11 0-.11.11-.21.11-1.18.75-2.47 1.61-3.75 2.36 0 0-.11 0-.11.11-1.18.75-2.36 1.39-3.54 2.14l1.07-5.15c.32-1.5 1.39-2.36 2.57-2.57 1.72-.32 3.54.64 3.86 2.79l.11.21Z" fill="#ce8282"/><g fill="#ffffff"><path d="m460.45 344.57-52.75 96.07c-14.05 25.52 4.5 56.72 33.56 56.72h107.97l9.97-96.18-98.75-56.61Z"/><path d="m799.26 344.57 53.18 96.82c13.83 25.2-4.4 56.08-33.13 56.08h-108.83l-9.97-96.18 98.75-56.72Z"/><path d="m809.23 390.67c-.21.21-.43.54-.64.75-15.44 19.3-33.99 36.03-54.79 49.54-.11 0-.11.11-.21.11-1.18.75-2.47 1.61-3.75 2.36 0 0-.11 0-.11.11-1.18.75-2.36 1.39-3.54 2.14h0c-34.1 20.16-73.87 31.74-116.33 31.74-55.86 0-107.01-20.05-146.78-53.29-.75-.64-1.5-1.29-2.25-1.93-10.19-8.79-19.62-18.44-28.09-28.84-.75-.86-1.39-1.82-2.14-2.68l4.61-27.66c5.15-30.45 24.66-56.61 52.43-70.23l73.55-34.52h97.46l73.45 34.52c27.77 13.51 47.28 39.78 52.32 70.23l4.82 27.66Z"/></g><path d="m757.77 497.35h-255.61c-10.51 0-18.98-8.47-18.98-18.98v-148.71c0-10.51 8.47-18.98 18.98-18.98h255.72c10.51 0 18.98 8.47 18.98 18.98v148.71c-.11 10.51-8.58 18.98-19.09 18.98Z" fill="#e2e2e2"/><path d="m629.96 418.87c8.15 0 14.8-6.65 14.8-14.8s-6.65-14.8-14.8-14.8-14.8 6.65-14.8 14.8c0 8.15 6.65 14.8 14.8 14.8Z" fill="#bbbbbb"/><path d="m678.61 264.91c0 3.05-1.95 5.74-4.84 6.67l-4.9 1.58c-25.43 8.18-52.78 8.18-78.18 0l-4.86-1.58c-2.89-.93-4.84-3.62-4.84-6.64v-107.63h97.62v107.6Z" fill="#ffbc6e"/><path d="m588.76 161.74c0-7.36-5.94-13.28-13.27-13.28s-13.28 5.92-13.28 13.28 5.94 19.3 13.28 19.3 13.27-11.99 13.27-19.3Z" fill="#ffbc6e"/><path d="m697.23 161.74c0-7.36-5.94-13.28-13.28-13.28s-13.28 5.92-13.28 13.28 5.94 19.3 13.28 19.3 13.28-11.99 13.28-19.3Z" fill="#ffbc6e"/><path d="m629.71 223.33c-30.81 0-56.11-24.32-57.34-55.08l-1.95-31.14c-1.35-33.69 25.6-61.75 59.3-61.75s60.64 28.06 59.3 61.75l-1.95 31.14c-1.23 30.75-26.54 55.08-57.35 55.08h-.01Z"/><path d="m629.71 246.1c-30.81 0-56.11-24.32-57.34-55.08l-1.95-31.14c-1.35-33.69 25.6-61.75 59.3-61.75s60.64 28.06 59.3 61.75l-1.95 31.14c-1.23 30.75-26.54 55.08-57.35 55.08h-.01Z" fill="#ffbc6e"/><path d="m627.31 249.45c-2.43-.67-1.53-3.42.98-3.36.47.01.94.02 1.42.02h.01c20.62 0 38.77-10.89 48.9-27.31v21.15c-9.64 7.36-21.68 11.66-34.71 11.66-5.18 0-11.09-.62-16.6-2.15Z" fill="#e49948"/><path d="m611.16 188.26c0 4.74-.6 8.59-2.42 8.59s-2.42-3.84-2.42-8.59.6-8.59 2.42-8.59 2.42 3.84 2.42 8.59Z"/><path d="m614.4 169.56c.81-.63 1.32-1.59 1.31-2.68-.02-1.8-1.49-3.28-3.31-3.27-.35 0-8.04.1-15.1 6.01-1.41 1.17-1.59 3.23-.42 4.67 1.17 1.4 3.26 1.58 4.67.41 5.16-4.34 10.82-4.43 10.9-4.43.73-.01 1.4-.32 1.96-.72Z"/><path d="m645.44 175.61c-.81-.63-1.32-1.59-1.31-2.68.02-1.8 1.49-3.28 3.31-3.27.35 0 8.04.1 15.1 6.01 1.41 1.17 1.59 3.23.42 4.67-1.17 1.4-3.26 1.58-4.67.41-5.16-4.34-10.82-4.43-10.9-4.43-.73-.01-1.4-.32-1.96-.72Z"/><path d="m658.78 189.94c0 2.53-3.5.36-7.82.36s-7.83 2.17-7.83-.36 3.5-4.58 7.83-4.58 7.82 2.05 7.82 4.58Z"/><path d="m630.69 220.31c-1.13-.3-2.19.25-2.53 1.23-.37 1.02.18 2.17 1.21 2.53.47.16.96.32 1.45.45 9.32 2.5 20.32-1.88 25.09-9.95.26-.46.34-.99.2-1.51-.13-.52-.45-.95-.92-1.23-.15-.1-.31-.15-.5-.2-.87-.23-1.78.15-2.24.92-3.89 6.61-12.93 10.17-20.62 8.11-.38-.1-.78-.21-1.15-.37v.02s.02 0 .02 0Z"/><path d="m688.98 160.37v-26.12h-.05c0-32.75-26.58-59.33-59.35-59.33s-59.36 26.59-59.36 59.33v26.09c0 2.57 2.08 4.7 4.68 4.7s4.69-2.13 4.69-4.7c0-1.58.08-3.2.24-4.83 0-5.64 1.17-9.21 2.56-11.45 2.06-3.33 6.41-2.81 10.24-2.02 21.68 4.51 57.15-6.92 57.15-26.51 0 20.44 8.71 33.03 24.23 34.16 1.52.11 3.15.28 4.17 1.42.74.84 1.42 2.13 1.42 4.08v5.17c0 2.58 2.1 4.67 4.68 4.67s4.69-2.08 4.69-4.67Z" fill="#663c2b"/></g></svg>