<svg fill="none" height="495" viewBox="0 0 946 495" width="946" xmlns="http://www.w3.org/2000/svg" xmlns:xlink="http://www.w3.org/1999/xlink"><clipPath id="clip0_1233_608"><path d="M0 0H945.86V495H0Z"/></clipPath><g clip-path="url(#clip0_1233_608)"><path d="M0 0H945.86V495H0Z" fill="#95d1f9"/><rect fill="#f8f8f8" height="421.29" rx="25.135" width="748.961" x="98.2708" y="116.695"/><path d="M98.2708 141.83C98.2708 127.948 109.524 116.695 123.406 116.695H822.096C835.978 116.695 847.232 127.948 847.232 141.83V164.214H98.2708L98.2708 141.83Z" fill="#4680e1"/><circle cx="132.354" cy="140.454" fill="#306dc6" r="11.331"/><circle cx="166.268" cy="140.454" fill="#306dc6" r="11.331"/><path d="M634.096 575.398H330.066V545.198L310.646 542.557C273.407 537.492 249.618 500.213 260.714 464.305V464.305C261.887 460.509 262.685 456.607 263.097 452.655L279.087 299.358C290.19 270.945 310.37 246.965 336.461 231.176L402.51 191.154H537.312L603.361 231.176C629.452 246.965 649.632 270.945 660.735 299.358L719.776 450.307C719.945 450.729 720.093 451.13 720.262 451.552 742.996 511.396 698.119 575.398 634.117 575.398H634.096Z" fill="#4680e1"/><path d="M305.894 575.398H609.923V545.198L642.639 540.748C677.475 536.011 705.793 510.301 713.864 476.083V476.083C717.823 459.297 716.579 441.704 710.297 425.643L660.902 299.358C649.799 270.945 629.619 246.965 603.529 231.176L537.479 191.154H402.677L336.628 231.176C310.537 246.965 290.357 270.945 279.254 299.358L220.213 450.307C220.044 450.729 219.896 451.13 219.727 451.552 196.993 511.396 241.871 575.398 305.873 575.398H305.894Z" fill="#4680e1"/><path d="M96.6237-39.7753H842.011L504.781 459.896C501.39 464.921 495.724 467.932 489.663 467.932H447.925C441.238 467.932 434.99 464.6 431.264 459.046L96.6237-39.7753Z" fill="#ff7059"/><path clip-rule="evenodd" d="M736.409 116.695 504.781 459.896C501.39 464.921 495.724 467.932 489.663 467.932H447.925C441.238 467.932 434.99 464.6 431.264 459.046L201.593 116.695H736.409Z" fill="#e3e3e3" fill-rule="evenodd"/><path clip-rule="evenodd" d="M233.472 164.214 201.593 116.695H736.409L704.338 164.214H233.472Z" fill="#000000" fill-rule="evenodd"/><path clip-rule="evenodd" d="M638.587 261.636 504.781 459.896C501.39 464.921 495.724 467.932 489.663 467.932H447.925C441.238 467.932 434.99 464.6 431.264 459.046L299.918 263.259C310.051 250.578 322.397 239.687 336.461 231.176L402.51 191.154H537.312L603.361 231.176C616.821 239.322 628.708 249.647 638.587 261.636Z" fill="#3d3d3d" fill-rule="evenodd"/><path d="M546.562 128.58 555.988 190.458C561.457 226.338 536.805 259.897 500.925 265.366L440.228 274.626C404.349 280.095 370.789 255.443 365.3 219.564L355.605 156.008C348.644 110.475 365.238 64.486 399.667 33.8682L408.243 26.2449C420.652 15.2241 438.26 12.3653 453.507 18.8908L465.647 24.0904C508.88 42.6103 539.457 82.0944 546.541 128.58H546.562Z" fill="#000000"/><path d="M536.287 243.159 473.021 272.451 403.272 259.276 400.806 138.856 502.065 123.402 536.308 243.159H536.287Z" fill="#f4c9b8"/><path d="M462.809 205.664C427.799 211.008 398.776 197.605 392.292 164.129L381.997 111.097C374.891 74.4713 399.688 39.2961 436.541 33.6821 473.394 28.0474 507.554 54.2321 511.718 91.2925L517.705 144.988C521.496 178.858 497.797 200.34 462.809 205.664Z" fill="#f4c9b8"/><path d="M511.345 88.5994C511.49 89.4902 511.594 90.381 511.718 91.2924L512.07 94.4619 517.705 144.967C518.078 148.157 518.181 151.202 518.078 154.165L438.033 137.074C423.304 133.925 408.14 139.684 399.211 151.824L391.816 161.871 381.976 111.117C381.769 110.061 381.582 108.984 381.416 107.948 376.3 72.4826 400.744 39.1718 436.52 33.7028 472.317 28.2339 505.876 52.9891 511.325 88.6201H511.345V88.5994Z" fill="#cea193"/><path d="M400.765 125.432C399.543 117.415 392.044 111.905 384.006 113.127 375.989 114.349 370.479 121.827 371.701 129.865 372.923 137.882 381.437 149.98 389.454 148.758 397.492 147.536 401.987 133.428 400.765 125.411V125.432Z" fill="#cea193"/><path d="M527.11 106.125C525.888 98.1079 518.389 92.5975 510.351 93.8197 502.334 95.042 496.824 102.52 498.046 110.558 499.268 118.575 507.782 130.673 515.799 129.451 523.816 128.229 528.332 114.121 527.11 106.104V106.125Z" fill="#cea193"/><g fill="#000000"><path d="M451.767 154.082C451.145 154.185 450.524 153.978 450.089 153.481 449.385 152.735 449.467 151.534 450.234 150.829 451.125 150.022 472.69 130.88 490.464 132.04 491.5 132.102 492.287 132.993 492.204 134.029 492.121 135.065 491.251 135.852 490.215 135.769 474.015 134.733 452.927 153.44 452.72 153.626 452.43 153.875 452.098 154.02 451.746 154.082H451.767Z"/><path d="M468.236 108.176C470.349 112.982 471.343 117.187 469.147 118.119 467.014 119.072 464.569 115.488 462.477 110.682 460.364 105.876 466.144 103.37 468.215 108.176H468.236V108.176Z"/><path d="M421.771 115.281C423.884 120.087 424.878 124.293 422.703 125.225 420.528 126.178 418.104 122.594 416.012 117.788 413.899 112.982 419.678 110.475 421.75 115.281H421.771Z"/><path d="M414.292 120.937C411.827 121.309 409.383 121.662 406.918 121.993 404.349 122.304 401.987 120.481 401.656 117.933 401.345 115.364 403.126 112.982 405.716 112.671 440.456 108.196 476.543 97.1136 476.895 97.01 479.381 96.2642 481.991 97.6315 482.779 100.117 483.545 102.583 482.157 105.213 479.692 105.959 479.34 106.083 447.396 115.882 414.292 120.916V120.937Z"/></g><path d="M463.306 204.338C459.307 204.959 455.371 205.312 451.58 205.436 449.136 205.498 448.639 208.916 450.959 209.662 465.17 214.219 492.411 217.451 522.573 195.182L515.199 169.349C507.679 188.408 488.392 200.547 463.285 204.379L463.306 204.338Z" fill="#cea193"/><path d="M558.722 212.272C558.743 209.703 558.577 207.135 558.163 204.566L546.562 128.581C539.477 82.0947 508.88 42.5899 465.667 24.0701H465.646L453.507 18.8704C438.302 12.345 420.652 15.2037 408.243 26.2245L399.667 33.8686C398.051 35.3187 396.456 36.7895 394.902 38.3017 393.349 39.814 391.857 41.3469 390.386 42.9421 388.916 44.5164 387.486 46.1323 386.119 47.7481 384.731 49.3846 383.384 51.0626 382.1 52.7406 380.795 54.4393 379.552 56.1587 378.33 57.8988 375.885 61.3997 373.648 64.9835 371.576 68.6917 370.52 70.5354 369.526 72.3998 368.593 74.2849 367.64 76.17 366.729 78.0759 365.88 79.9817 358.111 97.3415 354.03 116.276 354.051 135.541 354.051 137.986 354.113 140.409 354.258 142.833 354.258 143.227 354.3 143.62 354.32 144.035 354.486 146.603 354.734 149.214 355.045 151.782 355.211 153.17 355.397 154.558 355.625 155.946L362.358 199.615 365.983 223.044 367.599 233.63C370.437 252.191 383.716 267.479 401.718 272.824L402.07 272.928 448.307 286.724 448.452 286.766 452.368 287.947C466.268 292.09 481.307 289.79 493.343 281.69L500.863 276.636 503.825 274.647 518.699 264.641 537.302 252.129C540.989 249.643 544.242 246.702 547.059 243.429 554.475 234.79 558.639 223.728 558.743 212.21L558.722 212.272ZM368.283 150.767C367.413 145.174 368.863 139.456 372.177 134.858L372.819 133.988 383.571 119.383 388.17 113.106 392.396 107.368C401.303 95.2492 416.509 89.4488 431.217 92.6183L466.123 100.076 482.467 103.556 496.948 106.664C497.279 106.746 497.59 106.809 497.921 106.891 504.24 108.424 509.895 111.573 514.411 115.861 517.394 118.679 519.88 121.972 521.765 125.66 523.547 129.099 524.79 132.869 525.411 136.846L532.144 180.971C533.117 187.268 531.211 193.69 526.965 198.434L524.313 201.396 509.791 217.72 499.993 228.72 491.52 238.25 488.599 241.523C487.729 242.496 486.818 243.429 485.886 244.299 478.842 250.762 469.831 254.221 460.654 254.366 457.816 254.387 454.936 254.139 452.119 253.538 451.87 253.496 451.622 253.434 451.394 253.372 447.686 252.523 444.04 251.093 440.622 249.084L402.567 226.649 386.326 217.078C380.795 213.805 377.025 208.253 376.051 201.894L375.347 197.274 368.262 150.788 368.283 150.767Z" fill="#3d3d3d"/><path d="M615.914 239.721 530.093 250.679C528.27 250.948 527.11 249.519 527.11 248.069 527.11 247.178 527.566 246.267 528.602 245.79 529.871 245.19 532.38 244.14 535.484 242.881 551.136 236.532 560.597 220.4 558.026 203.706V203.706C558.026 203.706 571.961 212.158 588.721 222.196 605.481 232.234 615.914 239.721 615.914 239.721Z" fill="#000000"/><path d="M490.733 329.988H444.737C435.317 329.988 427.681 337.624 427.681 347.044V451.216C427.681 460.636 435.317 468.272 444.737 468.272H490.733C500.153 468.272 507.789 460.636 507.789 451.216V347.044C507.789 337.624 500.153 329.988 490.733 329.988Z" fill="#ffffff"/><path d="M515.685 403.185H449.424C444.801 403.185 441.761 407.998 443.724 412.178L451.239 428.094C453.688 433.266 457.909 437.403 463.144 439.725L511.104 460.981C512.539 461.615 514.122 461.952 515.706 461.952 521.954 461.952 527.041 456.886 527.041 450.617V414.5C527.041 408.251 521.975 403.164 515.706 403.164" fill="#f4c9b8"/></g></svg>