<svg fill="none" height="495" viewBox="0 0 945 495" width="945" xmlns="http://www.w3.org/2000/svg" xmlns:xlink="http://www.w3.org/1999/xlink"><clipPath id="clip0_2262_175"><path d="M0 0H945V495H0Z"/></clipPath><clipPath id="clip1_2262_175"><path d="M-75-39H1129.85V769.7H-75Z"/></clipPath><g clip-path="url(#clip0_2262_175)"><path d="M0 0H945V495H0Z" fill="#3e5fff"/><g clip-path="url(#clip1_2262_175)"><path d="M1001.76-39H-40.6177V530.884H1001.76V-39Z" fill="#e2f1ff"/><path d="M574.992 776.983C782.646 776.983 950.983 608.646 950.983 400.992 950.983 193.337 782.646 25 574.992 25 367.337 25 199 193.337 199 400.992 199 608.646 367.337 776.983 574.992 776.983Z" fill="#95d1f9"/><path d="M109.766 317.249 190.924 340.349 132.438 387.084 94.7143 339.872C86.0488 329.026 96.4095 313.447 109.758 317.249H109.766Z" fill="#ffbd6e"/><path d="M241.732 278.711 199.161 351.566 273.72 344.793 268.255 284.612C266.996 270.786 248.735 266.721 241.732 278.703V278.711Z" fill="#e59a48"/><path d="M224.467 524.3C279.615 524.3 324.322 479.594 324.322 424.445 324.322 369.297 279.615 324.59 224.467 324.59 169.318 324.59 124.612 369.297 124.612 424.445 124.612 479.594 169.318 524.3 224.467 524.3Z" fill="#ffbd6e"/><path d="M272.715 440.78 279.76 428.691C283.298 422.618 278.246 415.146 271.292 416.166L257.401 418.215C250.447 419.236 247.764 427.852 252.899 432.65L263.128 442.196C266.033 444.911 270.716 444.22 272.715 440.78Z" fill="#000000"/><path d="M177.411 478.619 202.173 462.111" stroke="#e49948" stroke-linecap="round" stroke-miterlimit="10" stroke-width="9.80941"/><path d="M309.032 425.309 333.136 411.467" stroke="#000000" stroke-linecap="round" stroke-miterlimit="10" stroke-width="8.77251"/><path d="M312.505 443.389 340.221 441.389" stroke="#000000" stroke-linecap="round" stroke-miterlimit="10" stroke-width="8.77251"/><path d="M162.368 448.491 197.697 443.99" stroke="#000000" stroke-linecap="round" stroke-miterlimit="10" stroke-width="8.77251"/><path d="M593.562 81.9882C667.635 81.9882 727.775 142.128 727.775 216.201V415.434C727.775 422.412 722.105 428.082 715.126 428.082H471.99C465.011 428.082 459.341 422.412 459.341 415.434V216.201C459.341 142.128 519.481 81.9882 593.554 81.9882H593.562Z" fill="#ffffff"/><path d="M715.447 428.074H476.508V459.823H715.447V428.074Z" fill="#e3e3e3"/><path d="M593.562 317.776C649.833 317.776 695.45 272.159 695.45 215.888 695.45 159.617 649.833 114 593.562 114 537.291 114 491.674 159.617 491.674 215.888 491.674 272.159 537.291 317.776 593.562 317.776Z" fill="#3d3d3d"/><path d="M594.072 280.876C631.886 280.876 662.541 250.221 662.541 212.407 662.541 174.593 631.886 143.939 594.072 143.939 556.258 143.939 525.604 174.593 525.604 212.407 525.604 250.221 556.258 280.876 594.072 280.876Z" fill="#000000"/><path d="M700.519 417.919C707.205 417.919 712.625 412.499 712.625 405.814 712.625 399.128 707.205 393.708 700.519 393.708 693.834 393.708 688.414 399.128 688.414 405.814 688.414 412.499 693.834 417.919 700.519 417.919Z" fill="#ffbd6e"/><path d="M669.684 417.919C676.369 417.919 681.789 412.499 681.789 405.814 681.789 399.128 676.369 393.708 669.684 393.708 662.998 393.708 657.578 399.128 657.578 405.814 657.578 412.499 662.998 417.919 669.684 417.919Z" fill="#3e5fff"/><path d="M595.175 245.794C613.614 245.794 628.562 230.846 628.562 212.407 628.562 193.968 613.614 179.021 595.175 179.021 576.736 179.021 561.789 193.968 561.789 212.407 561.789 230.846 576.736 245.794 595.175 245.794Z" fill="#3e5fff"/><path d="M614.86 204.277C625.29 204.277 633.746 195.821 633.746 185.39 633.746 174.96 625.29 166.504 614.86 166.504 604.429 166.504 595.973 174.96 595.973 185.39 595.973 195.821 604.429 204.277 614.86 204.277Z" fill="#f8f8f8"/><path d="M386.091 469.024C394.341 469.024 401.028 462.336 401.028 454.087 401.028 445.838 394.341 439.151 386.091 439.151 377.842 439.151 371.155 445.838 371.155 454.087 371.155 462.336 377.842 469.024 386.091 469.024Z" fill="#e49948"/><path d="M412.598 472.291C404.698 474.652 396.378 470.151 394.016 462.251 391.654 454.351 396.156 446.031 404.056 443.669" fill="#e49948"/><path d="M1113.16 457.478H-58.3191C-67.5317 457.478-75 464.946-75 474.159V514.211C-75 523.424-67.5317 530.892-58.3191 530.892H1113.16C1122.38 530.892 1129.85 523.424 1129.85 514.211V474.159C1129.85 464.946 1122.38 457.478 1113.16 457.478Z" fill="#3e5fff"/><g fill="#ffbd6e"><path d="M362.111 465.781C370.36 465.781 377.047 459.094 377.047 450.845 377.047 442.596 370.36 435.909 362.111 435.909 353.862 435.909 347.175 442.596 347.175 450.845 347.175 459.094 353.862 465.781 362.111 465.781Z"/><path d="M382.487 465.781C390.736 465.781 397.423 459.094 397.423 450.845 397.423 442.596 390.736 435.909 382.487 435.909 374.238 435.909 367.551 442.596 367.551 450.845 367.551 459.094 374.238 465.781 382.487 465.781Z"/><path d="M404.023 465.781C412.272 465.781 418.96 459.094 418.96 450.845 418.96 442.596 412.272 435.909 404.023 435.909 395.774 435.909 389.087 442.596 389.087 450.845 389.087 459.094 395.774 465.781 404.023 465.781Z"/><path d="M60.3566 463.749C68.6057 463.749 75.2929 457.061 75.2929 448.812 75.2929 440.563 68.6057 433.876 60.3566 433.876 52.1075 433.876 45.4203 440.563 45.4203 448.812 45.4203 457.061 52.1075 463.749 60.3566 463.749Z"/><path d="M80.7326 463.749C88.9817 463.749 95.6689 457.061 95.6689 448.812 95.6689 440.563 88.9817 433.876 80.7326 433.876 72.4835 433.876 65.7963 440.563 65.7963 448.812 65.7963 457.061 72.4835 463.749 80.7326 463.749Z"/><path d="M102.269 463.749C110.518 463.749 117.205 457.061 117.205 448.812 117.205 440.563 110.518 433.876 102.269 433.876 94.0199 433.876 87.3326 440.563 87.3326 448.812 87.3326 457.061 94.0199 463.749 102.269 463.749Z"/></g><path d="M192.002 400.267C191.887 400.292 182.777 402.514 176.037 411.402 174.185 413.813 170.754 414.282 168.351 412.447 165.931 410.562 165.47 407.163 167.322 404.76 176.555 392.639 188.916 389.668 189.492 389.536 192.43 388.853 195.343 390.705 196.034 393.601 196.446 395.346 195.977 397.091 194.899 398.399 194.142 399.247 193.17 399.987 192.002 400.275V400.267Z" fill="#000000"/><path d="M312.011 385.742C311.928 385.652 305.658 378.682 294.639 376.97 291.643 376.484 289.602 373.686 290.071 370.699 290.581 367.679 293.355 365.663 296.35 366.148 311.402 368.527 319.878 377.999 320.273 378.435 322.273 380.698 322.018 384.138 319.804 386.121 318.471 387.314 316.701 387.726 315.039 387.397 313.936 387.133 312.825 386.631 312.011 385.734V385.742Z" fill="#000000"/><path d="M201.145 430.239C205.69 430.239 209.374 426.554 209.374 422.009 209.374 417.464 205.69 413.78 201.145 413.78 196.6 413.78 192.915 417.464 192.915 422.009 192.915 426.554 196.6 430.239 201.145 430.239Z" fill="#000000"/><path d="M298.852 408.875C303.397 408.875 307.081 405.191 307.081 400.646 307.081 396.101 303.397 392.416 298.852 392.416 294.307 392.416 290.623 396.101 290.623 400.646 290.623 405.191 294.307 408.875 298.852 408.875Z" fill="#000000"/></g></g></svg>