<svg width="16" height="16" viewBox="0 0 16 16" fill="none" xmlns="http://www.w3.org/2000/svg"><g clip-path="url(#clip0_16054_20808)"><g clip-path="url(#clip1_16054_20808)"><path d="M15.665 4.665c-.183-.655-.726-1.171-1.414-1.347C13.004 3 8 3 8 3s-5.004 0-6.25.318C1.06 3.494.517 4.01.334 4.665 0 5.855 0 8.333 0 8.333s0 2.48.335 3.668c.183.656.726 1.172 1.414 1.347 1.248.319 6.251.319 6.251.319s5.004 0 6.25-.319c.69-.175 1.232-.691 1.415-1.347C16 10.813 16 8.333 16 8.333s0-2.479-.335-3.668Z" fill="red"/><path d="m6.364 10.585 4.182-2.252-4.182-2.25v4.502Z" fill="#fff"/></g></g><defs><clipPath id="clip0_16054_20808"><path fill="#fff" d="M0 0h16v16H0z"/></clipPath><clipPath id="clip1_16054_20808"><path fill="#fff" transform="translate(0 3)" d="M0 0h16v10.667H0z"/></clipPath></defs></svg>