<svg width="16" height="16" viewBox="0 0 16 16" fill="none" xmlns="http://www.w3.org/2000/svg"><g clip-path="url(#clip0_16052_20793)"><path d="M16 8a8 8 0 1 0-9.932 7.764v-5.32h-1.65V8h1.65V6.947c0-2.723 1.232-3.985 3.905-3.985.507 0 1.382.1 1.74.198v2.216c-.19-.02-.518-.03-.925-.03-1.312 0-1.818.498-1.818 1.79V8h2.613l-.45 2.445H8.97v5.496A8 8 0 0 0 16 8Z" fill="#0866FF"/><path d="M11.133 10.445 11.583 8H8.968v-.865c0-1.291.507-1.788 1.819-1.788.407 0 .735.01.924.03V3.16c-.358-.1-1.232-.198-1.74-.198-2.672 0-3.905 1.262-3.905 3.985V8h-1.65v2.445h1.65v5.32a8.014 8.014 0 0 0 2.902.176v-5.496h2.164Z" fill="#fff"/></g><defs><clipPath id="clip0_16052_20793"><path fill="#fff" d="M0 0h16v16H0z"/></clipPath></defs></svg>