<svg width="16" height="16" viewBox="0 0 16 16" fill="none" xmlns="http://www.w3.org/2000/svg"><g clip-path="url(#clip0_16059_20845)"><path d="M8 16A8 8 0 1 0 8 0a8 8 0 0 0 0 16Z" fill="#000"/><path d="M6.938 6.856v-.434a3.293 3.293 0 0 0-.444-.033 3.292 3.292 0 0 0-1.888 5.991 3.272 3.272 0 0 1-.873-2.242 3.28 3.28 0 0 1 3.205-3.282Z" fill="#25F4EE"/><path d="M7.016 11.652c.81 0 1.48-.654 1.51-1.457l.008-7.163h1.299l-.002-.01a2.499 2.499 0 0 1-.042-.454h-1.79l-.003 7.173a1.505 1.505 0 0 1-2.2 1.274 1.51 1.51 0 0 0 1.22.637Zm5.262-6.174v-.42c-.5 0-.965-.149-1.356-.404.348.4.82.709 1.356.824Z" fill="#25F4EE"/><path d="M10.922 4.654a2.48 2.48 0 0 1-.612-1.632h-.488c.127.682.54 1.267 1.1 1.632ZM6.494 8.166c-.83 0-1.514.688-1.514 1.518 0 .577.337 1.08.816 1.331a1.495 1.495 0 0 1-.285-.877c0-.83.675-1.505 1.505-1.505.155 0 .303.026.444.07V6.876a3.293 3.293 0 0 0-.444-.033l-.078.002h-.007L6.926 8.23a1.403 1.403 0 0 0-.432-.064Z" fill="#FE2C55"/><path d="m12.278 5.457-.008-.002v1.382a4.27 4.27 0 0 1-2.493-.81v3.657a3.281 3.281 0 0 1-3.283 3.285 3.266 3.266 0 0 1-1.888-.588 3.285 3.285 0 0 0 2.41 1.051 3.298 3.298 0 0 0 3.294-3.294V6.5c.702.504 1.562.8 2.49.8V5.513a2.49 2.49 0 0 1-.522-.055Z" fill="#FE2C55"/><path d="M9.788 9.684V6.047c.702.503 1.562.8 2.49.8v-1.39a2.492 2.492 0 0 1-1.356-.802A2.494 2.494 0 0 1 9.83 3.022H8.52l-.003 7.173a1.502 1.502 0 0 1-2.721.82 1.505 1.505 0 0 1 .698-2.836c.155 0 .303.026.444.07V6.846a3.297 3.297 0 0 0-3.217 3.292c0 .866.337 1.655.885 2.243a3.273 3.273 0 0 0 1.888.597 3.298 3.298 0 0 0 3.294-3.294Z" fill="#fff"/></g><defs><clipPath id="clip0_16059_20845"><path fill="#fff" d="M0 0h16v16H0z"/></clipPath></defs></svg>