<svg width="16" height="16" viewBox="0 0 16 16" fill="none" xmlns="http://www.w3.org/2000/svg"><mask id="mask0_16246_176" style="mask-type:luminance" maskUnits="userSpaceOnUse" x="1" y="1" width="14" height="14"><path d="M8 2.261c1.87 0 2.09.007 2.829.04.682.032 1.053.146 1.3.242.326.127.56.278.805.523.244.245.396.478.523.805.096.247.21.618.241 1.3.034.738.04.96.04 2.829 0 1.869-.006 2.09-.04 2.828-.031.683-.145 1.054-.241 1.3a2.17 2.17 0 0 1-.524.805 2.166 2.166 0 0 1-.804.524c-.247.096-.618.21-1.3.24-.738.034-.96.041-2.829.041-1.87 0-2.09-.007-2.829-.04-.682-.031-1.053-.145-1.3-.241a2.17 2.17 0 0 1-.804-.524 2.166 2.166 0 0 1-.524-.805c-.096-.246-.21-.617-.24-1.3-.035-.738-.042-.96-.042-2.828 0-1.87.007-2.09.041-2.829.031-.682.145-1.053.241-1.3.127-.327.279-.56.524-.805s.478-.396.805-.523c.246-.096.617-.21 1.3-.241.738-.034.959-.04 2.828-.04ZM8 1c-1.901 0-2.14.008-2.886.042-.745.034-1.254.152-1.7.325-.46.18-.85.419-1.239.808-.39.39-.629.78-.807 1.24-.174.445-.292.954-.326 1.699C1.008 5.86 1 6.099 1 8c0 1.901.008 2.14.042 2.886.034.745.152 1.254.325 1.7.18.46.419.85.808 1.239.39.39.78.629 1.24.808.445.173.954.291 1.699.325.746.034.985.042 2.886.042 1.901 0 2.14-.008 2.886-.042.745-.034 1.254-.152 1.7-.325.46-.18.85-.419 1.239-.808.39-.39.629-.78.808-1.24.173-.445.291-.954.325-1.699C14.992 10.14 15 9.901 15 8c0-1.901-.008-2.14-.042-2.886-.034-.745-.152-1.254-.325-1.7a3.432 3.432 0 0 0-.808-1.239c-.39-.39-.78-.629-1.24-.807-.445-.174-.954-.292-1.699-.326C10.14 1.008 9.901 1 8 1Zm0 3.405a3.594 3.594 0 1 0 0 7.19 3.594 3.594 0 0 0 0-7.19Zm0 5.929a2.333 2.333 0 1 1 0-4.667 2.333 2.333 0 0 1 0 4.667Zm3.737-6.91a.84.84 0 1 0 0 1.68.84.84 0 0 0 0-1.68Z" fill="#fff"/></mask><g mask="url(#mask0_16246_176)"><path fill="#EA424A" d="M-2.688-2.939h21.841v21.841H-2.688z"/><mask id="mask1_16246_176" style="mask-type:alpha" maskUnits="userSpaceOnUse" x="-3" y="-3" width="23" height="22"><path fill="#EA424A" d="M-2.688-2.939h21.841v21.841H-2.688z"/></mask><g mask="url(#mask1_16246_176)"><circle cx="5.857" cy="15.34" r="11.207" fill="url(#paint0_radial_16246_176)"/><circle cx="18.405" cy="12.97" r="6.914" fill="url(#paint1_radial_16246_176)"/><circle cx="11.066" cy="1.949" r="5.436" fill="url(#paint2_radial_16246_176)"/><circle cx="8.672" cy="2.877" r="6.958" fill="url(#paint3_radial_16246_176)"/><circle cx="9.781" cy="3.939" r="6.545" fill="url(#paint4_radial_16246_176)"/><circle cx="7.774" cy=".489" r="6.545" fill="url(#paint5_radial_16246_176)"/><circle cx="1.01" cy="3.358" r="6.545" fill="url(#paint6_radial_16246_176)"/><circle cx="-.497" cy="3.148" r="6.92" fill="url(#paint7_radial_16246_176)"/><circle cx="2.246" cy="2.334" r="4.175" fill="url(#paint8_radial_16246_176)"/><circle cx="2.468" cy="-.203" r="4.175" fill="url(#paint9_radial_16246_176)"/><circle cx="15.505" cy=".729" r="5.436" fill="url(#paint10_radial_16246_176)"/><circle cx="-.38" cy="-1.383" r="7.523" fill="url(#paint11_radial_16246_176)"/><circle cx="7.187" cy="-4.672" r="9.875" fill="url(#paint12_radial_16246_176)"/><circle cx="10.443" cy="-4.785" r="6.379" fill="url(#paint13_radial_16246_176)"/><circle cx="5.086" cy="-3.383" r="6.379" fill="url(#paint14_radial_16246_176)"/><circle cx="-1.083" cy="8.56" r="3.196" fill="url(#paint15_radial_16246_176)"/></g></g><defs><radialGradient id="paint0_radial_16246_176" cx="0" cy="0" r="1" gradientUnits="userSpaceOnUse" gradientTransform="rotate(90 -4.742 10.598) scale(11.2075)"><stop offset=".146" stop-color="#F9D949"/><stop offset="1" stop-color="#F0983C" stop-opacity="0"/></radialGradient><radialGradient id="paint1_radial_16246_176" cx="0" cy="0" r="1" gradientUnits="userSpaceOnUse" gradientTransform="rotate(90 2.718 15.688) scale(6.91405)"><stop offset=".417" stop-color="#EA33EE"/><stop offset="1" stop-color="#F0983C" stop-opacity="0"/></radialGradient><radialGradient id="paint2_radial_16246_176" cx="0" cy="0" r="1" gradientUnits="userSpaceOnUse" gradientTransform="rotate(90 4.559 6.508) scale(5.43628)"><stop offset=".411" stop-color="#EA33BE"/><stop offset="1" stop-color="#F0983C" stop-opacity="0"/></radialGradient><radialGradient id="paint3_radial_16246_176" cx="0" cy="0" r="1" gradientUnits="userSpaceOnUse" gradientTransform="rotate(90 2.898 5.774) scale(6.95764)"><stop offset=".411" stop-color="#EA33BE"/><stop offset="1" stop-color="#F0983C" stop-opacity="0"/></radialGradient><radialGradient id="paint4_radial_16246_176" cx="0" cy="0" r="1" gradientUnits="userSpaceOnUse" gradientTransform="rotate(90 2.921 6.86) scale(6.54487)"><stop offset=".344" stop-color="#EA33BE"/><stop offset="1" stop-color="#EB34BF" stop-opacity="0"/></radialGradient><radialGradient id="paint5_radial_16246_176" cx="0" cy="0" r="1" gradientUnits="userSpaceOnUse" gradientTransform="rotate(90 3.642 4.131) scale(6.54487)"><stop offset=".344" stop-color="#EA33BE"/><stop offset="1" stop-color="#EB34BF" stop-opacity="0"/></radialGradient><radialGradient id="paint6_radial_16246_176" cx="0" cy="0" r="1" gradientUnits="userSpaceOnUse" gradientTransform="rotate(90 -1.174 2.184) scale(6.54487)"><stop offset=".313" stop-color="#EA33BE"/><stop offset="1" stop-color="#F0983C" stop-opacity="0"/></radialGradient><radialGradient id="paint7_radial_16246_176" cx="0" cy="0" r="1" gradientUnits="userSpaceOnUse" gradientTransform="rotate(90 -1.823 1.326) scale(6.91953)"><stop offset=".344" stop-color="#EA33BE"/><stop offset="1" stop-color="#EB34BF" stop-opacity="0"/></radialGradient><radialGradient id="paint8_radial_16246_176" cx="0" cy="0" r="1" gradientUnits="userSpaceOnUse" gradientTransform="rotate(90 -.044 2.29) scale(4.17516)"><stop offset=".042" stop-color="#551CF5"/><stop offset="1" stop-color="#C633DD" stop-opacity="0"/></radialGradient><radialGradient id="paint9_radial_16246_176" cx="0" cy="0" r="1" gradientUnits="userSpaceOnUse" gradientTransform="rotate(90 1.335 1.132) scale(4.17516)"><stop offset=".042" stop-color="#551CF5"/><stop offset="1" stop-color="#631FF1" stop-opacity="0"/></radialGradient><radialGradient id="paint10_radial_16246_176" cx="0" cy="0" r="1" gradientUnits="userSpaceOnUse" gradientTransform="rotate(90 7.388 8.117) scale(5.43628)"><stop offset=".438" stop-color="#EA33BE"/><stop offset="1" stop-color="#EA33B6" stop-opacity="0"/></radialGradient><radialGradient id="paint11_radial_16246_176" cx="0" cy="0" r="1" gradientUnits="userSpaceOnUse" gradientTransform="rotate(90 .502 -.881) scale(7.52327)"><stop offset=".38" stop-color="#551CF5"/><stop offset="1" stop-color="#561DF6" stop-opacity="0"/></radialGradient><radialGradient id="paint12_radial_16246_176" cx="0" cy="0" r="1" gradientUnits="userSpaceOnUse" gradientTransform="rotate(90 5.93 1.257) scale(9.87488)"><stop offset=".349" stop-color="#551CF5"/><stop offset="1" stop-color="#561DF6" stop-opacity="0"/></radialGradient><radialGradient id="paint13_radial_16246_176" cx="0" cy="0" r="1" gradientUnits="userSpaceOnUse" gradientTransform="rotate(90 7.614 2.83) scale(6.37946)"><stop offset=".385" stop-color="#551CF5"/><stop offset="1" stop-color="#561DF6" stop-opacity="0"/></radialGradient><radialGradient id="paint14_radial_16246_176" cx="0" cy="0" r="1" gradientUnits="userSpaceOnUse" gradientTransform="rotate(90 4.234 .852) scale(6.37946)"><stop offset=".385" stop-color="#551CF5"/><stop offset="1" stop-color="#561DF6" stop-opacity="0"/></radialGradient><radialGradient id="paint15_radial_16246_176" cx="0" cy="0" r="1" gradientUnits="userSpaceOnUse" gradientTransform="rotate(90 -4.821 3.739) scale(3.19621)"><stop offset=".146" stop-color="#EB4650"/><stop offset="1" stop-color="#EB4E51" stop-opacity="0"/></radialGradient></defs></svg>