<?xml version="1.0" encoding="utf-8"?>
<!-- Generator: Adobe Illustrator 22.0.0, SVG Export Plug-In . SVG Version: 6.00 Build 0)  -->
<svg version="1.1" id="Layer_1" xmlns="http://www.w3.org/2000/svg" xmlns:xlink="http://www.w3.org/1999/xlink" x="0px" y="0px"
	 viewBox="141 358 330 76" style="enable-background:new 141 358 330 76;" xml:space="preserve">
<style type="text/css">
	.st0{fill:#FFFFFF;}
	.st1{fill:#6AC239;}
</style>
<title>ll</title>
<g>
	<g id="Cloud_Hosting_VPS_Dedicated">
		<path class="st0" d="M332.5,427.2h1.1c0,0.4-0.1,0.8-0.4,1.1c-0.3,0.4-0.6,0.7-1,0.8c-0.5,0.2-1,0.3-1.6,0.3c-1.1,0-2.2-0.4-3-1.3
			c-0.8-1.1-1.2-2.4-1.1-3.8c-0.1-1.3,0.3-2.7,1.1-3.7c0.8-0.8,1.9-1.2,3-1.2c0.5,0,1.1,0.1,1.6,0.3c0.4,0.2,0.8,0.5,1,0.9
			c0.2,0.3,0.4,0.7,0.4,1.1h-1.1c0-0.2-0.1-0.5-0.2-0.7c-0.2-0.2-0.4-0.4-0.6-0.5c-0.3-0.1-0.6-0.2-1-0.2c-0.9,0-1.7,0.4-2.2,1.2
			c-1,1.8-1,4,0,5.8c0.5,0.7,1.3,1.2,2.2,1.1c0.5,0.1,1-0.1,1.4-0.4C332.4,427.9,332.5,427.6,332.5,427.2L332.5,427.2z"/>
		<path class="st0" d="M336.3,429.2h-1.1v-9.8h1.1V429.2z"/>
		<path class="st0" d="M341,429.4c-0.9,0-1.7-0.3-2.3-0.9c-1.3-1.6-1.3-3.8,0-5.4c1.3-1.2,3.3-1.2,4.6,0c1.3,1.6,1.3,3.8,0,5.4
			C342.7,429.1,341.9,429.4,341,429.4z M341,428.4c0.6,0,1.1-0.3,1.5-0.7c0.7-1.2,0.7-2.7,0-3.8c-0.6-0.8-1.8-1-2.6-0.4
			c-0.1,0.1-0.3,0.2-0.4,0.4c-0.8,1.2-0.8,2.7,0,3.8C339.9,428.2,340.4,428.4,341,428.4L341,428.4z"/>
		<path class="st0" d="M350.2,422.4h1.1v6.8h-1.1V428c-0.2,0.3-0.4,0.6-0.7,0.8c-0.2,0.2-0.4,0.3-0.7,0.4c-0.3,0.1-0.5,0.1-0.8,0.1
			c-0.6,0-1.1-0.2-1.6-0.5c-0.5-0.6-0.7-1.3-0.7-2.1v-4.4h1.1v3.8c0,1,0.1,1.6,0.4,1.8c0.3,0.2,0.6,0.3,1,0.3c0.3,0,0.7-0.1,1-0.3
			c0.3-0.2,0.6-0.5,0.7-0.8c0.2-0.5,0.3-1,0.3-1.5V422.4z"/>
		<path class="st0" d="M357.9,419.4h1.1v9.8h-1.1v-1.2c-0.2,0.4-0.4,0.7-0.7,0.9c-0.2,0.2-0.5,0.3-0.7,0.4c-0.3,0.1-0.5,0.1-0.8,0.1
			c-0.5,0-1-0.1-1.4-0.4c-0.5-0.3-0.8-0.8-1-1.3c-0.3-0.6-0.4-1.2-0.4-1.9c0-0.9,0.2-1.8,0.8-2.6c0.5-0.7,1.3-1.1,2.1-1.1
			c0.3,0,0.6,0,0.8,0.1c0.3,0.1,0.5,0.2,0.7,0.4c0.3,0.3,0.5,0.5,0.7,0.9L357.9,419.4z M357.9,425.8c0-0.7-0.2-1.3-0.5-1.9
			c-0.3-0.5-0.8-0.8-1.4-0.7c-0.5,0-1.1,0.2-1.4,0.7c-0.4,0.6-0.6,1.3-0.6,1.9c-0.1,0.7,0.1,1.5,0.5,2.1c0.4,0.4,0.9,0.6,1.4,0.6
			c0.4,0,0.7-0.1,1-0.3c0.3-0.2,0.6-0.6,0.7-1C357.8,426.7,357.9,426.3,357.9,425.8L357.9,425.8z"/>
		<path class="st0" d="M361.7,431.5v-0.7c0.2-0.1,0.3-0.2,0.5-0.4c0.1-0.2,0.2-0.3,0.2-0.5c0.1-0.2,0.1-0.4,0.1-0.6h-0.8v-1.6h1.6v1
			c0,0.5,0,0.9-0.1,1.4c-0.1,0.3-0.3,0.6-0.5,0.9C362.4,431.1,362,431.3,361.7,431.5z"/>
		<path class="st0" d="M375.8,419.7h1.1l-3.9,9.4h-1.2l-3.6-9.4h1.3l3,7.9L375.8,419.7z"/>
		<path class="st0" d="M379.4,429.2h-1.2v-9.4h2.6c0.7,0,1.4,0.1,2.1,0.3c0.4,0.2,0.8,0.5,1,0.9c0.2,0.4,0.3,0.9,0.3,1.4
			c0,0.8-0.3,1.6-0.9,2.2c-0.7,0.6-1.7,1-2.7,0.9h-1.2V429.2z M379.4,424.5h0.8c0.8,0.1,1.6-0.1,2.2-0.6c0.3-0.4,0.5-1,0.5-1.5
			c0-0.4-0.1-0.9-0.4-1.2c-0.5-0.4-1.1-0.5-1.7-0.5h-1.4L379.4,424.5z"/>
		<path class="st0" d="M385.3,427.1h1.2c0,0.4,0.2,0.8,0.6,1c0.5,0.2,1,0.3,1.5,0.3c0.5,0,1-0.2,1.4-0.5c0.3-0.3,0.5-0.7,0.5-1.1
			c0-0.4-0.2-0.8-0.5-1c-0.4-0.3-0.9-0.6-1.4-0.8l-0.5-0.2c-0.5-0.2-1-0.5-1.5-0.8c-0.3-0.2-0.6-0.5-0.7-0.9
			c-0.2-0.3-0.3-0.7-0.3-1.1c0-0.7,0.3-1.3,0.8-1.8c0.7-0.6,1.5-0.8,2.4-0.7c0.7-0.1,1.5,0.1,2.1,0.6c0.4,0.3,0.6,0.8,0.6,1.3v0.1
			h-1.2v0c0-0.2-0.1-0.3-0.2-0.5c-0.2-0.1-0.4-0.2-0.6-0.3c-0.3-0.1-0.5-0.1-0.8-0.1c-0.5,0-1,0.1-1.4,0.5c-0.3,0.3-0.4,0.6-0.4,1
			c0,0.3,0.1,0.5,0.2,0.7c0.1,0.2,0.3,0.4,0.6,0.6c0.4,0.2,0.8,0.4,1.2,0.6l0.6,0.2c0.7,0.3,1.4,0.7,1.9,1.3
			c0.3,0.4,0.5,0.9,0.5,1.4c0,0.5-0.1,1-0.4,1.4c-0.2,0.4-0.6,0.8-1,1c-0.6,0.3-1.2,0.4-1.8,0.3c-0.6,0-1.2-0.1-1.8-0.3
			c-0.4-0.2-0.8-0.4-1-0.8c-0.2-0.4-0.4-0.8-0.4-1.3L385.3,427.1z"/>
		<path class="st0" d="M403,428.4c-0.4,0.3-0.8,0.6-1.2,0.8c-0.4,0.2-0.9,0.3-1.4,0.3c-0.6,0-1.1-0.1-1.6-0.4
			c-0.9-0.5-1.5-1.5-1.5-2.5c0-0.7,0.2-1.3,0.6-1.8c0.4-0.6,1-1,1.6-1.4l-0.1-0.1c-0.3-0.4-0.4-0.7-0.5-0.9
			c-0.1-0.2-0.1-0.3-0.2-0.5c0-0.1-0.1-0.3-0.1-0.4c0-0.3,0.1-0.7,0.3-1c0.2-0.3,0.5-0.6,0.8-0.7c0.4-0.2,0.8-0.3,1.2-0.3
			c0.5,0,1,0.2,1.4,0.5c0.4,0.3,0.6,0.7,0.6,1.1c0,0.5-0.2,1-0.5,1.5c-0.4,0.5-0.8,0.9-1.4,1.2c0.6,1.1,1.3,2.1,2.1,3.1
			c0.2-0.3,0.4-0.7,0.5-1c0.1-0.5,0.2-1.1,0.1-1.6v-0.3h1.1v0.1c0,1.3-0.4,2.6-1.1,3.6c0.5,0.6,1,1.1,1.5,1.6h-1.7
			c-0.1-0.2-0.3-0.3-0.5-0.5L403,428.4z M400.1,424.2c-0.5,0.2-0.9,0.6-1.2,1c-0.3,0.4-0.4,0.8-0.4,1.3c0,0.4,0.1,0.7,0.3,1.1
			c0.2,0.3,0.4,0.6,0.8,0.7c0.3,0.2,0.6,0.3,1,0.3c0.3,0,0.5-0.1,0.8-0.1c0.4-0.2,0.8-0.4,1.1-0.7c-0.3-0.4-0.7-0.8-1.1-1.5
			C400.8,425.6,400.4,424.9,400.1,424.2L400.1,424.2z M400.6,422.9c0.4-0.2,0.7-0.5,1-0.8c0.2-0.2,0.3-0.5,0.3-0.8
			c0-0.3-0.2-0.6-0.5-0.7c-0.1-0.1-0.3-0.1-0.5-0.1c-0.3,0-0.5,0.1-0.7,0.3c-0.1,0.2-0.2,0.4-0.2,0.7c0,0.1,0,0.2,0.1,0.4
			c0,0.1,0.1,0.3,0.1,0.4c0.1,0.2,0.2,0.4,0.4,0.6L400.6,422.9z"/>
		<path class="st0" d="M411.5,429.2v-9.4h2.6c1-0.1,1.9,0.1,2.8,0.5c0.6,0.4,1.1,0.9,1.4,1.6c0.6,1.6,0.6,3.4,0,5.1
			c-0.3,0.7-0.8,1.3-1.4,1.7c-0.8,0.5-1.8,0.7-2.7,0.6L411.5,429.2z M412.7,428.1h1.5c0.7,0,1.3-0.1,1.9-0.4
			c0.5-0.3,0.8-0.7,1.1-1.2c0.3-0.7,0.4-1.4,0.4-2.1c0-0.7-0.1-1.4-0.3-2.1c-0.2-0.5-0.5-1-1-1.3c-0.6-0.3-1.4-0.5-2.1-0.4h-1.4
			L412.7,428.1z"/>
		<path class="st0" d="M424.8,427.4h1.1c0,0.3-0.1,0.7-0.4,0.9c-0.2,0.3-0.6,0.6-1,0.7c-0.4,0.2-0.9,0.3-1.4,0.3
			c-0.9,0.1-1.8-0.3-2.4-1c-1.2-1.5-1.1-3.6,0-5.1c0.6-0.7,1.4-1.1,2.3-1c0.5,0,1,0.1,1.4,0.3c0.4,0.2,0.8,0.6,1,1
			c0.3,0.6,0.4,1.3,0.4,1.9v0.4h-4.9c0,0.7,0.2,1.3,0.6,1.8c0.4,0.5,1,0.7,1.6,0.7c0.4,0,0.8-0.1,1.1-0.3
			C424.6,427.9,424.7,427.6,424.8,427.4L424.8,427.4z M421.2,425.1h3.7v-0.1c0-0.3-0.1-0.6-0.2-0.9c-0.1-0.3-0.4-0.5-0.6-0.7
			c-0.3-0.2-0.6-0.2-1-0.2c-0.4,0-0.9,0.2-1.2,0.5C421.5,424,421.3,424.5,421.2,425.1z"/>
		<path class="st0" d="M432.3,419.4h1.1v9.8h-1.1v-1.2c-0.2,0.3-0.4,0.7-0.7,0.9c-0.2,0.2-0.5,0.3-0.7,0.4c-0.3,0.1-0.5,0.1-0.8,0.1
			c-0.5,0-1-0.2-1.4-0.4c-0.5-0.3-0.8-0.7-1-1.3c-0.3-0.6-0.4-1.2-0.4-1.9c0-0.9,0.2-1.8,0.8-2.6c0.5-0.7,1.3-1.1,2.1-1
			c0.3,0,0.6,0,0.8,0.1c0.3,0.1,0.5,0.2,0.7,0.4c0.3,0.3,0.5,0.5,0.7,0.9L432.3,419.4z M432.3,425.8c0-0.7-0.1-1.3-0.5-1.9
			c-0.3-0.5-0.8-0.8-1.4-0.7c-0.5,0-1,0.2-1.4,0.7c-0.4,0.6-0.6,1.3-0.6,1.9c-0.1,0.7,0.1,1.5,0.5,2.1c0.3,0.4,0.8,0.6,1.4,0.6
			c0.4,0,0.7-0.1,1-0.3c0.3-0.2,0.6-0.6,0.7-1C432.2,426.7,432.3,426.3,432.3,425.8L432.3,425.8z"/>
		<path class="st0" d="M435.2,420.9v-1.1h1.1v1.1H435.2z M435.2,422.4h1.1v6.8h-1.1V422.4z"/>
		<path class="st0" d="M442.5,427.4h1.1c0,0.3-0.1,0.7-0.4,0.9c-0.2,0.3-0.5,0.6-0.9,0.7c-0.4,0.2-0.9,0.3-1.3,0.3
			c-0.9,0-1.7-0.3-2.3-1c-1.1-1.6-1.1-3.7,0-5.2c0.6-0.7,1.4-1,2.3-1c0.5,0,0.9,0.1,1.3,0.3c0.4,0.1,0.7,0.4,0.9,0.7
			c0.2,0.3,0.4,0.6,0.4,1h-1.1c0-0.3-0.1-0.5-0.3-0.7c-0.3-0.2-0.7-0.3-1-0.3c-0.5,0-1.1,0.2-1.4,0.6c-0.8,1.2-0.8,2.8,0,4
			c0.4,0.4,0.9,0.6,1.4,0.6c0.4,0,0.7-0.1,1-0.3C442.4,428,442.5,427.7,442.5,427.4L442.5,427.4z"/>
		<path class="st0" d="M449.4,429.2c-0.1-0.3-0.2-0.6-0.2-1c-0.4,0.4-0.8,0.7-1.3,1c-0.3,0.1-0.7,0.2-1,0.2c-0.5,0-1-0.2-1.4-0.5
			c-0.7-0.7-0.8-1.8-0.1-2.6c0,0,0,0,0,0c0.1-0.1,0.2-0.2,0.3-0.3c0.9-0.5,1.8-0.8,2.8-1l0.6-0.1v-0.8c0-0.3-0.1-0.7-0.4-0.9
			c-0.3-0.2-0.7-0.3-1-0.3c-0.4,0-0.8,0.1-1.1,0.3c-0.2,0.2-0.4,0.4-0.4,0.7v0.1H445v-0.1c0-0.4,0.1-0.7,0.4-1
			c0.3-0.3,0.6-0.6,1-0.7c0.4-0.2,0.9-0.3,1.4-0.2c0.5,0,0.9,0.1,1.4,0.2c0.4,0.1,0.7,0.3,0.9,0.6c0.2,0.5,0.3,1,0.3,1.5v3.6
			c0,0.4,0.1,0.8,0.2,1.1L449.4,429.2z M449.2,425.8l-0.3,0.1c-0.8,0.1-1.5,0.4-2.2,0.8c-0.3,0.2-0.5,0.5-0.5,0.9
			c0,0.2,0,0.4,0.1,0.5c0.1,0.2,0.2,0.3,0.4,0.4c0.2,0.1,0.4,0.1,0.6,0.1c0.3,0,0.7-0.1,1-0.3c0.3-0.2,0.5-0.4,0.7-0.7
			c0.2-0.3,0.3-0.7,0.3-1L449.2,425.8z"/>
		<path class="st0" d="M456.3,428.2v1c-0.4,0.1-0.8,0.2-1.3,0.2c-0.4,0-0.8-0.1-1.1-0.3c-0.3-0.2-0.6-0.4-0.8-0.7
			c-0.2-0.5-0.3-1-0.3-1.5v-3.5h-1.2v-1h1.2v-1.6h1.1v1.6h1.9v1H454v3.1c0,0.4,0,0.9,0.1,1.3c0.1,0.2,0.2,0.4,0.4,0.5
			c0.2,0.1,0.5,0.2,0.7,0.2C455.7,428.4,456,428.3,456.3,428.2z"/>
		<path class="st0" d="M462.3,427.4h1.1c0,0.3-0.1,0.7-0.4,0.9c-0.2,0.3-0.6,0.6-1,0.7c-0.4,0.2-0.9,0.3-1.4,0.3
			c-0.9,0.1-1.8-0.3-2.4-1c-1.2-1.5-1.2-3.6,0-5.1c0.6-0.7,1.4-1.1,2.3-1c0.5,0,1,0.1,1.4,0.3c0.4,0.2,0.8,0.6,1,1
			c0.3,0.6,0.4,1.3,0.4,1.9v0.4h-4.9c0,0.7,0.2,1.3,0.6,1.8c0.4,0.5,1,0.7,1.6,0.7c0.4,0,0.8-0.1,1.1-0.3
			C462.1,427.9,462.2,427.6,462.3,427.4L462.3,427.4z M458.7,425.1h3.7v-0.1c0-0.3-0.1-0.6-0.2-0.9c-0.1-0.3-0.4-0.5-0.6-0.7
			c-0.3-0.2-0.6-0.2-1-0.2c-0.4,0-0.9,0.2-1.2,0.5C459,424,458.8,424.5,458.7,425.1z"/>
		<path class="st0" d="M469.8,419.4h1.2v9.8h-1.1v-1.2c-0.2,0.3-0.4,0.6-0.7,0.9c-0.2,0.2-0.5,0.3-0.7,0.4c-0.3,0.1-0.5,0.1-0.8,0.1
			c-0.5,0-1-0.2-1.4-0.4c-0.5-0.3-0.8-0.7-1.1-1.3c-0.2-0.6-0.4-1.2-0.4-1.9c0-0.9,0.2-1.8,0.7-2.6c0.5-0.7,1.3-1.1,2.1-1
			c0.3,0,0.6,0,0.8,0.1c0.2,0.1,0.5,0.2,0.7,0.4c0.3,0.3,0.5,0.5,0.7,0.9V419.4z M469.8,425.8c0-0.7-0.1-1.3-0.5-1.9
			c-0.3-0.5-0.8-0.8-1.4-0.7c-0.5,0-1,0.2-1.4,0.7c-0.4,0.6-0.6,1.3-0.5,1.9c-0.1,0.7,0.1,1.5,0.5,2.1c0.4,0.4,0.8,0.6,1.4,0.6
			c0.4,0,0.7-0.1,1-0.3c0.3-0.2,0.6-0.6,0.7-1C469.8,426.7,469.8,426.3,469.8,425.8L469.8,425.8z"/>
	</g>
	<g id="_17">
		<path class="st1" d="M276.7,405.2v-5c1.6,0,3.3-0.2,4.9-0.5c1.4-0.3,2.6-0.9,3.6-1.9c1-1.2,1.6-2.6,1.7-4.1h6.1v37.1h-7.5v-25.5
			H276.7z"/>
		<g>
			<g>
				<path class="st1" d="M322.6,408.9c0,7.2-1.5,12.5-4.5,16.1s-7.6,5.3-13.7,5.3c-2.2,0-3.8-0.1-4.9-0.3v-6.2
					c1.4,0.3,2.9,0.5,4.4,0.5c2.6,0,4.7-0.4,6.4-1.1c1.7-0.8,2.9-1.9,3.8-3.6c0.9-1.6,1.4-3.8,1.5-6.7h-0.3c-1,1.6-2.1,2.7-3.3,3.3
					s-2.8,0.9-4.7,0.9c-3.2,0-5.7-1-7.5-3.1c-1.8-2-2.7-4.9-2.7-8.5c0-3.9,1.1-7,3.3-9.3c2.2-2.3,5.2-3.4,9.1-3.4
					c2.7,0,5,0.6,7.1,1.9c2,1.3,3.6,3.1,4.6,5.5C322,402.7,322.6,405.5,322.6,408.9z M309.4,399.1c-1.6,0-2.8,0.5-3.7,1.6
					c-0.9,1.1-1.3,2.7-1.3,4.7c0,1.8,0.4,3.2,1.2,4.2c0.8,1,2.1,1.5,3.7,1.5c1.6,0,2.9-0.5,4-1.5c1.1-1,1.7-2.2,1.7-3.5
					c0-2-0.5-3.6-1.6-5C312.3,399.8,311,399.1,309.4,399.1z"/>
			</g>
		</g>
	</g>
	<g id="Rectangle_1">
		<g id="Rectangle_1-2">
			<rect x="398.3" y="403.4" class="st1" width="72.7" height="2.5"/>
		</g>
	</g>
	<g id="Years">
		<path class="st1" d="M336.1,412.1h-2.5v-8.6l-6.3-9.7h2.9l4.9,7.4l4.8-7.4h2.5l-6.2,9.7L336.1,412.1z"/>
		<path class="st1" d="M351.5,408.7h2.3v0.2c0,0.7-0.3,1.3-0.7,1.8c-0.5,0.6-1.2,1.1-1.9,1.4c-0.9,0.3-1.8,0.5-2.8,0.5
			c-1.8,0.1-3.6-0.6-4.9-1.9c-2.4-2.9-2.3-7.1,0.1-10c1.2-1.3,2.9-2,4.7-1.9c1,0,2,0.2,2.9,0.6c0.9,0.4,1.6,1.2,2.1,2
			c0.6,1.2,0.8,2.5,0.7,3.8v0.7h-9.9c0,1.3,0.4,2.5,1.2,3.5c0.9,0.9,2.1,1.4,3.3,1.4c0.8,0.1,1.6-0.1,2.2-0.6
			c0.4-0.3,0.7-0.7,0.7-1.3L351.5,408.7z M344.1,404.1h7.5v-0.3c0-0.6-0.2-1.2-0.5-1.8c-0.3-0.6-0.7-1-1.3-1.3
			c-0.6-0.3-1.3-0.4-1.9-0.4c-0.9,0-1.8,0.4-2.4,1C344.7,402.1,344.3,403.1,344.1,404.1L344.1,404.1z"/>
		<path class="st1" d="M366.4,412.1c-0.2-0.6-0.3-1.2-0.4-1.8c-0.7,0.8-1.6,1.4-2.6,1.8c-0.7,0.2-1.4,0.4-2.1,0.4c-1,0-2-0.3-2.8-1
			c-0.8-0.6-1.2-1.6-1.2-2.6c0-1.2,0.6-2.3,1.7-2.9c1.8-0.9,3.8-1.5,5.8-1.8l1.2-0.2v-1.5c0.1-0.7-0.3-1.3-0.9-1.7
			c-0.6-0.3-1.3-0.5-2.1-0.5c-0.8,0-1.6,0.2-2.3,0.6c-0.5,0.3-0.8,0.8-0.8,1.4v0.2h-2.5v-0.2c0-0.7,0.3-1.3,0.8-1.8
			c0.6-0.6,1.3-1.1,2.1-1.4c1.8-0.6,3.8-0.6,5.6,0c0.7,0.2,1.3,0.6,1.8,1.2c0.5,0.9,0.7,1.9,0.6,2.9v5.1c0,0.6,0,1.1,0,1.8
			c0.1,0.7,0.2,1.5,0.4,2.2L366.4,412.1z M366,405.4l-0.7,0.1c-1.6,0.3-3.1,0.8-4.5,1.6c-0.6,0.4-1,1-1,1.8c0,0.3,0.1,0.7,0.3,1
			c0.2,0.3,0.5,0.6,0.9,0.7c0.4,0.2,0.8,0.2,1.1,0.3c0.7,0,1.4-0.2,1.9-0.5c0.6-0.3,1.1-0.8,1.4-1.4c0.4-0.6,0.5-1.4,0.5-2.1V405.4z
			"/>
		<path class="st1" d="M374.2,412.1h-2.3v-13.2h2.3v2.3c0.3-0.6,0.7-1.1,1.3-1.6c0.4-0.4,0.9-0.6,1.4-0.8c0.5-0.2,1-0.3,1.6-0.3
			c0.4,0,0.8,0.1,1.2,0.2v2.3c-0.5-0.3-1.1-0.4-1.7-0.4c-1,0-1.9,0.4-2.6,1.1c-0.8,0.7-1.2,2-1.2,3.9L374.2,412.1z"/>
		<path class="st1" d="M380.9,408.6h2.3c0,0.6,0.2,1.1,0.7,1.4c0.7,0.4,1.5,0.6,2.3,0.6c0.8,0,1.6-0.2,2.3-0.7
			c0.5-0.3,0.9-0.9,0.9-1.6c0-0.8-0.6-1.4-1.8-1.7l-1.2-0.3l-0.8-0.2l-1.6-0.5c-1.8-0.6-2.8-1.7-2.8-3.2c0-1.1,0.5-2.1,1.3-2.7
			c1.1-0.9,2.5-1.3,3.9-1.2c1.3-0.1,2.6,0.2,3.7,1c0.7,0.5,1.1,1.4,1.1,2.2v0h-2.3v0c0-0.5-0.3-0.9-0.7-1c-0.6-0.3-1.2-0.4-1.9-0.4
			c-0.8,0-1.5,0.1-2.1,0.6c-0.5,0.3-0.8,0.8-0.7,1.4c0,0.4,0.2,0.7,0.5,1c0.5,0.3,1,0.6,1.6,0.7l1.1,0.3l0.8,0.2
			c0.7,0.2,1.4,0.4,2.1,0.7c0.3,0.1,0.6,0.3,0.8,0.5c0.4,0.2,0.7,0.6,0.9,1c0.2,0.4,0.3,0.9,0.3,1.4c0,1.2-0.5,2.4-1.4,3.2
			c-1.2,0.9-2.7,1.4-4.1,1.3c-1,0-1.9-0.1-2.9-0.5c-0.7-0.3-1.3-0.8-1.8-1.3C381.1,409.9,380.9,409.2,380.9,408.6L380.9,408.6z"/>
		<path class="st0" d="M142.5,423l1,3.8c0.2,0.8,0.4,1.6,0.6,2.4l0,0c0.2-0.8,0.4-1.6,0.7-2.4l1.2-3.9h1.2l1.2,3.8
			c0.3,0.9,0.5,1.7,0.7,2.5l0,0c0.1-0.8,0.3-1.6,0.6-2.4l1.1-3.8h1.4l-2.4,7.5h-1.2l-1.1-3.5c-0.3-0.8-0.5-1.6-0.7-2.5l0,0
			c-0.2,0.8-0.4,1.7-0.7,2.5l-1.2,3.6h-1.3L141,423H142.5z"/>
		<path class="st0" d="M158.9,427c-0.1,1.3,0.9,2.5,2.2,2.6c0.1,0,0.3,0,0.4,0c0.7,0,1.4-0.1,2.1-0.4l0.2,1
			c-0.8,0.3-1.6,0.5-2.5,0.5c-1.9,0.1-3.6-1.3-3.7-3.3c0,0,0,0,0,0c0-0.2,0-0.4,0-0.5c0-2.3,1.3-4.1,3.5-4.1c2.5,0,3.1,2.2,3.1,3.5
			c0,0.2,0,0.4,0,0.6L158.9,427z M162.9,426.1c0.2-1.1-0.6-2.1-1.6-2.2c0,0,0,0,0,0H161c-1.2,0.1-2,1.1-2.1,2.2L162.9,426.1z"/>
		<path class="st0" d="M170.7,430.6c0-0.5,0.1-1.3,0.1-1.9v-9.1h1.4v4.8l0,0c0.5-0.9,1.5-1.4,2.6-1.4c1.9,0,3.2,1.5,3.2,3.8
			c0,2.7-1.7,4-3.4,4c-1,0.1-2-0.5-2.5-1.4l0,0l-0.1,1.2L170.7,430.6z M172.2,427.5c0,0.2,0,0.3,0.1,0.5c0.2,0.9,1.1,1.6,2.1,1.6
			c1.4,0,2.3-1.2,2.3-2.9c0-1.5-0.8-2.8-2.2-2.8c-1,0-1.9,0.7-2.1,1.7c0,0.2-0.1,0.4-0.1,0.6V427.5z"/>
		<path class="st0" d="M192.7,419.5h1.4v4.7l0,0c0.2-0.4,0.6-0.7,1-1c0.4-0.3,0.9-0.4,1.4-0.4c1,0,2.6,0.6,2.6,3.2v4.5h-1.3v-4.3
			c0-1.2-0.4-2.2-1.7-2.2c-0.8,0-1.6,0.6-1.8,1.4c-0.1,0.2-0.1,0.4-0.1,0.7v4.5h-1.4V419.5z"/>
		<path class="st0" d="M213,426.7c0.2,2-1.3,3.8-3.3,4h-0.4c-2,0-3.6-1.6-3.6-3.5c0,0,0,0,0,0c0-0.1,0-0.2,0-0.3
			c-0.2-2,1.3-3.8,3.3-4h0.4c2,0,3.6,1.5,3.6,3.5c0,0,0,0,0,0C213,426.5,213,426.6,213,426.7z M207.1,426.8c0,1.6,1,2.9,2.3,2.9
			s2.3-1.2,2.3-2.9c0-1.3-0.6-2.9-2.3-2.9C207.8,423.9,207.1,425.4,207.1,426.8L207.1,426.8z"/>
		<path class="st0" d="M219.5,429.1c0.5,0.3,1.2,0.5,1.8,0.5c1,0,1.5-0.5,1.5-1.1c0-0.6-0.4-1-1.4-1.4c-1.4-0.5-2-1.2-2-2.1
			c0.1-1.3,1.1-2.3,2.4-2.2c0,0,0,0,0,0h0.2c0.6,0,1.3,0.2,1.8,0.5l-0.3,1c-0.5-0.3-1-0.4-1.5-0.4c-0.8,0-1.3,0.5-1.3,1
			c0,0.6,0.5,0.9,1.4,1.3c1.3,0.5,1.9,1.1,1.9,2.3c0,1.3-1,2.3-2.8,2.3c-0.7,0-1.5-0.2-2.1-0.5L219.5,429.1z"/>
		<path class="st0" d="M232.3,420.9v2.2h1.9v1h-1.9v4.1c0,1,0.3,1.5,1,1.5c0.3,0,0.5,0,0.8-0.1l0.1,1c-0.4,0.1-0.8,0.2-1.2,0.2
			c-0.5,0-1.1-0.2-1.5-0.6c-0.4-0.6-0.6-1.3-0.5-1.9v-4.2h-1.2v-1h1.2v-1.8L232.3,420.9z"/>
		<path class="st0" d="M242.2,420.9c0,0.4-0.3,0.8-0.8,0.8c0,0,0,0,0,0h-0.1c-0.4,0-0.8-0.3-0.8-0.8l0,0v0c0-0.5,0.4-0.8,0.8-0.9
			c0,0,0,0,0,0l0,0C241.8,420.1,242.2,420.4,242.2,420.9C242.2,420.8,242.2,420.8,242.2,420.9L242.2,420.9z M240.7,430.6V423h1.4
			v7.5H240.7z"/>
		<path class="st0" d="M249.2,425.1c0-0.7,0-1.4-0.1-2h1.2l0.1,1.2l0,0c0.5-0.9,1.5-1.4,2.5-1.4c1,0,2.7,0.6,2.7,3.2v4.5h-1.4v-4.3
			c0-1.2-0.4-2.2-1.7-2.2c-0.9,0-1.6,0.6-1.8,1.4c-0.1,0.2-0.1,0.4-0.1,0.6v4.5h-1.4L249.2,425.1z"/>
		<path class="st0" d="M269.2,423c0,0.5-0.1,1.1-0.1,2.1v4.4c0,1.7-0.3,2.8-1.1,3.4c-0.8,0.6-1.7,0.9-2.7,0.9
			c-0.9,0-1.7-0.2-2.5-0.6l0.3-1c0.7,0.4,1.4,0.6,2.2,0.6c1.4,0,2.4-0.7,2.4-2.6v-0.8l0,0c-0.5,0.8-1.4,1.3-2.4,1.3
			c-1.9,0-3.2-1.6-3.2-3.7c0-2.5,1.7-4,3.4-4c1-0.1,1.9,0.4,2.3,1.3l0,0l0.1-1.1H269.2z M267.8,426c0-0.2,0-0.4-0.1-0.6
			c-0.2-0.9-1-1.5-1.9-1.4c-1.3,0-2.2,1.1-2.2,2.8c0,1.5,0.7,2.7,2.2,2.7c0.9,0,1.7-0.6,1.9-1.4c0.1-0.2,0.1-0.5,0.1-0.7L267.8,426z
			"/>
		<path class="st0" d="M172,409.1c0,4.4-3.2,6.6-9.6,6.6H151c-2.2,0.1-4.4-0.4-6.4-1.4c-2.4-1.2-3.6-2.8-3.6-4.9v-2.8
			c0-2.3,1.3-4.3,3.4-5.1c2-0.9,4.2-1.4,6.4-1.3h16.5c-0.3-1.5-2.4-2.3-6.3-2.3h-11.3c-1.2,0-1.7-0.8-1.7-2.3c0-1.2,0.6-1.8,1.7-1.8
			c3.7,0,15.1,0.3,17.1,0.8c3.4,1,5.1,3,5.1,5.9L172,409.1z M167.4,407.9v-3.8h-16.7c-1,0-2,0.2-3,0.5c-1.4,0.5-2,1.1-2,1.8v2.8
			c0,0.8,0.7,1.4,2.1,1.8c1,0.4,2,0.5,3.1,0.5h11.6c1.2,0.1,2.4-0.1,3.6-0.5C166.9,410.6,167.4,409.5,167.4,407.9L167.4,407.9z"/>
		<path class="st0" d="M204.8,413.8c0,1.2-0.7,1.8-2.2,1.8h-17.3c-3.3,0-5.7-0.3-7.2-1c-2.4-0.8-3.9-3.1-3.8-5.6v-8.6
			c0-4.4,3.3-6.6,10-6.6h18.5c1.2,0,1.8,0.7,1.8,2s-0.6,2-1.8,2h-18.1c-3.7,0-5.6,0.8-5.6,2.4v8.5c0,1.9,2.1,2.8,6.4,2.8H203
			C204.2,411.6,204.8,412.3,204.8,413.8z"/>
		<path class="st0" d="M236.9,413.8c0,1.2-0.7,1.8-2.2,1.8h-17.3c-3.3,0-5.7-0.3-7.2-1c-2.4-0.8-3.9-3.1-3.8-5.6v-8.6
			c0-4.4,3.3-6.6,10-6.6h18.5c1.2,0,1.8,0.7,1.8,2s-0.6,2-1.8,2h-18.1c-3.8,0-5.6,0.8-5.6,2.4v8.5c0,1.9,2.1,2.8,6.4,2.8h17.6
			C236.3,411.6,236.9,412.3,236.9,413.8z"/>
		<path class="st0" d="M269.1,409.1c0,4.4-4.5,6.6-13.6,6.6h-4.7c-7.6,0-11.4-2.2-11.4-6.5v-13.6c0-1.2,0.6-1.8,1.7-1.8
			c0.7,0,1.4,0,2,0.2c0.7,0.3,1.1,0.9,1,1.6v13.6c0,1.7,2.2,2.5,6.7,2.5h7c4.4,0,6.6-0.8,6.6-2.4v-13.6c-0.1-0.7,0.3-1.4,1-1.6
			c0.7-0.1,1.4-0.2,2-0.2c0.9-0.1,1.6,0.5,1.8,1.3c0,0,0,0,0,0c0,0.1,0,0.3,0,0.4L269.1,409.1z"/>
		<path class="st0" d="M224.5,379.7c-0.6-3.1-3-5.9-8-6c-0.1-2.2-2.1-3.9-4.3-3.8c-0.7,0-1.4,0.3-1.9,0.6c-3-5-9.4-6.6-14.3-3.6
			c-2.6,1.5-4.4,4.1-4.9,7.1c-6,0.5-8,2.2-8.8,5.8c-0.8,3.9,0.5,8.5,5.6,8.5h29.7C223.1,388.2,225.1,383.2,224.5,379.7z
			 M193.1,383.1c-0.5,0-1-0.4-1-1c0-0.5,0.4-1,1-1c0.5,0,1,0.4,1,1C194,382.7,193.6,383.1,193.1,383.1L193.1,383.1z M193.1,379.2
			c-0.5,0-1-0.4-1-1c0-0.5,0.4-1,1-1c0.5,0,1,0.4,1,1C194,378.8,193.6,379.2,193.1,379.2L193.1,379.2z M196.2,382.7
			c-0.3,0-0.6-0.3-0.6-0.6c0-0.3,0.3-0.6,0.6-0.6c0.3,0,0.6,0.3,0.6,0.6l0,0C196.8,382.4,196.6,382.7,196.2,382.7
			C196.2,382.7,196.2,382.7,196.2,382.7L196.2,382.7L196.2,382.7z M196.2,378.8c-0.3,0-0.6-0.3-0.6-0.6c0-0.3,0.3-0.6,0.6-0.6
			s0.6,0.3,0.6,0.6l0,0C196.9,378.6,196.6,378.9,196.2,378.8C196.2,378.9,196.2,378.9,196.2,378.8L196.2,378.8L196.2,378.8z
			 M198.9,382.5c-0.2,0-0.4-0.2-0.4-0.4l0,0l0,0c0-0.2,0.2-0.4,0.4-0.4c0.2,0,0.4,0.2,0.4,0.4l0,0
			C199.3,382.3,199.2,382.5,198.9,382.5L198.9,382.5L198.9,382.5z M198.9,378.6c-0.2,0-0.4-0.2-0.4-0.4l0,0l0,0
			c0-0.2,0.2-0.4,0.4-0.4c0.2,0,0.4,0.2,0.4,0.4l0,0C199.3,378.4,199.2,378.6,198.9,378.6L198.9,378.6L198.9,378.6z M213.8,382.5
			h-11.8c-0.2,0-0.4-0.2-0.4-0.4l0,0l0,0c0-0.2,0.2-0.4,0.4-0.4l0,0h11.8c0.2,0,0.4,0.2,0.4,0.4v0l0,0
			C214.2,382.3,214.1,382.5,213.8,382.5L213.8,382.5z M213.8,378.6h-11.8c-0.2,0-0.4-0.2-0.4-0.4l0,0l0,0c0-0.2,0.2-0.4,0.4-0.4l0,0
			h11.8c0.2,0,0.4,0.2,0.4,0.4v0l0,0C214.3,378.4,214.1,378.6,213.8,378.6C213.9,378.7,213.9,378.7,213.8,378.6L213.8,378.6
			L213.8,378.6z"/>
		<path class="st0" d="M214.7,366.8v1.6c2.1,0.5,3.7,2.2,4.2,4.2h1.6C219.9,369.6,217.6,367.3,214.7,366.8L214.7,366.8z"/>
		<path class="st0" d="M221.5,365.8c-1.1-1.1-2.3-1.9-3.7-2.5c-1-0.4-2-0.7-3.1-0.8v1.5c4.4,0.6,7.9,4.1,8.6,8.6h1.5
			c-0.1-1.1-0.4-2.1-0.8-3.1C223.4,368.1,222.5,366.8,221.5,365.8z"/>
		<path class="st0" d="M228,367.8c-2.3-5.4-7.4-9.1-13.3-9.6v1.5c6.8,0.7,12.2,6.1,12.8,12.9h1.5C229,371,228.6,369.3,228,367.8z"/>
	</g>
</g>
</svg>
