<?xml version="1.0" encoding="utf-8"?>
<!-- Generator: Adobe Illustrator 22.0.0, SVG Export Plug-In . SVG Version: 6.00 Build 0)  -->
<svg version="1.1" id="Layer_1" xmlns="http://www.w3.org/2000/svg" xmlns:xlink="http://www.w3.org/1999/xlink" x="0px" y="0px"
	 width="780px" height="260px" viewBox="0 0 780 260" style="enable-background:new 0 0 780 260;" xml:space="preserve">
<style type="text/css">
	.st0{fill:#FFFFFF;}
</style>
<g>
	<path class="st0" d="M300.5,35.2c-2.7-6.4-6.5-12.1-11.4-17s-10.6-8.7-17-11.4c-5.1-2.2-10.5-3.5-16-4V8
		c22.8,2.2,41,20.4,43.2,43.2h5.2C304,45.7,302.6,40.3,300.5,35.2"/>
	<path class="st0" d="M13.7,220.5l3.3,12.8c0.7,2.8,1.4,5.4,1.9,8h0.2c0.6-2.6,1.4-5.3,2.2-8l4.1-12.9h3.9l3.9,12.6
		c0.9,3,1.7,5.7,2.2,8.2h0.2c0.4-2.6,1.1-5.2,1.9-8.2l3.6-12.7h4.5l-8.1,25.3h-4.2l-3.8-11.9c-0.9-2.8-1.6-5.3-2.2-8.3h-0.1
		c-0.6,3-1.4,5.6-2.3,8.4l-4.1,12h-4.2L9,220.5H13.7L13.7,220.5z M68.7,234c0.1,6.2,4.1,8.8,8.7,8.8c3.3,0,5.3-0.6,7-1.3l0.8,3.3
		c-1.6,0.7-4.4,1.6-8.4,1.6c-7.8,0-12.4-5.1-12.4-12.7s4.5-13.6,11.9-13.6c8.2,0,10.4,7.3,10.4,11.9c0,0.9-0.1,1.7-0.2,2.1L68.7,234
		z M82.2,230.8c0.1-2.9-1.2-7.5-6.4-7.5c-4.6,0-6.7,4.3-7,7.5H82.2z M108.5,245.9c0.1-1.7,0.2-4.3,0.2-6.5v-30.6h4.5v15.9h0.1
		c1.6-2.8,4.5-4.6,8.6-4.6c6.3,0,10.7,5.2,10.6,12.9c0,9-5.7,13.5-11.3,13.5c-3.7,0-6.6-1.4-8.5-4.8h-0.2l-0.2,4.2L108.5,245.9
		L108.5,245.9L108.5,245.9z M113.3,235.8c0,0.6,0.1,1.1,0.2,1.7c0.9,3.2,3.6,5.4,6.9,5.4c4.8,0,7.7-3.9,7.7-9.7
		c0-5.1-2.6-9.4-7.5-9.4c-3.1,0-6.1,2.1-7,5.6c-0.1,0.5-0.3,1.1-0.3,1.9V235.8z M182.3,208.8h4.6v15.7h0.1c0.7-1.3,1.9-2.5,3.3-3.2
		c1.4-0.8,3-1.3,4.7-1.3c3.4,0,8.8,2.1,8.8,10.8v15h-4.6v-14.5c0-4.1-1.5-7.5-5.8-7.5c-3,0-5.3,2.1-6.2,4.6
		c-0.3,0.6-0.3,1.3-0.3,2.2v15.2h-4.6V208.8z M250.5,233c0,9.3-6.5,13.4-12.6,13.4c-6.8,0-12.1-5-12.1-13c0-8.5,5.5-13.4,12.5-13.4
		C245.6,220,250.5,225.3,250.5,233 M230.5,233.3c0,5.5,3.2,9.7,7.7,9.7c4.4,0,7.7-4.1,7.7-9.8c0-4.3-2.1-9.7-7.6-9.7
		S230.5,228.5,230.5,233.3 M272.1,241.1c1.4,0.9,3.8,1.8,6.1,1.8c3.3,0,4.9-1.7,4.9-3.8c0-2.2-1.3-3.4-4.7-4.6
		c-4.5-1.6-6.7-4.1-6.7-7.2c0-4.1,3.3-7.4,8.7-7.4c2.6,0,4.8,0.7,6.2,1.6l-1.1,3.3c-1-0.6-2.8-1.5-5.2-1.5c-2.7,0-4.2,1.6-4.2,3.4
		c0,2.1,1.5,3,4.8,4.3c4.4,1.7,6.6,3.9,6.6,7.6c0,4.4-3.4,7.6-9.4,7.6c-2.8,0-5.3-0.7-7.1-1.7L272.1,241.1L272.1,241.1z
		 M315.3,213.4v7.3h6.6v3.5h-6.6v13.6c0,3.1,0.9,4.9,3.4,4.9c1.2,0,2.1-0.2,2.7-0.3l0.2,3.4c-0.9,0.4-2.3,0.6-4.1,0.6
		c-2.1,0-3.9-0.7-5-1.9c-1.3-1.4-1.8-3.6-1.8-6.6v-13.8h-3.9v-3.5h3.9v-6.1L315.3,213.4L315.3,213.4z M348.6,213.5
		c0.1,1.6-1.1,2.8-2.9,2.8c-1.6,0-2.8-1.3-2.8-2.8c0-1.6,1.2-2.9,2.9-2.9S348.6,211.9,348.6,213.5 M343.5,220.5h4.6v25.3h-4.6V220.5
		z M372.1,227.5c0-2.6-0.1-4.8-0.2-6.8h4.1l0.3,4.2h0.1c1.3-2.4,4.2-4.8,8.4-4.8c3.5,0,8.9,2.1,8.9,10.8V246h-4.6v-14.6
		c0-4.1-1.5-7.5-5.8-7.5c-3,0-5.4,2.1-6.2,4.7c-0.2,0.6-0.3,1.4-0.3,2.1v15.2h-4.6L372.1,227.5L372.1,227.5z M439.2,220.5
		c-0.1,1.8-0.2,3.9-0.2,6.9v14.7c0,5.8-1.1,9.3-3.6,11.5c-2.5,2.3-6,3-9.2,3c-3,0-6.4-0.7-8.4-2.1l1.1-3.5c1.7,1,4.3,2,7.4,2
		c4.7,0,8.1-2.5,8.1-8.8v-2.7h-0.1c-1.4,2.4-4.1,4.2-8,4.2c-6.3,0-10.8-5.3-10.8-12.3c0-8.6,5.6-13.4,11.4-13.4
		c4.4,0,6.8,2.3,7.9,4.4h0.1l0.2-3.8L439.2,220.5L439.2,220.5L439.2,220.5z M434.4,230.5c0-0.8-0.1-1.5-0.3-2.1
		c-0.8-2.7-3.1-4.9-6.4-4.9c-4.4,0-7.5,3.7-7.5,9.6c0,5,2.5,9.1,7.5,9.1c2.8,0,5.4-1.8,6.4-4.7c0.3-0.8,0.4-1.7,0.4-2.5L434.4,230.5
		z M112.6,173.6c0,14.7-10.7,22.1-32.1,22.1H42.1c-8.2,0-15.3-1.6-21.3-4.7c-8.1-4-12.1-9.5-12.1-16.6v-9.3
		c0-7.7,3.8-13.4,11.5-17.2c5.7-3,12.8-4.4,21.4-4.4h55.5c-0.8-5.2-7.9-7.7-21.3-7.7h-2c-0.8,0-30.4,0.1-31.4,0.1
		c0,0.1-0.3,0.1-0.7,0.1h-3.8c-3.9,0-5.8-2.5-5.8-7.6c0-4,1.9-6.1,5.8-6.1c12.5,0,50.9,0.9,57.5,2.7c11.4,3.3,17.1,10,17.1,19.9
		L112.6,173.6L112.6,173.6z M97.2,169.8v-2.7c0-1.1-0.1-2.3-0.1-3.8c-0.1-1.4-0.1-2.7-0.1-3.8v-2.7H41.2c-3.3,0-6.6,0.6-10.1,1.8
		c-4.5,1.6-6.8,3.6-6.8,6.2v9.3c0,2.7,2.3,4.8,7,6.2c3,1.1,6.4,1.7,10.3,1.7h39c5.9,0,9.9-0.6,12-1.8
		C95.7,178.8,97.2,175.3,97.2,169.8 M222.8,189.6c0,4-2.4,6.1-7.3,6.1h-58.1c-11.2,0-19.2-1.1-24.1-3.3c-8.4-3.5-12.6-9.8-12.6-18.9
		v-29c0-14.9,11.2-22.3,33.5-22.3h62.2c4.1,0,6.1,2.3,6.1,6.8s-2,6.8-6.1,6.8h-61.1c-12.6,0-18.9,2.7-18.9,8.2v28.7
		c0,6.2,7.2,9.3,21.5,9.3h59C220.8,182.1,222.8,184.6,222.8,189.6 M330.6,189.6c0,4-2.4,6.1-7.3,6.1h-58.1
		c-11.2,0-19.2-1.1-24.1-3.3c-8.4-3.5-12.6-9.8-12.6-18.9v-29c0-14.9,11.2-22.3,33.5-22.3h62.2c4.1,0,6.1,2.3,6.1,6.8
		s-2,6.8-6.1,6.8h-61.1c-12.6,0-18.9,2.7-18.9,8.2v28.7c0,6.2,7.2,9.3,21.5,9.3h59C328.7,182.1,330.6,184.6,330.6,189.6
		 M438.8,173.8c0,14.8-15.2,22.1-45.5,22.1H390c-1.3,0-2.9-0.1-4.7-0.1c0-0.1-0.2-0.1-0.6-0.1h-7.4c-25.5,0-38.2-7.3-38.2-21.9
		v-45.5c0-4,1.9-6.1,5.8-6.1s6.1,0.2,6.8,0.5c2.1,0.8,3.1,2.6,3.1,5.5v45.6c0,5.6,7.5,8.3,22.5,8.3h23.4c14.7,0,22.1-2.7,22.1-8.1
		v-45.7c0-2.9,1.1-4.7,3.2-5.5c0.6-0.4,2.9-0.5,6.8-0.5s5.9,2,5.9,6.1L438.8,173.8L438.8,173.8z M289.1,74.8
		c-1.9-10.4-10.2-19.9-26.9-20.2c-0.4-7.1-6.3-12.7-13.5-12.7c-2.7,0-5.3,0.8-7.4,2.2C235.2,33.9,224,27,211.2,27
		c-17.2,0-31.5,12.4-34.5,28.7c-20.1,1.5-27,7.3-29.6,19.4c-2.8,13.1,1.8,28.5,18.9,28.5h99.8C284.3,103.8,291.2,86.8,289.1,74.8
		 M183.4,86.5c-1.8,0-3.3-1.5-3.3-3.3s1.5-3.3,3.3-3.3s3.3,1.5,3.3,3.3C186.8,85,185.3,86.5,183.4,86.5 M183.4,73.5
		c-1.8,0-3.3-1.5-3.3-3.3s1.5-3.3,3.3-3.3s3.3,1.5,3.3,3.3C186.8,72,185.3,73.5,183.4,73.5 M194,85.3c-1.2,0-2.1-0.9-2.1-2.1
		s0.9-2.1,2.1-2.1s2.1,0.9,2.1,2.1S195.2,85.3,194,85.3 M194,72.3c-1.2,0-2.1-0.9-2.1-2.1s0.9-2.1,2.1-2.1s2.1,0.9,2.1,2.1
		C196.1,71.3,195.2,72.3,194,72.3 M203,84.7c-0.8,0-1.4-0.6-1.4-1.4s0.6-1.4,1.4-1.4s1.4,0.6,1.4,1.4C204.4,84,203.8,84.7,203,84.7
		 M203,71.7c-0.8,0-1.4-0.6-1.4-1.4s0.6-1.4,1.4-1.4s1.4,0.6,1.4,1.4C204.4,71,203.8,71.7,203,71.7 M253.2,84.5h-39.5
		c-0.7,0-1.4-0.6-1.4-1.4c0-0.7,0.6-1.4,1.4-1.4h39.5c0.7,0,1.4,0.6,1.4,1.4S254,84.5,253.2,84.5 M253.2,71.5h-39.5
		c-0.7,0-1.4-0.6-1.4-1.4s0.6-1.4,1.4-1.4h39.5c0.7,0,1.4,0.6,1.4,1.4S254,71.5,253.2,71.5 M256.1,31.7V37c7,1.7,12.5,7.3,14.3,14.3
		h5.3c-0.9-4.8-3.3-9.2-6.8-12.7C265.3,34.8,260.9,32.5,256.1,31.7 M278.9,28.3c-3.6-3.6-7.8-6.4-12.4-8.4
		c-3.4-1.4-6.8-2.3-10.4-2.8v5.2c14.9,2.1,26.7,13.9,28.8,28.8h5.2c-0.4-3.6-1.4-7.1-2.8-10.4C285.3,36,282.5,32,278.9,28.3"/>
	<g>
		<path class="st0" d="M488.4,229.3h-1.2c-1,0-1.8,0.5-2.4,1.4l-10,17.9h5.8l7.2-13.3l3.4,6.2l2.2,4.1l1.6,3h5.7l-10-17.9
			C490.2,229.8,489.4,229.3,488.4,229.3z"/>
		<path class="st0" d="M520.9,240.6l-9.3-9.8c-0.2-0.2-0.4-0.4-0.6-0.6c-0.2-0.2-0.4-0.3-0.7-0.4c-0.2-0.1-0.5-0.2-0.8-0.3
			s-0.7-0.1-1.1-0.1h-1.3c-1.6,0-2.4,0.7-2.4,2.2v17.1h5.1v-12.4L520,247c0.5,0.6,1,1,1.4,1.2c0.4,0.3,1,0.4,1.7,0.4h1.1
			c1.3,0,2-0.7,2-2v-17.3h-5.1v11.3H520.9z"/>
		<path class="st0" d="M548.2,240.6l-9.3-9.8c-0.2-0.2-0.4-0.4-0.6-0.6c-0.2-0.2-0.4-0.3-0.7-0.4c-0.2-0.1-0.5-0.2-0.8-0.3
			s-0.7-0.1-1.1-0.1h-1.3c-1.6,0-2.4,0.7-2.4,2.2v17.1h5.1v-12.4l10.1,10.7c0.5,0.6,1,1,1.4,1.2c0.4,0.3,1,0.4,1.7,0.4h1.1
			c1.3,0,2-0.7,2-2v-17.3h-5.1v11.3H548.2z"/>
		<rect x="559.4" y="229.3" class="st0" width="5.3" height="19.3"/>
		<path class="st0" d="M581.9,242.4l-7-13.1H569l10,17.9c0.5,1,1.3,1.4,2.4,1.4h1.2c1,0,1.8-0.5,2.3-1.4l10.1-17.9h-5.9L581.9,242.4
			z"/>
		<polygon class="st0" points="603.6,241 616.9,241 616.9,236.9 603.6,236.9 603.6,234.3 617.2,234.3 617.2,229.3 598.3,229.3 
			598.3,248.6 617.2,248.6 617.2,243.6 603.6,243.6 		"/>
		<path class="st0" d="M642.9,240.4c0.7-1.1,1.1-2.4,1.1-3.9c0-1.1-0.2-2-0.6-2.9c-0.4-0.9-0.9-1.7-1.6-2.3
			c-0.7-0.6-1.5-1.1-2.5-1.5c-0.9-0.3-2-0.5-3.1-0.5h-13.5v19.3h5.3v-4.9h6.2l3.9,4.9h6.9l-5-5.7
			C641.2,242.4,642.2,241.5,642.9,240.4z M638,238.6c-0.5,0.4-1.1,0.7-1.8,0.7H628v-4.9h8.3c0.7,0,1.3,0.2,1.8,0.7
			c0.5,0.4,0.7,1,0.7,1.8C638.7,237.5,638.5,238.1,638,238.6z"/>
		<path class="st0" d="M668.8,238.5c-0.6-0.5-1.2-0.9-2-1.2s-1.6-0.4-2.5-0.4h-8.6c-0.4,0-0.7-0.1-0.9-0.4c-0.2-0.2-0.3-0.6-0.3-1
			s0.1-0.7,0.3-1c0.2-0.2,0.5-0.3,0.9-0.3h14.7v-5h-14.9c-0.9,0-1.7,0.1-2.5,0.4c-0.8,0.3-1.4,0.7-2,1.2s-1,1.1-1.3,1.9
			c-0.3,0.7-0.5,1.5-0.5,2.4s0.2,1.7,0.5,2.4s0.7,1.3,1.3,1.8s1.2,0.9,2,1.2s1.6,0.4,2.5,0.4h8.6c0.4,0,0.7,0.1,0.9,0.4
			c0.2,0.2,0.4,0.6,0.4,1s-0.1,0.7-0.4,1c-0.2,0.2-0.6,0.3-0.9,0.3h-14.7v5h14.9c0.9,0,1.8-0.1,2.5-0.4c0.8-0.3,1.4-0.7,2-1.2
			s1-1.1,1.3-1.9c0.3-0.7,0.5-1.5,0.5-2.4s-0.2-1.6-0.5-2.4C669.8,239.6,669.3,239,668.8,238.5z"/>
		<path class="st0" d="M686.6,229.3h-1.2c-1,0-1.8,0.5-2.4,1.4l-10,17.9h5.8l7.2-13.3l3.4,6.2l2.2,4.1l1.6,3h5.7l-10-17.9
			C688.4,229.8,687.7,229.3,686.6,229.3z"/>
		<path class="st0" d="M722.3,240.4c0.7-1.1,1.1-2.4,1.1-3.9c0-1.1-0.2-2-0.6-2.9c-0.4-0.9-0.9-1.7-1.6-2.3
			c-0.7-0.6-1.5-1.1-2.5-1.5c-0.9-0.3-2-0.5-3.1-0.5h-13.5v19.3h5.3v-4.9h6.2l3.9,4.9h6.9l-5-5.7
			C720.6,242.4,721.5,241.5,722.3,240.4z M717.4,238.6c-0.5,0.4-1.1,0.7-1.8,0.7h-8.3v-4.9h8.3c0.7,0,1.3,0.2,1.8,0.7
			c0.5,0.4,0.7,1,0.7,1.8C718.1,237.5,717.8,238.1,717.4,238.6z"/>
		<polygon class="st0" points="743.1,229.3 737.5,237 732,229.3 725.8,229.3 734.8,241.8 734.8,248.6 740,248.6 740,241.8 
			749,229.3 		"/>
	</g>
	<path class="st0" d="M741.3,177.2c-1.2,0-2.4,0.3-3.4,0.7V171h-4.3v18.8c0,1.7-1.5,3.1-3.4,3.1s-3.4-1.4-3.4-3.1v-7h3.9v-4h-3.9
		V171h-4.3v18.8c0,3.9,3.5,7.1,7.7,7.1c4.3,0,7.7-3.2,7.7-7.1v-5.5c0-1.7,1.5-3.1,3.4-3.1s3.4,1.4,3.4,3.1v12.5h4.3v-12.5
		C749.1,180.4,745.6,177.2,741.3,177.2z"/>
	<path class="st0" d="M719.3,72.9v51c0,27.6-19.4,52.4-48.2,60.7c-48.7,14-93.6-19.1-93.6-61.6V74v-0.2c0-23-25.4-40.7-51.9-30.8
		C513.7,47.5,504,61,504,72.8v8.3h-3.8v-8.3c0-14.4,9.4-27.6,23.9-33c29.2-10.8,57.1,8.7,57.1,34V124c0,25.4,17.2,48.4,43.4,56.7
		c46.9,14.9,90.8-16.8,90.8-57.6h-3.8c0,38.6-41.4,68.4-85.7,54.4c-24.7-7.8-40.9-29.5-40.9-53.4V72.9c0-16-10.5-30.6-26.7-36.4
		c-31.7-11.4-61.9,9.9-61.9,37.4v7.3h-3.8v-8.3c0-15.8,13-33.9,29.1-39.6C556.1,21,588.9,44,588.9,73.9V124
		c0,22.4,15.3,42.8,38.4,50.2c41.7,13.3,80.6-14.8,80.6-51.1h-3.8c0,34-36.5,60.3-75.6,47.8c-21.6-6.9-35.9-25.9-35.9-46.8V72.9
		c0-19.4-13.1-36.9-33.1-43.4c-36.5-11.9-70.8,12.7-70.8,44.4v7.3H485V73c0-21,14.3-39.9,35.9-46.8c39-12.5,75.6,13.8,75.6,47.8
		v50.2c0,19.4,13.1,36.9,33.1,43.4c36.5,11.9,70.8-12.7,70.8-44.4h-3.8c0,29.9-32.8,52.9-67.2,40.6c-16.1-5.7-29.1-23.8-29.1-39.6
		V72.9c0-22.4-15.3-42.8-38.4-50.2c-41.7-13.3-80.6,14.8-80.6,51.1v7.3h-3.8v-8.2c0-23.9,16.2-45.5,40.9-53.4
		c44.3-14.1,85.7,15.8,85.7,54.4v50.2c0,16,10.5,30.6,26.7,36.4c31.7,11.4,61.9-9.9,61.9-37.4H689c0,25.3-27.9,44.8-57.1,34
		c-14.6-5.4-23.9-18.6-23.9-33V72.9c0-25.4-17.2-48.4-43.4-56.7c-47.1-14.8-91,16.8-91,57.7v7.3h-3.8V73c0-27.8,19.6-52.7,48.7-60.9
		C535,7.5,551,8.3,565,12.9c2.2,0.7,4.3,1.6,6.4,2.5c2.1,0.9,4.1,1.9,6,3c5.8,3.3,11.1,7.3,15.7,11.9c0.4,0.4,0.8,0.8,1.1,1.2
		c7.4,7.8,12.9,17.3,15.5,27.8c0.1,0.5,0.3,1,0.4,1.6c0.4,1.6,0.6,3.2,0.9,4.8c0.4,2.7,0.6,5.5,0.6,8.2v0.2v50.1
		c0,11.8,9.7,25.3,21.6,29.7c26.5,9.9,51.9-7.8,51.9-30.8V72.8c0-12.9-8.4-24.8-21.5-29.7c-19.9-7.5-39.2,0.6-47.6,14.9
		c-2.9-11.5-8.9-21.9-17.1-30.5c18-16,45.2-23.4,73.6-14.8C700.7,21.3,719.3,45.8,719.3,72.9z M571.2,92c-6,8.1-17.3,17.6-38.7,28.5
		c-26.9,13.7-62.6,36.3-62.6,73.7v26.6H597l122.2-13.5c0.3,0,0.3-0.4,0-0.4l-214.8-17.3c1.7-10,10.1-24.1,44.7-41.7
		c7.3-3.7,15.3-8.2,23.1-13.3c-0.7-3.7-1-7.5-1-11.4V92z"/>
</g>
</svg>
