<?xml version="1.0" encoding="utf-8"?>
<!-- Generator: Adobe Illustrator 26.5.0, SVG Export Plug-In . SVG Version: 6.00 Build 0)  -->
<svg version="1.1" id="Layer_1" xmlns="http://www.w3.org/2000/svg" xmlns:xlink="http://www.w3.org/1999/xlink" x="0px" y="0px"
	 viewBox="0 0 1000 200" style="enable-background:new 0 0 1000 200;" xml:space="preserve">
<style type="text/css">
	.st0{fill:#FF6200;}
</style>
<g>
	<g>
		<g>
			<path class="st0" d="M269.586,173.492h25.14v3.637h-29.475V126.22h4.335V173.492z"/>
			<path class="st0" d="M298.703,157.653c0-3.636,0.705-6.911,2.115-9.825c1.41-2.914,3.403-5.18,5.979-6.801
				c2.575-1.62,5.494-2.43,8.759-2.43c5.034,0,9.113,1.766,12.237,5.297c3.123,3.531,4.685,8.211,4.685,14.038v0.875
				c0,3.659-0.705,6.952-2.114,9.877c-1.411,2.926-3.398,5.181-5.962,6.766c-2.564,1.586-5.489,2.378-8.776,2.378
				c-5.012,0-9.085-1.766-12.22-5.297c-3.136-3.531-4.703-8.211-4.703-14.039V157.653z M302.899,158.807
				c0,4.522,1.171,8.234,3.514,11.136c2.343,2.902,5.413,4.354,9.213,4.354c3.776,0,6.836-1.451,9.179-4.354
				c2.343-2.901,3.514-6.73,3.514-11.486v-0.804c0-2.89-0.536-5.536-1.608-7.937s-2.576-4.26-4.511-5.577
				c-1.935-1.316-4.149-1.976-6.643-1.976c-3.73,0-6.772,1.463-9.126,4.388c-2.354,2.926-3.531,6.754-3.531,11.486V158.807z"/>
			<path class="st0" d="M339.35,157.863c0-5.92,1.312-10.612,3.934-14.073s6.183-5.192,10.682-5.192
				c5.151,0,9.067,2.052,11.748,6.154l0.21-5.455h3.916v37.062c0,4.872-1.363,8.729-4.091,11.573s-6.422,4.266-11.084,4.266
				c-2.634,0-5.146-0.589-7.535-1.766s-4.271-2.744-5.646-4.702l2.343-2.518c2.96,3.636,6.479,5.454,10.56,5.454
				c3.496,0,6.224-1.031,8.182-3.094c1.958-2.063,2.972-4.925,3.042-8.584v-4.756c-2.681,3.73-6.586,5.595-11.714,5.595
				c-4.382,0-7.901-1.748-10.559-5.245c-2.657-3.496-3.986-8.216-3.986-14.16V157.863z M343.581,158.597
				c0,4.825,0.968,8.631,2.902,11.416s4.662,4.178,8.182,4.178c5.151,0,8.799-2.308,10.944-6.923v-17.587
				c-0.979-2.424-2.39-4.271-4.23-5.542c-1.842-1.27-4.057-1.906-6.644-1.906c-3.521,0-6.259,1.381-8.217,4.144
				S343.581,153.213,343.581,158.597z"/>
			<path class="st0" d="M378.698,157.863c0-5.92,1.311-10.612,3.934-14.073c2.622-3.461,6.183-5.192,10.682-5.192
				c5.151,0,9.067,2.052,11.748,6.154l0.21-5.455h3.916v37.062c0,4.872-1.364,8.729-4.092,11.573
				c-2.727,2.844-6.422,4.266-11.083,4.266c-2.635,0-5.146-0.589-7.535-1.766c-2.39-1.177-4.271-2.744-5.646-4.702l2.342-2.518
				c2.96,3.636,6.48,5.454,10.56,5.454c3.497,0,6.224-1.031,8.182-3.094c1.958-2.063,2.973-4.925,3.042-8.584v-4.756
				c-2.681,3.73-6.585,5.595-11.713,5.595c-4.383,0-7.902-1.748-10.56-5.245c-2.657-3.496-3.985-8.216-3.985-14.16V157.863z
				 M382.928,158.597c0,4.825,0.967,8.631,2.902,11.416c1.935,2.785,4.661,4.178,8.182,4.178c5.151,0,8.799-2.308,10.943-6.923
				v-17.587c-0.979-2.424-2.39-4.271-4.23-5.542c-1.842-1.27-4.056-1.906-6.644-1.906c-3.52,0-6.259,1.381-8.217,4.144
				S382.928,153.213,382.928,158.597z"/>
			<path class="st0" d="M423.935,177.129h-4.195v-53.706h4.195V177.129z"/>
			<path class="st0" d="M446.984,171.115l11.049-31.818h4.511l-16.154,44.266l-0.839,1.958c-2.075,4.592-5.279,6.888-9.615,6.888
				c-1.003,0-2.075-0.163-3.217-0.489l-0.035-3.462l2.168,0.21c2.051,0,3.712-0.507,4.982-1.521
				c1.271-1.015,2.348-2.757,3.234-5.228l1.853-5.104l-14.266-37.518h4.581L446.984,171.115z"/>
		</g>
		<g>
			<g>
				<g>
					<g>
						<path class="st0" d="M409.642,96.429V33.558h11.028V86.72h30.122v9.709H409.642z"/>
					</g>
					<g>
						<path class="st0" d="M516.316,96.429l-4.618-12.065h-29.786l-4.619,12.065h-12.065l24.696-62.871h13.761l24.696,62.871
							H516.316z M496.804,42.89l-11.782,31.765h23.564L496.804,42.89z"/>
					</g>
					<g>
						<path class="st0" d="M668.982,96.429l-12.253-46.376l-12.159,46.376h-11.783l-18.004-62.871h12.348l12.254,48.45l13.007-48.45
							h8.766l13.007,48.45l12.159-48.45h12.348l-17.909,62.871H668.982z"/>
					</g>
					<g>
						<path class="st0" d="M720.36,96.429V33.558h11.028v62.871H720.36z"/>
					</g>
					<g>
						<path class="st0" d="M803.944,96.429l-32.802-45.81v45.81h-11.028V33.558h11.311l32.142,44.585V33.558h11.028v62.871H803.944z
							"/>
					</g>
					<g>
						<path class="st0" d="M840.912,96.429V33.558h23.376c19.606,0,32.896,13.008,32.896,31.482
							c0,18.476-13.29,31.389-32.896,31.389H840.912z M851.94,86.72h12.348c13.667,0,21.585-9.803,21.585-21.68
							c0-12.159-7.541-21.773-21.585-21.773H851.94V86.72z"/>
					</g>
					<g>
						<path class="st0" d="M358.026,32.521c-17.96,0-32.52,14.56-32.52,32.52c0,17.96,14.56,32.52,32.52,32.52
							c17.96,0,32.52-14.56,32.52-32.52C390.546,47.081,375.986,32.521,358.026,32.521z M358.026,86.58
							c-11.896,0-21.539-9.643-21.539-21.539s9.643-21.539,21.539-21.539s21.539,9.643,21.539,21.539S369.921,86.58,358.026,86.58z"
							/>
					</g>
					<g>
						<path class="st0" d="M588.674,76.699L588.674,76.699l-0.092-0.148l-0.057-0.091l-2.941-4.727l-0.009,0l-0.581-0.93
							c6.179-2.3,11.436-8.063,11.436-17.544c0-11.594-8.107-19.7-20.549-19.7h-27.618v62.871h11.028V72.958h4.046h6.888h4.046
							l13.95,23.471h12.725L588.674,76.699z M559.293,63.249V43.267h15.081c6.221,0,10.746,3.959,10.746,9.992
							c0,6.033-4.524,9.991-10.746,9.991H559.293z"/>
					</g>
					<g>
						<path class="st0" d="M287.373,58.631c-7.447-1.886-13.856-3.488-13.856-8.389c0-4.713,4.147-7.824,10.651-7.824
							c6.231,0,12.527,2.048,17.339,6.401l6.931-7.128l0.238-0.31c-5.844-5.656-13.762-8.766-23.565-8.766
							c-13.762,0-22.905,8.012-22.905,18.381c0,13.29,12.065,16.306,22.34,18.852c7.635,1.979,14.327,3.676,14.327,9.332
							c0,4.148-3.582,8.577-12.631,8.577c-8.015,0-14.369-3.391-18.714-7.502l-7.205,7.41c5.562,5.885,13.919,9.895,25.448,9.895
							c16.967,0,24.318-8.955,24.318-19.418C310.089,64.475,297.741,61.27,287.373,58.631z"/>
					</g>
					<g>
						<path class="st0" d="M940.862,58.631c-7.447-1.886-13.856-3.488-13.856-8.389c0-4.713,4.147-7.824,10.651-7.824
							c6.231,0,12.527,2.048,17.339,6.401l6.93-7.128l0.239-0.31c-5.844-5.656-13.762-8.766-23.565-8.766
							c-13.762,0-22.905,8.012-22.905,18.381c0,13.29,12.065,16.306,22.34,18.852c7.635,1.979,14.327,3.676,14.327,9.332
							c0,4.148-3.582,8.577-12.631,8.577c-8.015,0-14.369-3.391-18.714-7.502l-7.205,7.41c5.562,5.885,13.919,9.895,25.448,9.895
							c16.966,0,24.318-8.955,24.318-19.418C963.579,64.475,951.231,61.27,940.862,58.631z"/>
					</g>
				</g>
			</g>
			<g>
				<g>
					<g>
						<g>
							<path class="st0" d="M975.398,38.883h-1.356v2.336h-0.765v-5.775h1.912c0.65,0,1.151,0.148,1.501,0.444
								c0.351,0.296,0.526,0.727,0.526,1.293c0,0.36-0.097,0.673-0.292,0.94c-0.194,0.267-0.465,0.467-0.811,0.599l1.356,2.451
								v0.048h-0.817L975.398,38.883z M974.041,38.26h1.17c0.378,0,0.679-0.098,0.902-0.294c0.223-0.196,0.335-0.458,0.335-0.787
								c0-0.358-0.107-0.632-0.319-0.822c-0.213-0.191-0.52-0.287-0.922-0.29h-1.166V38.26z"/>
						</g>
					</g>
					<g>
						<path class="st0" d="M975.034,43.422c-2.738,0-4.966-2.228-4.966-4.967c0-2.738,2.228-4.966,4.966-4.966
							c2.738,0,4.966,2.228,4.966,4.966C980,41.194,977.772,43.422,975.034,43.422z M975.034,34.196c-2.349,0-4.26,1.911-4.26,4.26
							c0,2.349,1.911,4.261,4.26,4.261s4.26-1.911,4.26-4.261C979.294,36.107,977.383,34.196,975.034,34.196z"/>
					</g>
				</g>
			</g>
			<g>
				<path class="st0" d="M940.862,58.631c-7.447-1.886-13.856-3.488-13.856-8.389c0-4.713,4.147-7.824,10.651-7.824
					c6.231,0,12.527,2.048,17.339,6.401l6.93-7.128l0.239-0.31c-5.844-5.656-13.762-8.766-23.565-8.766
					c-13.762,0-22.905,8.012-22.905,18.381c0,13.29,12.065,16.306,22.34,18.852c7.635,1.979,14.327,3.676,14.327,9.332
					c0,4.148-3.582,8.577-12.631,8.577c-8.015,0-14.369-3.391-18.714-7.502l-7.205,7.41c5.562,5.885,13.919,9.895,25.448,9.895
					c16.966,0,24.318-8.955,24.318-19.418C963.579,64.475,951.231,61.27,940.862,58.631z"/>
			</g>
			<g>
				<g>
					<g>
						<g>
							<path class="st0" d="M975.398,38.883h-1.356v2.336h-0.765v-5.775h1.912c0.65,0,1.151,0.148,1.501,0.444
								c0.351,0.296,0.526,0.727,0.526,1.293c0,0.36-0.097,0.673-0.292,0.94c-0.194,0.267-0.465,0.467-0.811,0.599l1.356,2.451
								v0.048h-0.817L975.398,38.883z M974.041,38.26h1.17c0.378,0,0.679-0.098,0.902-0.294c0.223-0.196,0.335-0.458,0.335-0.787
								c0-0.358-0.107-0.632-0.319-0.822c-0.213-0.191-0.52-0.287-0.922-0.29h-1.166V38.26z"/>
						</g>
					</g>
					<g>
						<path class="st0" d="M975.034,43.422c-2.738,0-4.966-2.228-4.966-4.967c0-2.738,2.228-4.966,4.966-4.966
							c2.738,0,4.966,2.228,4.966,4.966C980,41.194,977.772,43.422,975.034,43.422z M975.034,34.196c-2.349,0-4.26,1.911-4.26,4.26
							c0,2.349,1.911,4.261,4.26,4.261s4.26-1.911,4.26-4.261C979.294,36.107,977.383,34.196,975.034,34.196z"/>
					</g>
				</g>
			</g>
		</g>
		<g>
			<g>
				<g>
					<g>
						<g>
							<path class="st0" d="M112.745,94.791c0.57-0.153,1.123-0.305,1.692-0.469c12.49-3.522,24.64-8.4,36.713-13.453
								c11.82-4.946,23.509-10.885,33.78-19.244c10.54-8.574,19.017-19.681,23.697-33.456c0.659-1.917,2.006-4.682,2.136-6.785
								c-16.412,22.442-81.517,24.758-81.517,24.758l15.364-14.095C82.847,32.165,39.747,58.381,20,72.401
								c25.271,2.711,48.147,13.414,66.057,29.532C94.869,99.204,103.864,97.233,112.745,94.791z"/>
						</g>
						<g>
							<path class="st0" d="M214.849,92.587c0,0-60.073-4.594-122.474,15.499c8.279,8.649,15.257,18.542,20.605,29.39
								C145.789,119.213,191.284,95.88,214.849,92.587z"/>
						</g>
						<g>
							<path class="st0" d="M117.092,146.852c3.81,9.797,6.365,20.219,7.425,31.075l57.186-58.815L117.092,146.852z"/>
						</g>
					</g>
				</g>
			</g>
		</g>
		<g>
			<g>
				<g>
					<g>
						<path class="st0" d="M147.408,170.852h-2.409v6.686h-0.983v-6.686h-2.404v-0.808h5.796V170.852z"/>
					</g>
					<g>
						<path class="st0" d="M149.796,170.044l2.45,6.115l2.45-6.115h1.282v7.494h-0.988v-2.918l0.093-3.15l-2.46,6.068h-0.757
							l-2.455-6.053l0.098,3.135v2.918h-0.988v-7.494H149.796z"/>
					</g>
				</g>
			</g>
		</g>
		<g>
			<path class="st0" d="M117.092,146.852c3.81,9.797,6.365,20.219,7.425,31.075l57.186-58.815L117.092,146.852z"/>
		</g>
	</g>
	<g>
		<g>
			<g>
				<g>
					<path class="st0" d="M473.786,131.586h-1.356v2.336h-0.765v-5.775h1.912c0.65,0,1.151,0.148,1.501,0.444
						c0.351,0.296,0.526,0.727,0.526,1.293c0,0.36-0.097,0.673-0.292,0.94c-0.194,0.267-0.465,0.467-0.811,0.599l1.356,2.451v0.048
						h-0.817L473.786,131.586z M472.43,130.963h1.17c0.378,0,0.679-0.098,0.902-0.294c0.223-0.196,0.335-0.458,0.335-0.787
						c0-0.358-0.107-0.632-0.319-0.822c-0.213-0.191-0.52-0.287-0.922-0.29h-1.166V130.963z"/>
				</g>
			</g>
			<g>
				<path class="st0" d="M473.422,136.126c-2.738,0-4.966-2.228-4.966-4.967c0-2.738,2.228-4.966,4.966-4.966
					c2.738,0,4.966,2.228,4.966,4.966C478.389,133.898,476.161,136.126,473.422,136.126z M473.422,126.899
					c-2.349,0-4.26,1.911-4.26,4.26s1.911,4.261,4.26,4.261c2.349,0,4.26-1.911,4.26-4.261S475.772,126.899,473.422,126.899z"/>
			</g>
		</g>
	</g>
</g>
</svg>
