<?xml version="1.0" encoding="utf-8"?>
<!-- Generator: Adobe Illustrator 26.5.0, SVG Export Plug-In . SVG Version: 6.00 Build 0)  -->
<svg version="1.1" id="Layer_1" xmlns="http://www.w3.org/2000/svg" xmlns:xlink="http://www.w3.org/1999/xlink" x="0px" y="0px"
	 viewBox="0 0 600 500" style="enable-background:new 0 0 600 500;" xml:space="preserve">
<style type="text/css">
	.st0{fill:#FF6200;}
	.st1{fill:#FFFFFF;}
	.st2{fill:#6E8C96;}
</style>
<g>
	<g>
		<g>
			<g>
				<g>
					<g>
						<g>
							<path class="st1" d="M286.072,235.52c1.698-0.455,3.344-0.907,5.036-1.397c37.18-10.483,73.344-25.005,109.283-40.045
								c35.183-14.723,69.98-32.402,100.551-57.284c31.374-25.523,56.609-58.585,70.539-99.586
								c1.962-5.708,5.972-13.936,6.357-20.197c-48.853,66.801-242.648,73.696-242.648,73.696l45.732-41.956
								C197.074,49.102,68.779,127.138,10,168.873c75.222,8.069,143.318,39.93,196.629,87.907
								C232.861,248.656,259.635,242.788,286.072,235.52z"/>
							<path class="st1" d="M590,228.959c0,0-178.818-13.676-364.565,46.136c24.645,25.744,45.415,55.194,61.333,87.483
								C384.432,308.215,519.855,238.762,590,228.959z"/>
							<path class="st1" d="M299.011,390.488c11.341,29.162,18.945,60.184,22.103,92.501l170.225-175.073L299.011,390.488z"/>
						</g>
					</g>
				</g>
			</g>
		</g>
	</g>
	<g>
		<path class="st1" d="M385.753,465.84h-5.738v15.925h-2.342V465.84h-5.725v-1.925h13.804V465.84z"/>
		<path class="st1" d="M391.441,463.916l5.836,14.565l5.836-14.565h3.053v17.85h-2.354v-6.951l0.221-7.503l-5.86,14.454h-1.802
			l-5.848-14.417l0.233,7.466v6.951h-2.354v-17.85H391.441z"/>
	</g>
</g>
</svg>
