<svg width="160" height="32" viewBox="0 0 160 32" fill="none" xmlns="http://www.w3.org/2000/svg">
<path d="M47.6476 6.34961H56.5906C59.5172 6.34961 61.5353 8.83921 61.5353 11.8184C61.5353 13.6232 60.4602 14.964 59.4103 15.4024C59.3809 15.4104 59.3549 15.4281 59.3364 15.4527C59.3178 15.4773 59.3078 15.5074 59.3078 15.5384C59.3078 15.5694 59.3178 15.5995 59.3364 15.6241C59.3549 15.6487 59.3809 15.6664 59.4103 15.6744C60.6677 16.196 61.9628 18.2344 61.9628 20.132C61.9628 23.3864 59.6523 25.6008 56.4586 25.6008H47.657C47.6389 25.6023 47.6207 25.5997 47.6037 25.5933C47.5866 25.5869 47.5712 25.5768 47.5583 25.5637C47.5455 25.5506 47.5356 25.5349 47.5293 25.5175C47.523 25.5002 47.5205 25.4817 47.5219 25.4632V6.48721C47.5206 6.46961 47.5229 6.45193 47.5286 6.43527C47.5343 6.41862 47.5434 6.40335 47.5552 6.39043C47.567 6.37751 47.5813 6.36721 47.5972 6.36018C47.6131 6.35316 47.6303 6.34956 47.6476 6.34961ZM56.0814 8.64721H50.2001C50.1818 8.64582 50.1635 8.6484 50.1463 8.65478C50.1291 8.66116 50.1135 8.6712 50.1004 8.68421C50.0873 8.69723 50.0771 8.71293 50.0704 8.73028C50.0638 8.74762 50.0608 8.76621 50.0618 8.78481V14.3912C50.0613 14.4095 50.0646 14.4278 50.0714 14.4447C50.0783 14.4617 50.0886 14.477 50.1016 14.4897C50.1146 14.5023 50.1301 14.5121 50.1471 14.5183C50.164 14.5245 50.1821 14.527 50.2001 14.5256H56.0814C57.4771 14.4712 58.9796 13.4056 58.9796 11.8184C58.9796 10.18 57.9895 8.64721 56.0814 8.64721ZM50.2001 16.852C50.1821 16.8507 50.164 16.8532 50.1471 16.8594C50.1301 16.8655 50.1146 16.8753 50.1016 16.888C50.0886 16.9006 50.0783 16.9159 50.0714 16.9329C50.0646 16.9498 50.0613 16.9681 50.0618 16.9864V23.14C50.0608 23.1586 50.0638 23.1772 50.0704 23.1946C50.0771 23.2119 50.0873 23.2276 50.1004 23.2406C50.1135 23.2536 50.1291 23.2637 50.1463 23.27C50.1635 23.2764 50.1818 23.279 50.2001 23.2776H56.0814C58.0429 23.2776 59.4103 21.7736 59.4103 20.132C59.4103 18.4904 57.9895 16.852 56.2669 16.852H50.2001Z" fill="#2424FC"/>
<path d="M66.577 25.4634C66.5779 25.4817 66.575 25.5 66.5686 25.5172C66.5621 25.5343 66.5522 25.5498 66.5394 25.5628C66.5267 25.5757 66.5114 25.5858 66.4946 25.5924C66.4778 25.599 66.4598 25.6019 66.4418 25.601H64.1566C64.1387 25.602 64.1209 25.5991 64.1042 25.5925C64.0875 25.5858 64.0725 25.5757 64.06 25.5626C64.0475 25.5496 64.0379 25.534 64.0317 25.5169C64.0256 25.4998 64.0232 25.4816 64.0246 25.4634V6.48739C64.0232 6.46924 64.0256 6.451 64.0317 6.43389C64.0379 6.41678 64.0475 6.40119 64.06 6.38817C64.0725 6.37515 64.0875 6.36499 64.1042 6.35837C64.1209 6.35175 64.1387 6.34883 64.1566 6.34979H66.4418C66.4598 6.34887 66.4778 6.3518 66.4946 6.35839C66.5114 6.36498 66.5267 6.37509 66.5394 6.38805C66.5522 6.40102 66.5621 6.41655 66.5686 6.43366C66.575 6.45077 66.5779 6.46908 66.577 6.48739V25.4634Z" fill="#2424FC"/>
<path d="M79.2011 25.6005C79.1194 25.6005 79.0911 25.5461 79.0628 25.4629L78.7956 24.2308C78.7422 24.0644 78.5567 24.122 78.5001 24.202C78.0192 24.9124 76.7021 25.8693 74.9826 25.8693C70.5473 25.8693 69.1264 22.9892 69.1264 19.4178V11.8974C69.1236 11.8788 69.1249 11.8597 69.1302 11.8417C69.1355 11.8236 69.1446 11.807 69.1569 11.7929C69.1692 11.7789 69.1844 11.7677 69.2014 11.7603C69.2184 11.753 69.2368 11.7495 69.2553 11.7502H71.5406C71.5586 11.7492 71.5766 11.7522 71.5934 11.7588C71.6102 11.7654 71.6254 11.7755 71.6382 11.7884C71.6509 11.8014 71.6608 11.8169 71.6673 11.834C71.6738 11.8512 71.6767 11.8695 71.6758 11.8878V19.4306C71.6758 21.5075 72.5873 23.5588 75.2467 23.5588C77.5037 23.5588 78.7925 21.5619 78.7925 19.4306V11.9102C78.7911 11.892 78.7935 11.8738 78.7997 11.8567C78.8058 11.8396 78.8154 11.824 78.8279 11.8109C78.8404 11.7979 78.8555 11.7878 78.8721 11.7811C78.8888 11.7745 78.9066 11.7716 78.9245 11.7726H81.2003C81.2183 11.7717 81.2363 11.7746 81.2531 11.7812C81.2699 11.7878 81.2852 11.7979 81.2979 11.8108C81.3106 11.8238 81.3206 11.8393 81.327 11.8564C81.3335 11.8736 81.3364 11.8919 81.3355 11.9102V25.4725C81.3364 25.4908 81.3335 25.5091 81.327 25.5262C81.3206 25.5433 81.3106 25.5589 81.2979 25.5718C81.2852 25.5848 81.2699 25.5949 81.2531 25.6015C81.2363 25.6081 81.2183 25.611 81.2003 25.6101L79.2011 25.6005Z" fill="#2424FC"/>
<path d="M85.9345 19.75C85.9241 20.2592 86.0164 20.7651 86.2056 21.2366C86.3948 21.708 86.6769 22.135 87.0345 22.4912C87.392 22.8474 87.8175 23.1252 88.2847 23.3076C88.7518 23.4899 89.2507 23.5729 89.7506 23.5513C91.6555 23.5513 92.5797 22.7322 93.1612 21.6315C93.2146 21.5227 93.2681 21.4939 93.3467 21.4939H95.7388C95.8174 21.4939 95.8991 21.5227 95.874 21.6315C95.173 24.3097 92.784 25.8679 89.7506 25.8679C85.7176 25.8679 83.2217 22.9434 83.2217 18.6781C83.2217 14.4128 85.5855 11.4883 89.7506 11.4883C93.9156 11.4883 96.3046 14.4128 96.3046 18.6781C96.307 18.9449 96.2796 19.2111 96.2229 19.4717C96.1977 19.5548 96.1695 19.6092 96.0877 19.6092H86.0696C86.0512 19.6077 86.0327 19.6104 86.0154 19.617C85.9981 19.6235 85.9825 19.6339 85.9696 19.6474C85.9567 19.6608 85.9469 19.677 85.9408 19.6947C85.9347 19.7125 85.9325 19.7313 85.9345 19.75ZM89.7506 13.8177C88.7823 13.8106 87.848 14.1804 87.1387 14.8513C86.4293 15.5222 85.9986 16.4436 85.9345 17.427C85.9367 17.4628 85.9516 17.4965 85.9765 17.5218C86.0014 17.5471 86.0345 17.5623 86.0696 17.5646H93.3749C93.3929 17.5655 93.4109 17.5626 93.4277 17.556C93.4445 17.5494 93.4598 17.5393 93.4725 17.5263C93.4853 17.5134 93.4952 17.4978 93.5017 17.4807C93.5081 17.4636 93.511 17.4453 93.5101 17.427C93.5101 15.8655 92.4068 13.8145 89.7506 13.8145V13.8177Z" fill="#2424FC"/>
<path d="M98.6629 6.4876C98.6615 6.46945 98.664 6.45121 98.6701 6.4341C98.6762 6.41699 98.6858 6.4014 98.6983 6.38838C98.7108 6.37536 98.7259 6.3652 98.7425 6.35858C98.7592 6.35196 98.777 6.34904 98.7949 6.35H101.077C101.095 6.34856 101.113 6.35112 101.13 6.35753C101.147 6.36393 101.163 6.37402 101.176 6.3871C101.189 6.40018 101.199 6.41593 101.205 6.43328C101.211 6.45063 101.214 6.46916 101.212 6.4876V23.1276C101.211 23.1461 101.213 23.1646 101.22 23.182C101.226 23.1993 101.236 23.2151 101.249 23.2281C101.261 23.2412 101.277 23.2513 101.294 23.2577C101.311 23.2641 101.329 23.2667 101.347 23.2652H110.749C110.767 23.2639 110.785 23.2664 110.802 23.2726C110.819 23.2788 110.835 23.2885 110.848 23.3012C110.861 23.3138 110.871 23.3291 110.878 23.3461C110.885 23.3631 110.888 23.3813 110.888 23.3996V25.4508C110.889 25.4694 110.886 25.488 110.879 25.5054C110.872 25.5227 110.862 25.5384 110.849 25.5514C110.836 25.5645 110.82 25.5745 110.803 25.5809C110.786 25.5873 110.768 25.5898 110.749 25.5884H98.8043C98.7865 25.5894 98.7686 25.5865 98.752 25.5799C98.7353 25.5732 98.7202 25.5631 98.7077 25.5501C98.6952 25.537 98.6856 25.5215 98.6795 25.5043C98.6734 25.4872 98.6709 25.469 98.6723 25.4508L98.6629 6.4876Z" fill="#2424FC"/>
<path d="M125.595 25.4624C125.596 25.4808 125.594 25.4993 125.587 25.5167C125.581 25.534 125.571 25.5498 125.558 25.5629C125.545 25.5759 125.53 25.586 125.513 25.5924C125.496 25.5988 125.478 25.6014 125.46 25.6H124.495C123.071 25.6288 122.238 25.216 121.832 24.3423C121.825 24.3182 121.811 24.2966 121.793 24.2795C121.775 24.2624 121.752 24.2505 121.728 24.245C121.704 24.2395 121.679 24.2406 121.655 24.2481C121.631 24.2556 121.61 24.2693 121.593 24.2879C120.949 24.9695 119.311 25.872 116.84 25.872C113.238 25.872 111.44 24.0959 111.44 21.4973C111.44 19.1196 113.401 17.3371 117.35 17.3371H120.358C121.244 17.3371 121.244 17.0171 121.244 16.4923C121.244 15.369 120.974 13.8105 117.787 13.8105C115.476 13.8105 114.508 14.905 114.508 16.3003C114.509 16.3182 114.506 16.336 114.5 16.3528C114.493 16.3695 114.484 16.3847 114.471 16.3973C114.459 16.41 114.444 16.4199 114.427 16.4263C114.411 16.4327 114.393 16.4356 114.376 16.4347H112.062C112.045 16.4356 112.027 16.4327 112.011 16.4263C111.994 16.4199 111.979 16.41 111.967 16.3973C111.955 16.3847 111.945 16.3695 111.939 16.3528C111.932 16.336 111.929 16.3182 111.93 16.3003C111.93 13.0713 114.759 11.5 117.787 11.5C121.493 11.5 123.803 13.2217 123.803 16.5595V21.9166C123.803 22.7646 123.91 23.2862 124.957 23.2862H125.466C125.484 23.2849 125.502 23.2873 125.518 23.2936C125.535 23.2998 125.551 23.3096 125.563 23.3223C125.576 23.335 125.586 23.3504 125.593 23.3673C125.599 23.3843 125.602 23.4025 125.601 23.4207L125.595 25.4624ZM121.244 19.5292C121.242 19.4935 121.227 19.4598 121.202 19.4345C121.177 19.4091 121.144 19.3939 121.109 19.3916H117.35C114.476 19.5292 113.989 20.5405 113.989 21.4973C113.989 22.4542 114.662 23.5487 116.818 23.5487C120.069 23.5487 121.194 21.5805 121.251 19.9133L121.244 19.5292Z" fill="#2424FC"/>
<path d="M127.686 25.602C127.668 25.6033 127.65 25.6008 127.633 25.5944C127.615 25.588 127.6 25.578 127.587 25.565C127.574 25.5519 127.563 25.5362 127.557 25.5189C127.55 25.5015 127.547 25.483 127.548 25.4644V6.48758C127.547 6.46898 127.55 6.45039 127.557 6.43304C127.563 6.4157 127.574 6.39999 127.587 6.38698C127.6 6.37396 127.615 6.36393 127.633 6.35755C127.65 6.35117 127.668 6.34859 127.686 6.34997H129.968C129.986 6.34906 130.004 6.35199 130.021 6.35858C130.038 6.36517 130.053 6.37527 130.066 6.38824C130.079 6.4012 130.089 6.41674 130.095 6.43385C130.102 6.45096 130.105 6.46927 130.104 6.48758V12.9966C130.104 13.1054 130.236 13.2143 130.371 13.051C131.429 12.0847 132.791 11.5324 134.212 11.4926C138.135 11.4926 140.606 14.4175 140.606 18.6833C140.606 22.9491 138.135 25.874 134.212 25.874C132.87 25.874 131.094 25.0547 130.371 24.3155C130.292 24.2355 130.157 24.2067 130.104 24.3699L129.833 25.4644C129.805 25.5476 129.78 25.602 129.698 25.602H127.686ZM133.945 13.8159C131.499 13.8159 130.104 15.8384 130.104 18.6833C130.104 21.5282 131.499 23.5507 133.945 23.5507C136.522 23.5507 138.053 21.5282 138.053 18.6833C138.053 15.8384 136.526 13.8159 133.945 13.8159Z" fill="#2424FC"/>
<path d="M145.012 19.75C145.002 20.2588 145.093 20.7643 145.282 21.2356C145.471 21.7068 145.752 22.1337 146.109 22.4899C146.466 22.846 146.891 23.124 147.358 23.3066C147.824 23.4891 148.323 23.5724 148.822 23.5513C150.73 23.5513 151.673 22.7322 152.236 21.6315C152.289 21.5227 152.343 21.4939 152.425 21.4939H154.814C154.895 21.4939 154.977 21.5227 154.949 21.6315C154.251 24.3097 151.859 25.8679 148.822 25.8679C144.795 25.8679 142.296 22.9434 142.296 18.6781C142.296 14.4128 144.66 11.4883 148.822 11.4883C152.984 11.4883 155.386 14.4161 155.386 18.6813C155.389 18.948 155.362 19.2142 155.307 19.4749C155.279 19.558 155.254 19.6124 155.172 19.6124H145.138C145.121 19.6119 145.103 19.6151 145.087 19.622C145.071 19.6289 145.056 19.6391 145.044 19.6522C145.033 19.6652 145.024 19.6807 145.018 19.6976C145.012 19.7144 145.011 19.7323 145.012 19.75ZM148.822 13.8177C147.855 13.8122 146.923 14.1822 146.215 14.8523C145.507 15.5224 145.077 16.442 145.012 17.4238C145.014 17.4593 145.028 17.4929 145.052 17.5183C145.077 17.5437 145.11 17.5591 145.144 17.5614H152.45C152.468 17.5628 152.486 17.5603 152.503 17.5539C152.52 17.5475 152.536 17.5374 152.548 17.5243C152.561 17.5112 152.571 17.4955 152.577 17.4781C152.584 17.4608 152.586 17.4422 152.585 17.4238C152.579 15.8655 151.478 13.8145 148.816 13.8145L148.822 13.8177Z" fill="#2424FC"/>
<path d="M159.984 25.4632C159.985 25.4814 159.983 25.4996 159.977 25.5167C159.971 25.5338 159.961 25.5494 159.949 25.5624C159.936 25.5755 159.921 25.5856 159.904 25.5922C159.888 25.5989 159.87 25.6018 159.852 25.6008H157.586C157.568 25.6023 157.549 25.5997 157.532 25.5933C157.515 25.5869 157.5 25.5768 157.487 25.5637C157.474 25.5506 157.464 25.5349 157.458 25.5175C157.452 25.5002 157.449 25.4817 157.451 25.4632V6.4876C157.449 6.46916 157.452 6.45063 157.458 6.43328C157.464 6.41593 157.474 6.40018 157.487 6.3871C157.5 6.37402 157.515 6.36393 157.532 6.35753C157.549 6.35112 157.568 6.34856 157.586 6.35H159.868C159.886 6.34904 159.904 6.35196 159.92 6.35858C159.937 6.3652 159.952 6.37536 159.964 6.38838C159.977 6.4014 159.987 6.41699 159.993 6.4341C159.999 6.45121 160.001 6.46945 160 6.4876L159.984 25.4632Z" fill="#2424FC"/>
<path d="M0 32.0003H15.7171V16L0 32.0003Z" fill="#2424FC"/>
<path d="M15.7171 15.9985V0H0L15.7171 15.9985Z" fill="#2424FC"/>
<path d="M15.7168 32.0003H31.4339V16L15.7168 32.0003Z" fill="#2424FC"/>
<path d="M31.4338 15.9985V0H15.7167L31.4338 15.9985Z" fill="#2424FC"/>
</svg>
