<svg width="22" height="18" viewBox="0 0 22 18" fill="none" xmlns="http://www.w3.org/2000/svg">
<path d="M20.3059 1H1.69409C0.761181 1 0 1.73832 0 2.64322V15.3568C0 16.2617 0.761181 17 1.69409 17H20.3059C21.2388 17 22 16.2617 22 15.3568V2.64322C22 1.73832 21.2388 1 20.3059 1ZM20.0599 2.21553L11.116 9.63478L2.17215 2.21553H20.0599ZM20.7468 15.3568C20.7468 15.5909 20.5473 15.7845 20.3059 15.7845H1.69409C1.45274 15.7845 1.25316 15.5909 1.25316 15.3568V3.0529L10.7076 10.8953C10.7122 10.8998 10.7215 10.9043 10.7262 10.9088C10.7308 10.9133 10.7401 10.9178 10.7447 10.9223C10.7586 10.9313 10.7679 10.9403 10.7819 10.9449C10.7865 10.9494 10.7911 10.9494 10.7958 10.9539C10.8143 10.9629 10.8329 10.9719 10.8515 10.9809C10.8561 10.9809 10.8608 10.9854 10.8654 10.9854C10.8793 10.9899 10.8932 10.9989 10.9118 11.0034C10.9165 11.0034 10.9257 11.0079 10.9304 11.0079C10.9443 11.0124 10.9582 11.0169 10.9722 11.0169C10.9768 11.0169 10.9861 11.0214 10.9907 11.0214C11.0046 11.0259 11.0232 11.0259 11.0371 11.0304C11.0418 11.0304 11.0464 11.0304 11.0511 11.0304C11.0696 11.0304 11.0928 11.0349 11.1114 11.0349C11.13 11.0349 11.1532 11.0349 11.1717 11.0304C11.1764 11.0304 11.181 11.0304 11.1857 11.0304C11.1996 11.0304 11.2181 11.0259 11.2321 11.0214C11.2367 11.0214 11.246 11.0169 11.2506 11.0169C11.2646 11.0124 11.2785 11.0079 11.2924 11.0079C11.297 11.0079 11.3063 11.0034 11.311 11.0034C11.3249 10.9989 11.3388 10.9944 11.3574 10.9854C11.362 10.9854 11.3667 10.9809 11.3713 10.9809C11.3899 10.9719 11.4084 10.9629 11.427 10.9539C11.4316 10.9494 11.4363 10.9494 11.4409 10.9449C11.4549 10.9358 11.4641 10.9313 11.4781 10.9223C11.4827 10.9178 11.492 10.9133 11.4966 10.9088C11.5013 10.9043 11.5105 10.8998 11.5152 10.8953L20.7468 3.24648V15.3568Z" fill="white" stroke="white" stroke-width="0.6"/>
</svg>
