<svg width="22" height="18" viewBox="0 0 22 18" fill="none" xmlns="http://www.w3.org/2000/svg">
<path d="M21.4004 2.54963C20.6348 2.88963 19.8124 3.11843 18.9492 3.22163C19.8308 2.69363 20.5068 1.85763 20.8252 0.860828C20.0012 1.34963 19.0876 1.70483 18.1148 1.89683C17.3364 1.06723 16.2276 0.548828 15.0004 0.548828C12.6436 0.548828 10.7332 2.46003 10.7332 4.81603C10.7332 5.15043 10.7716 5.47683 10.8436 5.78803C7.29721 5.61043 4.15321 3.91123 2.04761 1.32883C1.68121 1.95923 1.47081 2.69203 1.47081 3.47523C1.47081 4.95523 2.22361 6.26163 3.36841 7.02643C2.66921 7.00403 2.01081 6.81203 1.43561 6.49283C1.43561 6.51123 1.43561 6.52803 1.43561 6.54643C1.43561 8.61443 2.90601 10.3392 4.85881 10.7304C4.50121 10.828 4.12361 10.88 3.73401 10.88C3.45961 10.88 3.19161 10.8528 2.93161 10.804C3.47481 12.4992 5.05081 13.7336 6.91801 13.768C5.45801 14.9128 3.61801 15.5952 1.61801 15.5952C1.27401 15.5952 0.934009 15.5752 0.599609 15.5352C2.48841 16.7456 4.73081 17.452 7.14121 17.452C14.9908 17.452 19.282 10.9496 19.282 5.31043C19.282 5.12563 19.278 4.94163 19.27 4.75843C20.1044 4.15603 20.8284 3.40483 21.4004 2.54963Z" fill="white"/>
</svg>
